<mxfile host="app.diagrams.net" agent="Mozilla/5.0 (X11; Linux x86_64; rv:136.0) Gecko/20100101 Firefox/136.0" version="26.1.1">
  <diagram name="Page-1" id="pwcoSgdFYGVGtLcbKkSk">
    <mxGraphModel dx="2506" dy="1476" grid="1" gridSize="10" guides="1" tooltips="1" connect="1" arrows="1" fold="1" page="1" pageScale="1" pageWidth="1600" pageHeight="900" math="0" shadow="0" adaptiveColors="auto">
      <root>
        <mxCell id="0" />
        <mxCell id="1" parent="0" />
        <mxCell id="zs4LzNgN_lSSM6A1ded1-20" value="" style="group;" vertex="1" connectable="0" parent="1">
          <mxGeometry x="40" y="40" width="210" height="720" as="geometry" />
        </mxCell>
        <mxCell id="zs4LzNgN_lSSM6A1ded1-18" value="" style="group;strokeColor=default;perimeterSpacing=0;" vertex="1" connectable="0" parent="zs4LzNgN_lSSM6A1ded1-20">
          <mxGeometry y="30" width="210" height="690" as="geometry" />
        </mxCell>
        <mxCell id="zs4LzNgN_lSSM6A1ded1-6" style="edgeStyle=orthogonalEdgeStyle;rounded=0;orthogonalLoop=1;jettySize=auto;html=1;exitX=0.5;exitY=1;exitDx=0;exitDy=0;entryX=0.5;entryY=0;entryDx=0;entryDy=0;" edge="1" parent="zs4LzNgN_lSSM6A1ded1-18" source="zs4LzNgN_lSSM6A1ded1-2" target="zs4LzNgN_lSSM6A1ded1-5">
          <mxGeometry relative="1" as="geometry" />
        </mxCell>
        <mxCell id="zs4LzNgN_lSSM6A1ded1-2" value="create lesson frame" style="shape=process;whiteSpace=wrap;html=1;backgroundOutline=1;" vertex="1" parent="zs4LzNgN_lSSM6A1ded1-18">
          <mxGeometry x="45" y="180" width="120" height="60" as="geometry" />
        </mxCell>
        <mxCell id="zs4LzNgN_lSSM6A1ded1-4" style="edgeStyle=orthogonalEdgeStyle;rounded=0;orthogonalLoop=1;jettySize=auto;html=1;exitX=0.5;exitY=1;exitDx=0;exitDy=0;entryX=0.5;entryY=0;entryDx=0;entryDy=0;" edge="1" parent="zs4LzNgN_lSSM6A1ded1-18" source="zs4LzNgN_lSSM6A1ded1-3" target="zs4LzNgN_lSSM6A1ded1-2">
          <mxGeometry relative="1" as="geometry" />
        </mxCell>
        <mxCell id="zs4LzNgN_lSSM6A1ded1-3" value="initialize frame" style="shape=process;whiteSpace=wrap;html=1;backgroundOutline=1;" vertex="1" parent="zs4LzNgN_lSSM6A1ded1-18">
          <mxGeometry x="45" y="90" width="120" height="60" as="geometry" />
        </mxCell>
        <mxCell id="zs4LzNgN_lSSM6A1ded1-8" style="edgeStyle=orthogonalEdgeStyle;rounded=0;orthogonalLoop=1;jettySize=auto;html=1;exitX=0.5;exitY=1;exitDx=0;exitDy=0;entryX=0.5;entryY=0;entryDx=0;entryDy=0;" edge="1" parent="zs4LzNgN_lSSM6A1ded1-18" source="zs4LzNgN_lSSM6A1ded1-5" target="zs4LzNgN_lSSM6A1ded1-7">
          <mxGeometry relative="1" as="geometry" />
        </mxCell>
        <mxCell id="zs4LzNgN_lSSM6A1ded1-5" value="create simulation_canvas" style="shape=process;whiteSpace=wrap;html=1;backgroundOutline=1;" vertex="1" parent="zs4LzNgN_lSSM6A1ded1-18">
          <mxGeometry x="45" y="270" width="120" height="60" as="geometry" />
        </mxCell>
        <mxCell id="zs4LzNgN_lSSM6A1ded1-10" style="edgeStyle=orthogonalEdgeStyle;rounded=0;orthogonalLoop=1;jettySize=auto;html=1;exitX=0.5;exitY=1;exitDx=0;exitDy=0;entryX=0.5;entryY=0;entryDx=0;entryDy=0;" edge="1" parent="zs4LzNgN_lSSM6A1ded1-18" source="zs4LzNgN_lSSM6A1ded1-7" target="zs4LzNgN_lSSM6A1ded1-9">
          <mxGeometry relative="1" as="geometry" />
        </mxCell>
        <mxCell id="zs4LzNgN_lSSM6A1ded1-7" value="create properties frame" style="shape=process;whiteSpace=wrap;html=1;backgroundOutline=1;" vertex="1" parent="zs4LzNgN_lSSM6A1ded1-18">
          <mxGeometry x="45" y="360" width="120" height="60" as="geometry" />
        </mxCell>
        <mxCell id="zs4LzNgN_lSSM6A1ded1-14" style="edgeStyle=orthogonalEdgeStyle;rounded=0;orthogonalLoop=1;jettySize=auto;html=1;exitX=0.5;exitY=1;exitDx=0;exitDy=0;entryX=0.5;entryY=0;entryDx=0;entryDy=0;" edge="1" parent="zs4LzNgN_lSSM6A1ded1-18" source="zs4LzNgN_lSSM6A1ded1-9" target="zs4LzNgN_lSSM6A1ded1-13">
          <mxGeometry relative="1" as="geometry" />
        </mxCell>
        <mxCell id="zs4LzNgN_lSSM6A1ded1-9" value="create lesson_manager" style="shape=process;whiteSpace=wrap;html=1;backgroundOutline=1;" vertex="1" parent="zs4LzNgN_lSSM6A1ded1-18">
          <mxGeometry x="25" y="450" width="160" height="60" as="geometry" />
        </mxCell>
        <mxCell id="zs4LzNgN_lSSM6A1ded1-12" style="edgeStyle=orthogonalEdgeStyle;rounded=0;orthogonalLoop=1;jettySize=auto;html=1;exitX=0.5;exitY=1;exitDx=0;exitDy=0;entryX=0.5;entryY=0;entryDx=0;entryDy=0;" edge="1" parent="zs4LzNgN_lSSM6A1ded1-18" source="zs4LzNgN_lSSM6A1ded1-11" target="zs4LzNgN_lSSM6A1ded1-3">
          <mxGeometry relative="1" as="geometry" />
        </mxCell>
        <mxCell id="zs4LzNgN_lSSM6A1ded1-11" value="BEGIN __init__ (parent)" style="rounded=1;whiteSpace=wrap;html=1;" vertex="1" parent="zs4LzNgN_lSSM6A1ded1-18">
          <mxGeometry x="45" width="120" height="60" as="geometry" />
        </mxCell>
        <mxCell id="zs4LzNgN_lSSM6A1ded1-16" style="edgeStyle=orthogonalEdgeStyle;rounded=0;orthogonalLoop=1;jettySize=auto;html=1;exitX=0.5;exitY=1;exitDx=0;exitDy=0;entryX=0.5;entryY=0;entryDx=0;entryDy=0;" edge="1" parent="zs4LzNgN_lSSM6A1ded1-18" source="zs4LzNgN_lSSM6A1ded1-13" target="zs4LzNgN_lSSM6A1ded1-15">
          <mxGeometry relative="1" as="geometry" />
        </mxCell>
        <mxCell id="zs4LzNgN_lSSM6A1ded1-13" value="load intro.md with lesson_manager" style="shape=process;whiteSpace=wrap;html=1;backgroundOutline=1;" vertex="1" parent="zs4LzNgN_lSSM6A1ded1-18">
          <mxGeometry y="540" width="210" height="60" as="geometry" />
        </mxCell>
        <mxCell id="zs4LzNgN_lSSM6A1ded1-15" value="BEGIN __init__ (parent)" style="rounded=1;whiteSpace=wrap;html=1;" vertex="1" parent="zs4LzNgN_lSSM6A1ded1-18">
          <mxGeometry x="45" y="630" width="120" height="60" as="geometry" />
        </mxCell>
        <mxCell id="zs4LzNgN_lSSM6A1ded1-19" value="Application CLASS" style="text;html=1;align=center;verticalAlign=middle;whiteSpace=wrap;rounded=0;" vertex="1" parent="zs4LzNgN_lSSM6A1ded1-20">
          <mxGeometry x="52.5" width="105" height="30" as="geometry" />
        </mxCell>
        <mxCell id="zs4LzNgN_lSSM6A1ded1-216" value="" style="group" vertex="1" connectable="0" parent="1">
          <mxGeometry x="2030" y="40" width="940" height="680" as="geometry" />
        </mxCell>
        <mxCell id="zs4LzNgN_lSSM6A1ded1-214" value="" style="group;strokeColor=default;" vertex="1" connectable="0" parent="zs4LzNgN_lSSM6A1ded1-216">
          <mxGeometry y="30" width="940" height="650" as="geometry" />
        </mxCell>
        <mxCell id="zs4LzNgN_lSSM6A1ded1-164" style="edgeStyle=orthogonalEdgeStyle;rounded=0;orthogonalLoop=1;jettySize=auto;html=1;exitX=0.5;exitY=1;exitDx=0;exitDy=0;entryX=0.5;entryY=0;entryDx=0;entryDy=0;" edge="1" parent="zs4LzNgN_lSSM6A1ded1-214" source="zs4LzNgN_lSSM6A1ded1-153" target="zs4LzNgN_lSSM6A1ded1-155">
          <mxGeometry relative="1" as="geometry" />
        </mxCell>
        <mxCell id="zs4LzNgN_lSSM6A1ded1-153" value="BEGIN __init__ (canvas)" style="rounded=1;whiteSpace=wrap;html=1;" vertex="1" parent="zs4LzNgN_lSSM6A1ded1-214">
          <mxGeometry width="120" height="60" as="geometry" />
        </mxCell>
        <mxCell id="zs4LzNgN_lSSM6A1ded1-163" style="edgeStyle=orthogonalEdgeStyle;rounded=0;orthogonalLoop=1;jettySize=auto;html=1;exitX=0.5;exitY=1;exitDx=0;exitDy=0;entryX=0.5;entryY=0;entryDx=0;entryDy=0;" edge="1" parent="zs4LzNgN_lSSM6A1ded1-214" source="zs4LzNgN_lSSM6A1ded1-155" target="zs4LzNgN_lSSM6A1ded1-156">
          <mxGeometry relative="1" as="geometry" />
        </mxCell>
        <mxCell id="zs4LzNgN_lSSM6A1ded1-155" value="set running to false" style="rounded=0;whiteSpace=wrap;html=1;" vertex="1" parent="zs4LzNgN_lSSM6A1ded1-214">
          <mxGeometry y="100" width="120" height="60" as="geometry" />
        </mxCell>
        <mxCell id="zs4LzNgN_lSSM6A1ded1-162" style="edgeStyle=orthogonalEdgeStyle;rounded=0;orthogonalLoop=1;jettySize=auto;html=1;exitX=0.5;exitY=1;exitDx=0;exitDy=0;entryX=0.5;entryY=0;entryDx=0;entryDy=0;" edge="1" parent="zs4LzNgN_lSSM6A1ded1-214" source="zs4LzNgN_lSSM6A1ded1-156" target="zs4LzNgN_lSSM6A1ded1-157">
          <mxGeometry relative="1" as="geometry" />
        </mxCell>
        <mxCell id="zs4LzNgN_lSSM6A1ded1-156" value="set dt to global DELTA_TIME" style="rounded=0;whiteSpace=wrap;html=1;" vertex="1" parent="zs4LzNgN_lSSM6A1ded1-214">
          <mxGeometry y="180" width="120" height="60" as="geometry" />
        </mxCell>
        <mxCell id="zs4LzNgN_lSSM6A1ded1-161" style="edgeStyle=orthogonalEdgeStyle;rounded=0;orthogonalLoop=1;jettySize=auto;html=1;exitX=0.5;exitY=1;exitDx=0;exitDy=0;entryX=0.5;entryY=0;entryDx=0;entryDy=0;" edge="1" parent="zs4LzNgN_lSSM6A1ded1-214" source="zs4LzNgN_lSSM6A1ded1-157" target="zs4LzNgN_lSSM6A1ded1-158">
          <mxGeometry relative="1" as="geometry" />
        </mxCell>
        <mxCell id="zs4LzNgN_lSSM6A1ded1-157" value="set speed to global SPEED" style="rounded=0;whiteSpace=wrap;html=1;" vertex="1" parent="zs4LzNgN_lSSM6A1ded1-214">
          <mxGeometry y="260" width="120" height="60" as="geometry" />
        </mxCell>
        <mxCell id="zs4LzNgN_lSSM6A1ded1-160" style="edgeStyle=orthogonalEdgeStyle;rounded=0;orthogonalLoop=1;jettySize=auto;html=1;exitX=0.5;exitY=1;exitDx=0;exitDy=0;entryX=0.5;entryY=0;entryDx=0;entryDy=0;" edge="1" parent="zs4LzNgN_lSSM6A1ded1-214" source="zs4LzNgN_lSSM6A1ded1-158" target="zs4LzNgN_lSSM6A1ded1-159">
          <mxGeometry relative="1" as="geometry" />
        </mxCell>
        <mxCell id="zs4LzNgN_lSSM6A1ded1-158" value="set canvas to canvas" style="rounded=0;whiteSpace=wrap;html=1;" vertex="1" parent="zs4LzNgN_lSSM6A1ded1-214">
          <mxGeometry y="340" width="120" height="60" as="geometry" />
        </mxCell>
        <mxCell id="zs4LzNgN_lSSM6A1ded1-166" style="edgeStyle=orthogonalEdgeStyle;rounded=0;orthogonalLoop=1;jettySize=auto;html=1;exitX=0.5;exitY=1;exitDx=0;exitDy=0;entryX=0.5;entryY=0;entryDx=0;entryDy=0;" edge="1" parent="zs4LzNgN_lSSM6A1ded1-214" source="zs4LzNgN_lSSM6A1ded1-159" target="zs4LzNgN_lSSM6A1ded1-165">
          <mxGeometry relative="1" as="geometry" />
        </mxCell>
        <mxCell id="zs4LzNgN_lSSM6A1ded1-159" value="create physics_engine passing canvas" style="shape=process;whiteSpace=wrap;html=1;backgroundOutline=1;" vertex="1" parent="zs4LzNgN_lSSM6A1ded1-214">
          <mxGeometry y="420" width="120" height="60" as="geometry" />
        </mxCell>
        <mxCell id="zs4LzNgN_lSSM6A1ded1-165" value="END __init__ (canvas)" style="rounded=1;whiteSpace=wrap;html=1;" vertex="1" parent="zs4LzNgN_lSSM6A1ded1-214">
          <mxGeometry y="510" width="120" height="60" as="geometry" />
        </mxCell>
        <mxCell id="zs4LzNgN_lSSM6A1ded1-169" style="edgeStyle=orthogonalEdgeStyle;rounded=0;orthogonalLoop=1;jettySize=auto;html=1;exitX=0.5;exitY=1;exitDx=0;exitDy=0;entryX=0.5;entryY=0;entryDx=0;entryDy=0;" edge="1" parent="zs4LzNgN_lSSM6A1ded1-214" source="zs4LzNgN_lSSM6A1ded1-167" target="zs4LzNgN_lSSM6A1ded1-168">
          <mxGeometry relative="1" as="geometry" />
        </mxCell>
        <mxCell id="zs4LzNgN_lSSM6A1ded1-167" value="BEGIN step" style="rounded=1;whiteSpace=wrap;html=1;" vertex="1" parent="zs4LzNgN_lSSM6A1ded1-214">
          <mxGeometry x="195" width="120" height="60" as="geometry" />
        </mxCell>
        <mxCell id="zs4LzNgN_lSSM6A1ded1-171" style="edgeStyle=orthogonalEdgeStyle;rounded=0;orthogonalLoop=1;jettySize=auto;html=1;exitX=0.5;exitY=1;exitDx=0;exitDy=0;entryX=0.5;entryY=0;entryDx=0;entryDy=0;" edge="1" parent="zs4LzNgN_lSSM6A1ded1-214" source="zs4LzNgN_lSSM6A1ded1-168" target="zs4LzNgN_lSSM6A1ded1-170">
          <mxGeometry relative="1" as="geometry" />
        </mxCell>
        <mxCell id="zs4LzNgN_lSSM6A1ded1-168" value="set scaled_dt to the product of dt and speed" style="rounded=0;whiteSpace=wrap;html=1;" vertex="1" parent="zs4LzNgN_lSSM6A1ded1-214">
          <mxGeometry x="195" y="100" width="120" height="60" as="geometry" />
        </mxCell>
        <mxCell id="zs4LzNgN_lSSM6A1ded1-173" style="edgeStyle=orthogonalEdgeStyle;rounded=0;orthogonalLoop=1;jettySize=auto;html=1;exitX=0.5;exitY=1;exitDx=0;exitDy=0;entryX=0.5;entryY=0;entryDx=0;entryDy=0;" edge="1" parent="zs4LzNgN_lSSM6A1ded1-214" source="zs4LzNgN_lSSM6A1ded1-170" target="zs4LzNgN_lSSM6A1ded1-172">
          <mxGeometry relative="1" as="geometry" />
        </mxCell>
        <mxCell id="zs4LzNgN_lSSM6A1ded1-170" value="call canvas&#39; update_dimensions" style="shape=process;whiteSpace=wrap;html=1;backgroundOutline=1;" vertex="1" parent="zs4LzNgN_lSSM6A1ded1-214">
          <mxGeometry x="185" y="190" width="140" height="60" as="geometry" />
        </mxCell>
        <mxCell id="zs4LzNgN_lSSM6A1ded1-175" style="edgeStyle=orthogonalEdgeStyle;rounded=0;orthogonalLoop=1;jettySize=auto;html=1;exitX=0.5;exitY=1;exitDx=0;exitDy=0;entryX=0.5;entryY=0;entryDx=0;entryDy=0;" edge="1" parent="zs4LzNgN_lSSM6A1ded1-214" source="zs4LzNgN_lSSM6A1ded1-172" target="zs4LzNgN_lSSM6A1ded1-174">
          <mxGeometry relative="1" as="geometry" />
        </mxCell>
        <mxCell id="zs4LzNgN_lSSM6A1ded1-172" value="call physics_engine&#39;s update passing scaled_dt, canvas&#39; width, canvas&#39; height" style="shape=process;whiteSpace=wrap;html=1;backgroundOutline=1;" vertex="1" parent="zs4LzNgN_lSSM6A1ded1-214">
          <mxGeometry x="160" y="280" width="190" height="60" as="geometry" />
        </mxCell>
        <mxCell id="zs4LzNgN_lSSM6A1ded1-179" style="edgeStyle=orthogonalEdgeStyle;rounded=0;orthogonalLoop=1;jettySize=auto;html=1;exitX=1;exitY=0.5;exitDx=0;exitDy=0;entryX=0;entryY=0.5;entryDx=0;entryDy=0;" edge="1" parent="zs4LzNgN_lSSM6A1ded1-214" source="zs4LzNgN_lSSM6A1ded1-174" target="zs4LzNgN_lSSM6A1ded1-176">
          <mxGeometry relative="1" as="geometry" />
        </mxCell>
        <mxCell id="zs4LzNgN_lSSM6A1ded1-181" value="True" style="edgeLabel;html=1;align=center;verticalAlign=middle;resizable=0;points=[];" vertex="1" connectable="0" parent="zs4LzNgN_lSSM6A1ded1-179">
          <mxGeometry x="-0.3697" y="-1" relative="1" as="geometry">
            <mxPoint as="offset" />
          </mxGeometry>
        </mxCell>
        <mxCell id="zs4LzNgN_lSSM6A1ded1-183" style="edgeStyle=orthogonalEdgeStyle;rounded=0;orthogonalLoop=1;jettySize=auto;html=1;exitX=0.5;exitY=1;exitDx=0;exitDy=0;entryX=0.5;entryY=0;entryDx=0;entryDy=0;" edge="1" parent="zs4LzNgN_lSSM6A1ded1-214" source="zs4LzNgN_lSSM6A1ded1-174" target="zs4LzNgN_lSSM6A1ded1-182">
          <mxGeometry relative="1" as="geometry" />
        </mxCell>
        <mxCell id="zs4LzNgN_lSSM6A1ded1-184" value="False" style="edgeLabel;html=1;align=center;verticalAlign=middle;resizable=0;points=[];" vertex="1" connectable="0" parent="zs4LzNgN_lSSM6A1ded1-183">
          <mxGeometry x="-0.46" y="1" relative="1" as="geometry">
            <mxPoint as="offset" />
          </mxGeometry>
        </mxCell>
        <mxCell id="zs4LzNgN_lSSM6A1ded1-174" value="Running?" style="rhombus;whiteSpace=wrap;html=1;" vertex="1" parent="zs4LzNgN_lSSM6A1ded1-214">
          <mxGeometry x="215" y="360" width="80" height="80" as="geometry" />
        </mxCell>
        <mxCell id="zs4LzNgN_lSSM6A1ded1-178" style="edgeStyle=orthogonalEdgeStyle;rounded=0;orthogonalLoop=1;jettySize=auto;html=1;exitX=0.5;exitY=1;exitDx=0;exitDy=0;entryX=0.5;entryY=0;entryDx=0;entryDy=0;" edge="1" parent="zs4LzNgN_lSSM6A1ded1-214" source="zs4LzNgN_lSSM6A1ded1-176" target="zs4LzNgN_lSSM6A1ded1-177">
          <mxGeometry relative="1" as="geometry" />
        </mxCell>
        <mxCell id="zs4LzNgN_lSSM6A1ded1-176" value="call update" style="shape=process;whiteSpace=wrap;html=1;backgroundOutline=1;" vertex="1" parent="zs4LzNgN_lSSM6A1ded1-214">
          <mxGeometry x="350" y="370" width="120" height="60" as="geometry" />
        </mxCell>
        <mxCell id="zs4LzNgN_lSSM6A1ded1-185" style="edgeStyle=orthogonalEdgeStyle;rounded=0;orthogonalLoop=1;jettySize=auto;html=1;exitX=0.5;exitY=1;exitDx=0;exitDy=0;entryX=1;entryY=0.5;entryDx=0;entryDy=0;" edge="1" parent="zs4LzNgN_lSSM6A1ded1-214" source="zs4LzNgN_lSSM6A1ded1-177" target="zs4LzNgN_lSSM6A1ded1-182">
          <mxGeometry relative="1" as="geometry" />
        </mxCell>
        <mxCell id="zs4LzNgN_lSSM6A1ded1-177" value="call canvas after callback, passing dt * 1000 / speed, function step" style="shape=process;whiteSpace=wrap;html=1;backgroundOutline=1;" vertex="1" parent="zs4LzNgN_lSSM6A1ded1-214">
          <mxGeometry x="350" y="450" width="120" height="60" as="geometry" />
        </mxCell>
        <mxCell id="zs4LzNgN_lSSM6A1ded1-187" style="edgeStyle=orthogonalEdgeStyle;rounded=0;orthogonalLoop=1;jettySize=auto;html=1;exitX=0.5;exitY=1;exitDx=0;exitDy=0;entryX=0.5;entryY=0;entryDx=0;entryDy=0;" edge="1" parent="zs4LzNgN_lSSM6A1ded1-214" source="zs4LzNgN_lSSM6A1ded1-182" target="zs4LzNgN_lSSM6A1ded1-186">
          <mxGeometry relative="1" as="geometry" />
        </mxCell>
        <mxCell id="zs4LzNgN_lSSM6A1ded1-182" value="call canvas&#39; parents&#39; properties_frame&#39;s update_properties()" style="shape=process;whiteSpace=wrap;html=1;backgroundOutline=1;" vertex="1" parent="zs4LzNgN_lSSM6A1ded1-214">
          <mxGeometry x="187.5" y="500" width="135" height="60" as="geometry" />
        </mxCell>
        <mxCell id="zs4LzNgN_lSSM6A1ded1-186" value="END step" style="rounded=1;whiteSpace=wrap;html=1;" vertex="1" parent="zs4LzNgN_lSSM6A1ded1-214">
          <mxGeometry x="195" y="590" width="120" height="60" as="geometry" />
        </mxCell>
        <mxCell id="zs4LzNgN_lSSM6A1ded1-195" style="edgeStyle=orthogonalEdgeStyle;rounded=0;orthogonalLoop=1;jettySize=auto;html=1;exitX=0.5;exitY=1;exitDx=0;exitDy=0;entryX=0.5;entryY=0;entryDx=0;entryDy=0;" edge="1" parent="zs4LzNgN_lSSM6A1ded1-214" source="zs4LzNgN_lSSM6A1ded1-188" target="zs4LzNgN_lSSM6A1ded1-190">
          <mxGeometry relative="1" as="geometry" />
        </mxCell>
        <mxCell id="zs4LzNgN_lSSM6A1ded1-188" value="BEGIN reset" style="rounded=1;whiteSpace=wrap;html=1;" vertex="1" parent="zs4LzNgN_lSSM6A1ded1-214">
          <mxGeometry x="500" width="120" height="60" as="geometry" />
        </mxCell>
        <mxCell id="zs4LzNgN_lSSM6A1ded1-194" style="edgeStyle=orthogonalEdgeStyle;rounded=0;orthogonalLoop=1;jettySize=auto;html=1;exitX=0.5;exitY=1;exitDx=0;exitDy=0;entryX=0.5;entryY=0;entryDx=0;entryDy=0;" edge="1" parent="zs4LzNgN_lSSM6A1ded1-214" source="zs4LzNgN_lSSM6A1ded1-190" target="zs4LzNgN_lSSM6A1ded1-191">
          <mxGeometry relative="1" as="geometry" />
        </mxCell>
        <mxCell id="zs4LzNgN_lSSM6A1ded1-190" value="set running to false" style="rounded=0;whiteSpace=wrap;html=1;" vertex="1" parent="zs4LzNgN_lSSM6A1ded1-214">
          <mxGeometry x="500" y="80" width="120" height="60" as="geometry" />
        </mxCell>
        <mxCell id="zs4LzNgN_lSSM6A1ded1-193" style="edgeStyle=orthogonalEdgeStyle;rounded=0;orthogonalLoop=1;jettySize=auto;html=1;exitX=0.5;exitY=1;exitDx=0;exitDy=0;entryX=0.5;entryY=0;entryDx=0;entryDy=0;" edge="1" parent="zs4LzNgN_lSSM6A1ded1-214" source="zs4LzNgN_lSSM6A1ded1-191" target="zs4LzNgN_lSSM6A1ded1-192">
          <mxGeometry relative="1" as="geometry" />
        </mxCell>
        <mxCell id="zs4LzNgN_lSSM6A1ded1-191" value="set dt to global DELTA_TIME" style="rounded=0;whiteSpace=wrap;html=1;" vertex="1" parent="zs4LzNgN_lSSM6A1ded1-214">
          <mxGeometry x="500" y="160" width="120" height="60" as="geometry" />
        </mxCell>
        <mxCell id="zs4LzNgN_lSSM6A1ded1-197" style="edgeStyle=orthogonalEdgeStyle;rounded=0;orthogonalLoop=1;jettySize=auto;html=1;exitX=0.5;exitY=1;exitDx=0;exitDy=0;entryX=0.5;entryY=0;entryDx=0;entryDy=0;" edge="1" parent="zs4LzNgN_lSSM6A1ded1-214" source="zs4LzNgN_lSSM6A1ded1-192" target="zs4LzNgN_lSSM6A1ded1-196">
          <mxGeometry relative="1" as="geometry" />
        </mxCell>
        <mxCell id="zs4LzNgN_lSSM6A1ded1-192" value="set speed to global SPEED" style="rounded=0;whiteSpace=wrap;html=1;" vertex="1" parent="zs4LzNgN_lSSM6A1ded1-214">
          <mxGeometry x="500" y="240" width="120" height="60" as="geometry" />
        </mxCell>
        <mxCell id="zs4LzNgN_lSSM6A1ded1-199" style="edgeStyle=orthogonalEdgeStyle;rounded=0;orthogonalLoop=1;jettySize=auto;html=1;exitX=0.5;exitY=1;exitDx=0;exitDy=0;entryX=0.5;entryY=0;entryDx=0;entryDy=0;" edge="1" parent="zs4LzNgN_lSSM6A1ded1-214" source="zs4LzNgN_lSSM6A1ded1-196" target="zs4LzNgN_lSSM6A1ded1-198">
          <mxGeometry relative="1" as="geometry" />
        </mxCell>
        <mxCell id="zs4LzNgN_lSSM6A1ded1-196" value="call physics_engine&#39;s reset" style="shape=process;whiteSpace=wrap;html=1;backgroundOutline=1;" vertex="1" parent="zs4LzNgN_lSSM6A1ded1-214">
          <mxGeometry x="500" y="320" width="120" height="60" as="geometry" />
        </mxCell>
        <mxCell id="zs4LzNgN_lSSM6A1ded1-201" style="edgeStyle=orthogonalEdgeStyle;rounded=0;orthogonalLoop=1;jettySize=auto;html=1;exitX=0.5;exitY=1;exitDx=0;exitDy=0;entryX=0.5;entryY=0;entryDx=0;entryDy=0;" edge="1" parent="zs4LzNgN_lSSM6A1ded1-214" source="zs4LzNgN_lSSM6A1ded1-198" target="zs4LzNgN_lSSM6A1ded1-200">
          <mxGeometry relative="1" as="geometry" />
        </mxCell>
        <mxCell id="zs4LzNgN_lSSM6A1ded1-198" value="call canvas&#39; delete, passing &quot;all&quot;" style="shape=process;whiteSpace=wrap;html=1;backgroundOutline=1;" vertex="1" parent="zs4LzNgN_lSSM6A1ded1-214">
          <mxGeometry x="500" y="400" width="120" height="60" as="geometry" />
        </mxCell>
        <mxCell id="zs4LzNgN_lSSM6A1ded1-200" value="END reset" style="rounded=1;whiteSpace=wrap;html=1;" vertex="1" parent="zs4LzNgN_lSSM6A1ded1-214">
          <mxGeometry x="500" y="480" width="120" height="60" as="geometry" />
        </mxCell>
        <mxCell id="zs4LzNgN_lSSM6A1ded1-204" style="edgeStyle=orthogonalEdgeStyle;rounded=0;orthogonalLoop=1;jettySize=auto;html=1;exitX=0.5;exitY=1;exitDx=0;exitDy=0;entryX=0.5;entryY=0;entryDx=0;entryDy=0;" edge="1" parent="zs4LzNgN_lSSM6A1ded1-214" source="zs4LzNgN_lSSM6A1ded1-202" target="zs4LzNgN_lSSM6A1ded1-203">
          <mxGeometry relative="1" as="geometry" />
        </mxCell>
        <mxCell id="zs4LzNgN_lSSM6A1ded1-202" value="BEGIN update" style="rounded=1;whiteSpace=wrap;html=1;" vertex="1" parent="zs4LzNgN_lSSM6A1ded1-214">
          <mxGeometry x="670" width="120" height="60" as="geometry" />
        </mxCell>
        <mxCell id="zs4LzNgN_lSSM6A1ded1-206" style="edgeStyle=orthogonalEdgeStyle;rounded=0;orthogonalLoop=1;jettySize=auto;html=1;exitX=0.5;exitY=1;exitDx=0;exitDy=0;entryX=0.25;entryY=0;entryDx=0;entryDy=0;" edge="1" parent="zs4LzNgN_lSSM6A1ded1-214" source="zs4LzNgN_lSSM6A1ded1-203" target="zs4LzNgN_lSSM6A1ded1-205">
          <mxGeometry relative="1" as="geometry" />
        </mxCell>
        <mxCell id="zs4LzNgN_lSSM6A1ded1-203" value="get id, body from physics_engine&#39;s bodies" style="rounded=0;whiteSpace=wrap;html=1;" vertex="1" parent="zs4LzNgN_lSSM6A1ded1-214">
          <mxGeometry x="670" y="80" width="120" height="60" as="geometry" />
        </mxCell>
        <mxCell id="zs4LzNgN_lSSM6A1ded1-208" style="edgeStyle=orthogonalEdgeStyle;rounded=0;orthogonalLoop=1;jettySize=auto;html=1;exitX=0.25;exitY=1;exitDx=0;exitDy=0;entryX=0.5;entryY=0;entryDx=0;entryDy=0;" edge="1" parent="zs4LzNgN_lSSM6A1ded1-214" source="zs4LzNgN_lSSM6A1ded1-205" target="zs4LzNgN_lSSM6A1ded1-207">
          <mxGeometry relative="1" as="geometry" />
        </mxCell>
        <mxCell id="zs4LzNgN_lSSM6A1ded1-205" value="call canvas&#39; coords, passing id, returned packed value from body.get_vertices().unpack()" style="shape=process;whiteSpace=wrap;html=1;backgroundOutline=1;" vertex="1" parent="zs4LzNgN_lSSM6A1ded1-214">
          <mxGeometry x="670" y="160" width="270" height="60" as="geometry" />
        </mxCell>
        <mxCell id="zs4LzNgN_lSSM6A1ded1-210" style="edgeStyle=orthogonalEdgeStyle;rounded=0;orthogonalLoop=1;jettySize=auto;html=1;exitX=0;exitY=0.5;exitDx=0;exitDy=0;entryX=0;entryY=0.5;entryDx=0;entryDy=0;" edge="1" parent="zs4LzNgN_lSSM6A1ded1-214" source="zs4LzNgN_lSSM6A1ded1-207" target="zs4LzNgN_lSSM6A1ded1-203">
          <mxGeometry relative="1" as="geometry" />
        </mxCell>
        <mxCell id="zs4LzNgN_lSSM6A1ded1-211" value="True" style="edgeLabel;html=1;align=center;verticalAlign=middle;resizable=0;points=[];" vertex="1" connectable="0" parent="zs4LzNgN_lSSM6A1ded1-210">
          <mxGeometry x="-0.8924" y="-1" relative="1" as="geometry">
            <mxPoint as="offset" />
          </mxGeometry>
        </mxCell>
        <mxCell id="zs4LzNgN_lSSM6A1ded1-213" style="edgeStyle=orthogonalEdgeStyle;rounded=0;orthogonalLoop=1;jettySize=auto;html=1;exitX=0.5;exitY=1;exitDx=0;exitDy=0;entryX=0.5;entryY=0;entryDx=0;entryDy=0;" edge="1" parent="zs4LzNgN_lSSM6A1ded1-214" source="zs4LzNgN_lSSM6A1ded1-207" target="zs4LzNgN_lSSM6A1ded1-212">
          <mxGeometry relative="1" as="geometry" />
        </mxCell>
        <mxCell id="zs4LzNgN_lSSM6A1ded1-207" value="more id, body in physics_engine&#39;s bodies?" style="rhombus;whiteSpace=wrap;html=1;" vertex="1" parent="zs4LzNgN_lSSM6A1ded1-214">
          <mxGeometry x="670" y="240" width="130" height="100" as="geometry" />
        </mxCell>
        <mxCell id="zs4LzNgN_lSSM6A1ded1-212" value="END update" style="rounded=1;whiteSpace=wrap;html=1;" vertex="1" parent="zs4LzNgN_lSSM6A1ded1-214">
          <mxGeometry x="675" y="370" width="120" height="60" as="geometry" />
        </mxCell>
        <mxCell id="zs4LzNgN_lSSM6A1ded1-215" value="SimulationController CLASS" style="text;html=1;align=center;verticalAlign=middle;whiteSpace=wrap;rounded=0;" vertex="1" parent="zs4LzNgN_lSSM6A1ded1-216">
          <mxGeometry x="385" width="170" height="30" as="geometry" />
        </mxCell>
        <mxCell id="zs4LzNgN_lSSM6A1ded1-217" value="" style="group" vertex="1" connectable="0" parent="1">
          <mxGeometry x="1645" y="40" width="335" height="770" as="geometry" />
        </mxCell>
        <mxCell id="zs4LzNgN_lSSM6A1ded1-151" value="" style="group;strokeColor=default;" vertex="1" connectable="0" parent="zs4LzNgN_lSSM6A1ded1-217">
          <mxGeometry y="30" width="335" height="740" as="geometry" />
        </mxCell>
        <mxCell id="zs4LzNgN_lSSM6A1ded1-128" style="edgeStyle=orthogonalEdgeStyle;rounded=0;orthogonalLoop=1;jettySize=auto;html=1;exitX=0.5;exitY=1;exitDx=0;exitDy=0;entryX=0.5;entryY=0;entryDx=0;entryDy=0;" edge="1" parent="zs4LzNgN_lSSM6A1ded1-151" source="zs4LzNgN_lSSM6A1ded1-122" target="zs4LzNgN_lSSM6A1ded1-124">
          <mxGeometry relative="1" as="geometry" />
        </mxCell>
        <mxCell id="zs4LzNgN_lSSM6A1ded1-122" value="BEGIN __init__ (parent)" style="rounded=1;whiteSpace=wrap;html=1;" vertex="1" parent="zs4LzNgN_lSSM6A1ded1-151">
          <mxGeometry x="15" width="120" height="60" as="geometry" />
        </mxCell>
        <mxCell id="zs4LzNgN_lSSM6A1ded1-127" style="edgeStyle=orthogonalEdgeStyle;rounded=0;orthogonalLoop=1;jettySize=auto;html=1;exitX=0.5;exitY=1;exitDx=0;exitDy=0;entryX=0.5;entryY=0;entryDx=0;entryDy=0;" edge="1" parent="zs4LzNgN_lSSM6A1ded1-151" source="zs4LzNgN_lSSM6A1ded1-124" target="zs4LzNgN_lSSM6A1ded1-126">
          <mxGeometry relative="1" as="geometry" />
        </mxCell>
        <mxCell id="zs4LzNgN_lSSM6A1ded1-124" value="set parent to passed parent" style="rounded=0;whiteSpace=wrap;html=1;" vertex="1" parent="zs4LzNgN_lSSM6A1ded1-151">
          <mxGeometry x="15" y="90" width="120" height="60" as="geometry" />
        </mxCell>
        <mxCell id="zs4LzNgN_lSSM6A1ded1-132" style="edgeStyle=orthogonalEdgeStyle;rounded=0;orthogonalLoop=1;jettySize=auto;html=1;exitX=0.5;exitY=1;exitDx=0;exitDy=0;" edge="1" parent="zs4LzNgN_lSSM6A1ded1-151" source="zs4LzNgN_lSSM6A1ded1-126" target="zs4LzNgN_lSSM6A1ded1-131">
          <mxGeometry relative="1" as="geometry" />
        </mxCell>
        <mxCell id="zs4LzNgN_lSSM6A1ded1-126" value="init frame with parent" style="shape=process;whiteSpace=wrap;html=1;backgroundOutline=1;" vertex="1" parent="zs4LzNgN_lSSM6A1ded1-151">
          <mxGeometry x="15" y="180" width="120" height="60" as="geometry" />
        </mxCell>
        <mxCell id="zs4LzNgN_lSSM6A1ded1-134" style="edgeStyle=orthogonalEdgeStyle;rounded=0;orthogonalLoop=1;jettySize=auto;html=1;exitX=0.5;exitY=1;exitDx=0;exitDy=0;entryX=0.5;entryY=0;entryDx=0;entryDy=0;" edge="1" parent="zs4LzNgN_lSSM6A1ded1-151" source="zs4LzNgN_lSSM6A1ded1-131" target="zs4LzNgN_lSSM6A1ded1-133">
          <mxGeometry relative="1" as="geometry" />
        </mxCell>
        <mxCell id="zs4LzNgN_lSSM6A1ded1-131" value="create simulation_controller" style="shape=process;whiteSpace=wrap;html=1;backgroundOutline=1;" vertex="1" parent="zs4LzNgN_lSSM6A1ded1-151">
          <mxGeometry x="15" y="270" width="120" height="60" as="geometry" />
        </mxCell>
        <mxCell id="zs4LzNgN_lSSM6A1ded1-136" style="edgeStyle=orthogonalEdgeStyle;rounded=0;orthogonalLoop=1;jettySize=auto;html=1;exitX=0.5;exitY=1;exitDx=0;exitDy=0;entryX=0.5;entryY=0;entryDx=0;entryDy=0;" edge="1" parent="zs4LzNgN_lSSM6A1ded1-151" source="zs4LzNgN_lSSM6A1ded1-133" target="zs4LzNgN_lSSM6A1ded1-135">
          <mxGeometry relative="1" as="geometry" />
        </mxCell>
        <mxCell id="zs4LzNgN_lSSM6A1ded1-133" value="create body_renderer" style="shape=process;whiteSpace=wrap;html=1;backgroundOutline=1;" vertex="1" parent="zs4LzNgN_lSSM6A1ded1-151">
          <mxGeometry x="15" y="350" width="120" height="60" as="geometry" />
        </mxCell>
        <mxCell id="zs4LzNgN_lSSM6A1ded1-139" style="edgeStyle=orthogonalEdgeStyle;rounded=0;orthogonalLoop=1;jettySize=auto;html=1;exitX=0.5;exitY=1;exitDx=0;exitDy=0;entryX=0.5;entryY=0;entryDx=0;entryDy=0;" edge="1" parent="zs4LzNgN_lSSM6A1ded1-151" source="zs4LzNgN_lSSM6A1ded1-135" target="zs4LzNgN_lSSM6A1ded1-137">
          <mxGeometry relative="1" as="geometry" />
        </mxCell>
        <mxCell id="zs4LzNgN_lSSM6A1ded1-135" value="create interaction_manager" style="shape=process;whiteSpace=wrap;html=1;backgroundOutline=1;" vertex="1" parent="zs4LzNgN_lSSM6A1ded1-151">
          <mxGeometry x="5" y="430" width="140" height="60" as="geometry" />
        </mxCell>
        <mxCell id="zs4LzNgN_lSSM6A1ded1-141" style="edgeStyle=orthogonalEdgeStyle;rounded=0;orthogonalLoop=1;jettySize=auto;html=1;exitX=0.5;exitY=1;exitDx=0;exitDy=0;entryX=0.5;entryY=0;entryDx=0;entryDy=0;" edge="1" parent="zs4LzNgN_lSSM6A1ded1-151" source="zs4LzNgN_lSSM6A1ded1-137" target="zs4LzNgN_lSSM6A1ded1-140">
          <mxGeometry relative="1" as="geometry" />
        </mxCell>
        <mxCell id="zs4LzNgN_lSSM6A1ded1-137" value="call interaction_manager&#39;s setup_handlers" style="shape=process;whiteSpace=wrap;html=1;backgroundOutline=1;" vertex="1" parent="zs4LzNgN_lSSM6A1ded1-151">
          <mxGeometry y="520" width="150" height="60" as="geometry" />
        </mxCell>
        <mxCell id="zs4LzNgN_lSSM6A1ded1-144" style="edgeStyle=orthogonalEdgeStyle;rounded=0;orthogonalLoop=1;jettySize=auto;html=1;exitX=0.5;exitY=1;exitDx=0;exitDy=0;entryX=0.5;entryY=0;entryDx=0;entryDy=0;" edge="1" parent="zs4LzNgN_lSSM6A1ded1-151" source="zs4LzNgN_lSSM6A1ded1-140" target="zs4LzNgN_lSSM6A1ded1-143">
          <mxGeometry relative="1" as="geometry" />
        </mxCell>
        <mxCell id="zs4LzNgN_lSSM6A1ded1-140" value="grid" style="shape=process;whiteSpace=wrap;html=1;backgroundOutline=1;" vertex="1" parent="zs4LzNgN_lSSM6A1ded1-151">
          <mxGeometry x="15" y="600" width="120" height="60" as="geometry" />
        </mxCell>
        <mxCell id="zs4LzNgN_lSSM6A1ded1-148" style="edgeStyle=orthogonalEdgeStyle;rounded=0;orthogonalLoop=1;jettySize=auto;html=1;exitX=0.5;exitY=1;exitDx=0;exitDy=0;entryX=0.5;entryY=0;entryDx=0;entryDy=0;" edge="1" parent="zs4LzNgN_lSSM6A1ded1-151" source="zs4LzNgN_lSSM6A1ded1-142" target="zs4LzNgN_lSSM6A1ded1-145">
          <mxGeometry relative="1" as="geometry" />
        </mxCell>
        <mxCell id="zs4LzNgN_lSSM6A1ded1-142" value="BEGIN update_dimensions" style="rounded=1;whiteSpace=wrap;html=1;" vertex="1" parent="zs4LzNgN_lSSM6A1ded1-151">
          <mxGeometry x="215" width="120" height="60" as="geometry" />
        </mxCell>
        <mxCell id="zs4LzNgN_lSSM6A1ded1-143" value="BEGIN __init__ (parent)" style="rounded=1;whiteSpace=wrap;html=1;" vertex="1" parent="zs4LzNgN_lSSM6A1ded1-151">
          <mxGeometry x="15" y="680" width="120" height="60" as="geometry" />
        </mxCell>
        <mxCell id="zs4LzNgN_lSSM6A1ded1-147" style="edgeStyle=orthogonalEdgeStyle;rounded=0;orthogonalLoop=1;jettySize=auto;html=1;exitX=0.5;exitY=1;exitDx=0;exitDy=0;entryX=0.5;entryY=0;entryDx=0;entryDy=0;" edge="1" parent="zs4LzNgN_lSSM6A1ded1-151" source="zs4LzNgN_lSSM6A1ded1-145" target="zs4LzNgN_lSSM6A1ded1-146">
          <mxGeometry relative="1" as="geometry" />
        </mxCell>
        <mxCell id="zs4LzNgN_lSSM6A1ded1-145" value="set width to winfo_width call" style="shape=process;whiteSpace=wrap;html=1;backgroundOutline=1;" vertex="1" parent="zs4LzNgN_lSSM6A1ded1-151">
          <mxGeometry x="215" y="90" width="120" height="60" as="geometry" />
        </mxCell>
        <mxCell id="zs4LzNgN_lSSM6A1ded1-150" style="edgeStyle=orthogonalEdgeStyle;rounded=0;orthogonalLoop=1;jettySize=auto;html=1;exitX=0.5;exitY=1;exitDx=0;exitDy=0;entryX=0.5;entryY=0;entryDx=0;entryDy=0;" edge="1" parent="zs4LzNgN_lSSM6A1ded1-151" source="zs4LzNgN_lSSM6A1ded1-146" target="zs4LzNgN_lSSM6A1ded1-149">
          <mxGeometry relative="1" as="geometry" />
        </mxCell>
        <mxCell id="zs4LzNgN_lSSM6A1ded1-146" value="set height to winfo_height call" style="shape=process;whiteSpace=wrap;html=1;backgroundOutline=1;" vertex="1" parent="zs4LzNgN_lSSM6A1ded1-151">
          <mxGeometry x="215" y="170" width="120" height="60" as="geometry" />
        </mxCell>
        <mxCell id="zs4LzNgN_lSSM6A1ded1-149" value="END update_dimensions" style="rounded=1;whiteSpace=wrap;html=1;" vertex="1" parent="zs4LzNgN_lSSM6A1ded1-151">
          <mxGeometry x="215" y="260" width="120" height="60" as="geometry" />
        </mxCell>
        <mxCell id="zs4LzNgN_lSSM6A1ded1-152" value="SimulationCanvas CLASS" style="text;html=1;align=center;verticalAlign=middle;whiteSpace=wrap;rounded=0;" vertex="1" parent="zs4LzNgN_lSSM6A1ded1-217">
          <mxGeometry x="97.5" width="140" height="30" as="geometry" />
        </mxCell>
        <mxCell id="zs4LzNgN_lSSM6A1ded1-218" value="" style="group" vertex="1" connectable="0" parent="1">
          <mxGeometry x="810" y="40" width="740" height="830" as="geometry" />
        </mxCell>
        <mxCell id="zs4LzNgN_lSSM6A1ded1-116" value="" style="group;fillColor=none;strokeColor=default;" vertex="1" connectable="0" parent="zs4LzNgN_lSSM6A1ded1-218">
          <mxGeometry y="30" width="740" height="800" as="geometry" />
        </mxCell>
        <mxCell id="zs4LzNgN_lSSM6A1ded1-85" style="edgeStyle=orthogonalEdgeStyle;rounded=0;orthogonalLoop=1;jettySize=auto;html=1;exitX=0.5;exitY=1;exitDx=0;exitDy=0;entryX=0.5;entryY=0;entryDx=0;entryDy=0;" edge="1" parent="zs4LzNgN_lSSM6A1ded1-116" source="zs4LzNgN_lSSM6A1ded1-83" target="zs4LzNgN_lSSM6A1ded1-84">
          <mxGeometry relative="1" as="geometry" />
        </mxCell>
        <mxCell id="zs4LzNgN_lSSM6A1ded1-83" value="BEGIN __init__ (parent, lesson_frame, simulation_canvas)" style="rounded=1;whiteSpace=wrap;html=1;" vertex="1" parent="zs4LzNgN_lSSM6A1ded1-116">
          <mxGeometry x="30" width="120" height="60" as="geometry" />
        </mxCell>
        <mxCell id="zs4LzNgN_lSSM6A1ded1-88" style="edgeStyle=orthogonalEdgeStyle;rounded=0;orthogonalLoop=1;jettySize=auto;html=1;exitX=0.5;exitY=1;exitDx=0;exitDy=0;entryX=0.5;entryY=0;entryDx=0;entryDy=0;" edge="1" parent="zs4LzNgN_lSSM6A1ded1-116" source="zs4LzNgN_lSSM6A1ded1-84" target="zs4LzNgN_lSSM6A1ded1-87">
          <mxGeometry relative="1" as="geometry" />
        </mxCell>
        <mxCell id="zs4LzNgN_lSSM6A1ded1-84" value="assign passed parameters to local" style="rounded=0;whiteSpace=wrap;html=1;" vertex="1" parent="zs4LzNgN_lSSM6A1ded1-116">
          <mxGeometry x="30" y="90" width="120" height="60" as="geometry" />
        </mxCell>
        <mxCell id="zs4LzNgN_lSSM6A1ded1-90" style="edgeStyle=orthogonalEdgeStyle;rounded=0;orthogonalLoop=1;jettySize=auto;html=1;exitX=0.5;exitY=1;exitDx=0;exitDy=0;entryX=0.5;entryY=0;entryDx=0;entryDy=0;" edge="1" parent="zs4LzNgN_lSSM6A1ded1-116" source="zs4LzNgN_lSSM6A1ded1-87" target="zs4LzNgN_lSSM6A1ded1-89">
          <mxGeometry relative="1" as="geometry" />
        </mxCell>
        <mxCell id="zs4LzNgN_lSSM6A1ded1-87" value="create lesson_selector combobox on parent" style="shape=process;whiteSpace=wrap;html=1;backgroundOutline=1;" vertex="1" parent="zs4LzNgN_lSSM6A1ded1-116">
          <mxGeometry x="30" y="180" width="120" height="60" as="geometry" />
        </mxCell>
        <mxCell id="zs4LzNgN_lSSM6A1ded1-92" style="edgeStyle=orthogonalEdgeStyle;rounded=0;orthogonalLoop=1;jettySize=auto;html=1;exitX=0.5;exitY=1;exitDx=0;exitDy=0;entryX=0.5;entryY=0;entryDx=0;entryDy=0;" edge="1" parent="zs4LzNgN_lSSM6A1ded1-116" source="zs4LzNgN_lSSM6A1ded1-89" target="zs4LzNgN_lSSM6A1ded1-91">
          <mxGeometry relative="1" as="geometry" />
        </mxCell>
        <mxCell id="zs4LzNgN_lSSM6A1ded1-89" value="set lesson_files to list comprehension wildcard .md in global LESSONS_PATH" style="shape=process;whiteSpace=wrap;html=1;backgroundOutline=1;" vertex="1" parent="zs4LzNgN_lSSM6A1ded1-116">
          <mxGeometry y="270" width="180" height="60" as="geometry" />
        </mxCell>
        <mxCell id="zs4LzNgN_lSSM6A1ded1-94" style="edgeStyle=orthogonalEdgeStyle;rounded=0;orthogonalLoop=1;jettySize=auto;html=1;exitX=0.5;exitY=1;exitDx=0;exitDy=0;entryX=0.5;entryY=0;entryDx=0;entryDy=0;" edge="1" parent="zs4LzNgN_lSSM6A1ded1-116" source="zs4LzNgN_lSSM6A1ded1-91" target="zs4LzNgN_lSSM6A1ded1-93">
          <mxGeometry relative="1" as="geometry" />
        </mxCell>
        <mxCell id="zs4LzNgN_lSSM6A1ded1-91" value="set lesson_selector items to lesson_files" style="shape=process;whiteSpace=wrap;html=1;backgroundOutline=1;" vertex="1" parent="zs4LzNgN_lSSM6A1ded1-116">
          <mxGeometry x="30" y="360" width="120" height="60" as="geometry" />
        </mxCell>
        <mxCell id="zs4LzNgN_lSSM6A1ded1-96" style="edgeStyle=orthogonalEdgeStyle;rounded=0;orthogonalLoop=1;jettySize=auto;html=1;exitX=0.5;exitY=1;exitDx=0;exitDy=0;entryX=0.5;entryY=0;entryDx=0;entryDy=0;" edge="1" parent="zs4LzNgN_lSSM6A1ded1-116" source="zs4LzNgN_lSSM6A1ded1-93" target="zs4LzNgN_lSSM6A1ded1-95">
          <mxGeometry relative="1" as="geometry" />
        </mxCell>
        <mxCell id="zs4LzNgN_lSSM6A1ded1-93" value="grid lesson_selector" style="shape=process;whiteSpace=wrap;html=1;backgroundOutline=1;" vertex="1" parent="zs4LzNgN_lSSM6A1ded1-116">
          <mxGeometry x="30" y="450" width="120" height="60" as="geometry" />
        </mxCell>
        <mxCell id="zs4LzNgN_lSSM6A1ded1-98" style="edgeStyle=orthogonalEdgeStyle;rounded=0;orthogonalLoop=1;jettySize=auto;html=1;exitX=0.5;exitY=1;exitDx=0;exitDy=0;entryX=0.5;entryY=0;entryDx=0;entryDy=0;" edge="1" parent="zs4LzNgN_lSSM6A1ded1-116" source="zs4LzNgN_lSSM6A1ded1-95" target="zs4LzNgN_lSSM6A1ded1-97">
          <mxGeometry relative="1" as="geometry" />
        </mxCell>
        <mxCell id="zs4LzNgN_lSSM6A1ded1-95" value="bind lesson_selector combobox selection to function call switch_lesson" style="shape=process;whiteSpace=wrap;html=1;backgroundOutline=1;" vertex="1" parent="zs4LzNgN_lSSM6A1ded1-116">
          <mxGeometry x="15" y="530" width="150" height="60" as="geometry" />
        </mxCell>
        <mxCell id="zs4LzNgN_lSSM6A1ded1-101" style="edgeStyle=orthogonalEdgeStyle;rounded=0;orthogonalLoop=1;jettySize=auto;html=1;exitX=1;exitY=0.5;exitDx=0;exitDy=0;entryX=0;entryY=0.5;entryDx=0;entryDy=0;" edge="1" parent="zs4LzNgN_lSSM6A1ded1-116" source="zs4LzNgN_lSSM6A1ded1-97" target="zs4LzNgN_lSSM6A1ded1-100">
          <mxGeometry relative="1" as="geometry" />
        </mxCell>
        <mxCell id="zs4LzNgN_lSSM6A1ded1-102" value="True" style="edgeLabel;html=1;align=center;verticalAlign=middle;resizable=0;points=[];" vertex="1" connectable="0" parent="zs4LzNgN_lSSM6A1ded1-101">
          <mxGeometry x="-0.2" relative="1" as="geometry">
            <mxPoint as="offset" />
          </mxGeometry>
        </mxCell>
        <mxCell id="zs4LzNgN_lSSM6A1ded1-104" style="edgeStyle=orthogonalEdgeStyle;rounded=0;orthogonalLoop=1;jettySize=auto;html=1;exitX=0.5;exitY=1;exitDx=0;exitDy=0;entryX=0.5;entryY=0;entryDx=0;entryDy=0;" edge="1" parent="zs4LzNgN_lSSM6A1ded1-116" source="zs4LzNgN_lSSM6A1ded1-97" target="zs4LzNgN_lSSM6A1ded1-103">
          <mxGeometry relative="1" as="geometry" />
        </mxCell>
        <mxCell id="zs4LzNgN_lSSM6A1ded1-105" value="False" style="edgeLabel;html=1;align=center;verticalAlign=middle;resizable=0;points=[];" vertex="1" connectable="0" parent="zs4LzNgN_lSSM6A1ded1-104">
          <mxGeometry x="-0.3" y="4" relative="1" as="geometry">
            <mxPoint x="-4" y="-4" as="offset" />
          </mxGeometry>
        </mxCell>
        <mxCell id="zs4LzNgN_lSSM6A1ded1-97" value="if lesson_files exists" style="rhombus;whiteSpace=wrap;html=1;" vertex="1" parent="zs4LzNgN_lSSM6A1ded1-116">
          <mxGeometry x="20" y="620" width="140" height="80" as="geometry" />
        </mxCell>
        <mxCell id="zs4LzNgN_lSSM6A1ded1-106" style="edgeStyle=orthogonalEdgeStyle;rounded=0;orthogonalLoop=1;jettySize=auto;html=1;exitX=0.5;exitY=1;exitDx=0;exitDy=0;entryX=1;entryY=0.5;entryDx=0;entryDy=0;" edge="1" parent="zs4LzNgN_lSSM6A1ded1-116" source="zs4LzNgN_lSSM6A1ded1-100" target="zs4LzNgN_lSSM6A1ded1-103">
          <mxGeometry relative="1" as="geometry" />
        </mxCell>
        <mxCell id="zs4LzNgN_lSSM6A1ded1-100" value="set lesson_selector&#39;s current element to 0" style="shape=process;whiteSpace=wrap;html=1;backgroundOutline=1;" vertex="1" parent="zs4LzNgN_lSSM6A1ded1-116">
          <mxGeometry x="210" y="630" width="120" height="60" as="geometry" />
        </mxCell>
        <mxCell id="zs4LzNgN_lSSM6A1ded1-103" value="END __init__ (parent, lesson_frame, simulation_canvas)" style="rounded=1;whiteSpace=wrap;html=1;" vertex="1" parent="zs4LzNgN_lSSM6A1ded1-116">
          <mxGeometry x="30" y="740" width="120" height="60" as="geometry" />
        </mxCell>
        <mxCell id="zs4LzNgN_lSSM6A1ded1-109" style="edgeStyle=orthogonalEdgeStyle;rounded=0;orthogonalLoop=1;jettySize=auto;html=1;exitX=0.5;exitY=1;exitDx=0;exitDy=0;entryX=0.5;entryY=0;entryDx=0;entryDy=0;" edge="1" parent="zs4LzNgN_lSSM6A1ded1-116" source="zs4LzNgN_lSSM6A1ded1-107" target="zs4LzNgN_lSSM6A1ded1-108">
          <mxGeometry relative="1" as="geometry" />
        </mxCell>
        <mxCell id="zs4LzNgN_lSSM6A1ded1-107" value="BEGIN switch_lesson (default)" style="rounded=1;whiteSpace=wrap;html=1;" vertex="1" parent="zs4LzNgN_lSSM6A1ded1-116">
          <mxGeometry x="215" width="120" height="60" as="geometry" />
        </mxCell>
        <mxCell id="zs4LzNgN_lSSM6A1ded1-111" style="edgeStyle=orthogonalEdgeStyle;rounded=0;orthogonalLoop=1;jettySize=auto;html=1;exitX=0.5;exitY=1;exitDx=0;exitDy=0;entryX=0.5;entryY=0;entryDx=0;entryDy=0;" edge="1" parent="zs4LzNgN_lSSM6A1ded1-116" source="zs4LzNgN_lSSM6A1ded1-108" target="zs4LzNgN_lSSM6A1ded1-110">
          <mxGeometry relative="1" as="geometry" />
        </mxCell>
        <mxCell id="zs4LzNgN_lSSM6A1ded1-108" value="set selected_lesson to lesson_selectors returned get value" style="shape=process;whiteSpace=wrap;html=1;backgroundOutline=1;" vertex="1" parent="zs4LzNgN_lSSM6A1ded1-116">
          <mxGeometry x="165" y="90" width="220" height="60" as="geometry" />
        </mxCell>
        <mxCell id="zs4LzNgN_lSSM6A1ded1-113" style="edgeStyle=orthogonalEdgeStyle;rounded=0;orthogonalLoop=1;jettySize=auto;html=1;exitX=0.5;exitY=1;exitDx=0;exitDy=0;entryX=0.5;entryY=0;entryDx=0;entryDy=0;" edge="1" parent="zs4LzNgN_lSSM6A1ded1-116" source="zs4LzNgN_lSSM6A1ded1-110" target="zs4LzNgN_lSSM6A1ded1-112">
          <mxGeometry relative="1" as="geometry" />
        </mxCell>
        <mxCell id="zs4LzNgN_lSSM6A1ded1-110" value="call simulation_canvas&#39;s simulation_controller reset" style="shape=process;whiteSpace=wrap;html=1;backgroundOutline=1;" vertex="1" parent="zs4LzNgN_lSSM6A1ded1-116">
          <mxGeometry x="200" y="180" width="150" height="60" as="geometry" />
        </mxCell>
        <mxCell id="zs4LzNgN_lSSM6A1ded1-66" style="edgeStyle=orthogonalEdgeStyle;rounded=0;orthogonalLoop=1;jettySize=auto;html=1;exitX=0.5;exitY=1;exitDx=0;exitDy=0;entryX=0.5;entryY=0;entryDx=0;entryDy=0;" edge="1" parent="zs4LzNgN_lSSM6A1ded1-116" target="zs4LzNgN_lSSM6A1ded1-65">
          <mxGeometry relative="1" as="geometry">
            <mxPoint x="480" y="60" as="sourcePoint" />
          </mxGeometry>
        </mxCell>
        <mxCell id="zs4LzNgN_lSSM6A1ded1-68" style="edgeStyle=orthogonalEdgeStyle;rounded=0;orthogonalLoop=1;jettySize=auto;html=1;exitX=0.5;exitY=1;exitDx=0;exitDy=0;entryX=0.5;entryY=0;entryDx=0;entryDy=0;" edge="1" parent="zs4LzNgN_lSSM6A1ded1-116" source="zs4LzNgN_lSSM6A1ded1-65">
          <mxGeometry relative="1" as="geometry">
            <mxPoint x="480" y="190" as="targetPoint" />
          </mxGeometry>
        </mxCell>
        <mxCell id="zs4LzNgN_lSSM6A1ded1-65" value="lesson_file_path = safe path join global filename with lesson_filename" style="shape=process;whiteSpace=wrap;html=1;backgroundOutline=1;" vertex="1" parent="zs4LzNgN_lSSM6A1ded1-116">
          <mxGeometry x="420" y="90" width="120" height="80" as="geometry" />
        </mxCell>
        <mxCell id="zs4LzNgN_lSSM6A1ded1-70" style="edgeStyle=orthogonalEdgeStyle;rounded=0;orthogonalLoop=1;jettySize=auto;html=1;exitX=1;exitY=0.5;exitDx=0;exitDy=0;entryX=0;entryY=0.5;entryDx=0;entryDy=0;" edge="1" parent="zs4LzNgN_lSSM6A1ded1-116" source="zs4LzNgN_lSSM6A1ded1-67" target="zs4LzNgN_lSSM6A1ded1-119">
          <mxGeometry relative="1" as="geometry">
            <mxPoint x="575" y="230" as="sourcePoint" />
            <mxPoint x="615" y="230" as="targetPoint" />
          </mxGeometry>
        </mxCell>
        <mxCell id="zs4LzNgN_lSSM6A1ded1-71" value="False" style="edgeLabel;html=1;align=center;verticalAlign=middle;resizable=0;points=[];" vertex="1" connectable="0" parent="zs4LzNgN_lSSM6A1ded1-70">
          <mxGeometry x="-0.3" y="-1" relative="1" as="geometry">
            <mxPoint as="offset" />
          </mxGeometry>
        </mxCell>
        <mxCell id="zs4LzNgN_lSSM6A1ded1-73" style="edgeStyle=orthogonalEdgeStyle;rounded=0;orthogonalLoop=1;jettySize=auto;html=1;exitX=0.5;exitY=1;exitDx=0;exitDy=0;entryX=0.5;entryY=0;entryDx=0;entryDy=0;" edge="1" parent="zs4LzNgN_lSSM6A1ded1-116" target="zs4LzNgN_lSSM6A1ded1-72">
          <mxGeometry relative="1" as="geometry">
            <mxPoint x="480" y="270" as="sourcePoint" />
          </mxGeometry>
        </mxCell>
        <mxCell id="zs4LzNgN_lSSM6A1ded1-74" value="True" style="edgeLabel;html=1;align=center;verticalAlign=middle;resizable=0;points=[];" vertex="1" connectable="0" parent="zs4LzNgN_lSSM6A1ded1-73">
          <mxGeometry x="-0.2" y="2" relative="1" as="geometry">
            <mxPoint as="offset" />
          </mxGeometry>
        </mxCell>
        <mxCell id="zs4LzNgN_lSSM6A1ded1-67" value="if lesson file path exists on host" style="rhombus;whiteSpace=wrap;html=1;" vertex="1" parent="zs4LzNgN_lSSM6A1ded1-116">
          <mxGeometry x="385" y="200" width="190" height="80" as="geometry" />
        </mxCell>
        <mxCell id="zs4LzNgN_lSSM6A1ded1-78" style="edgeStyle=orthogonalEdgeStyle;rounded=0;orthogonalLoop=1;jettySize=auto;html=1;exitX=0.5;exitY=1;exitDx=0;exitDy=0;entryX=0.5;entryY=0;entryDx=0;entryDy=0;" edge="1" parent="zs4LzNgN_lSSM6A1ded1-116" source="zs4LzNgN_lSSM6A1ded1-72" target="zs4LzNgN_lSSM6A1ded1-77">
          <mxGeometry relative="1" as="geometry" />
        </mxCell>
        <mxCell id="zs4LzNgN_lSSM6A1ded1-72" value="read file into lesson_text" style="shape=process;whiteSpace=wrap;html=1;backgroundOutline=1;" vertex="1" parent="zs4LzNgN_lSSM6A1ded1-116">
          <mxGeometry x="420" y="320" width="120" height="60" as="geometry" />
        </mxCell>
        <mxCell id="zs4LzNgN_lSSM6A1ded1-75" value="END load_lesson (lesson_filename)" style="rounded=1;whiteSpace=wrap;html=1;" vertex="1" parent="zs4LzNgN_lSSM6A1ded1-116">
          <mxGeometry x="420" y="500" width="120" height="60" as="geometry" />
        </mxCell>
        <mxCell id="zs4LzNgN_lSSM6A1ded1-79" style="edgeStyle=orthogonalEdgeStyle;rounded=0;orthogonalLoop=1;jettySize=auto;html=1;exitX=0.5;exitY=1;exitDx=0;exitDy=0;entryX=0.5;entryY=0;entryDx=0;entryDy=0;" edge="1" parent="zs4LzNgN_lSSM6A1ded1-116" source="zs4LzNgN_lSSM6A1ded1-77" target="zs4LzNgN_lSSM6A1ded1-75">
          <mxGeometry relative="1" as="geometry" />
        </mxCell>
        <mxCell id="zs4LzNgN_lSSM6A1ded1-77" value="call display_lesson with lesson_text" style="shape=process;whiteSpace=wrap;html=1;backgroundOutline=1;" vertex="1" parent="zs4LzNgN_lSSM6A1ded1-116">
          <mxGeometry x="420" y="410" width="120" height="60" as="geometry" />
        </mxCell>
        <mxCell id="zs4LzNgN_lSSM6A1ded1-64" value="BEGIN load_lesson (lesson_filename)" style="rounded=1;whiteSpace=wrap;html=1;" vertex="1" parent="zs4LzNgN_lSSM6A1ded1-116">
          <mxGeometry x="420" width="120" height="60" as="geometry" />
        </mxCell>
        <mxCell id="zs4LzNgN_lSSM6A1ded1-115" style="edgeStyle=orthogonalEdgeStyle;rounded=0;orthogonalLoop=1;jettySize=auto;html=1;exitX=0.5;exitY=1;exitDx=0;exitDy=0;entryX=0.5;entryY=0;entryDx=0;entryDy=0;" edge="1" parent="zs4LzNgN_lSSM6A1ded1-116" source="zs4LzNgN_lSSM6A1ded1-112" target="zs4LzNgN_lSSM6A1ded1-114">
          <mxGeometry relative="1" as="geometry" />
        </mxCell>
        <mxCell id="zs4LzNgN_lSSM6A1ded1-112" value="call load lesson with selected_lesson" style="shape=process;whiteSpace=wrap;html=1;backgroundOutline=1;" vertex="1" parent="zs4LzNgN_lSSM6A1ded1-116">
          <mxGeometry x="215" y="280" width="120" height="60" as="geometry" />
        </mxCell>
        <mxCell id="zs4LzNgN_lSSM6A1ded1-114" value="END switch_lesson (default)" style="rounded=1;whiteSpace=wrap;html=1;" vertex="1" parent="zs4LzNgN_lSSM6A1ded1-116">
          <mxGeometry x="215" y="370" width="120" height="60" as="geometry" />
        </mxCell>
        <mxCell id="zs4LzNgN_lSSM6A1ded1-121" style="edgeStyle=orthogonalEdgeStyle;rounded=0;orthogonalLoop=1;jettySize=auto;html=1;exitX=0.5;exitY=1;exitDx=0;exitDy=0;entryX=1;entryY=0.5;entryDx=0;entryDy=0;" edge="1" parent="zs4LzNgN_lSSM6A1ded1-116" source="zs4LzNgN_lSSM6A1ded1-119" target="zs4LzNgN_lSSM6A1ded1-75">
          <mxGeometry relative="1" as="geometry" />
        </mxCell>
        <mxCell id="zs4LzNgN_lSSM6A1ded1-119" value="print filename not found" style="shape=parallelogram;perimeter=parallelogramPerimeter;whiteSpace=wrap;html=1;fixedSize=1;" vertex="1" parent="zs4LzNgN_lSSM6A1ded1-116">
          <mxGeometry x="620" y="210" width="120" height="60" as="geometry" />
        </mxCell>
        <mxCell id="zs4LzNgN_lSSM6A1ded1-117" value="LessonManager CLASS" style="text;html=1;align=center;verticalAlign=middle;whiteSpace=wrap;rounded=0;" vertex="1" parent="zs4LzNgN_lSSM6A1ded1-218">
          <mxGeometry x="292.5" width="150" height="30" as="geometry" />
        </mxCell>
        <mxCell id="zs4LzNgN_lSSM6A1ded1-219" value="" style="group" vertex="1" connectable="0" parent="1">
          <mxGeometry x="350" y="40" width="415.125" height="990" as="geometry" />
        </mxCell>
        <mxCell id="zs4LzNgN_lSSM6A1ded1-81" value="LessonFrame CLASS" style="text;html=1;align=center;verticalAlign=middle;whiteSpace=wrap;rounded=0;" vertex="1" parent="zs4LzNgN_lSSM6A1ded1-219">
          <mxGeometry x="126.56" width="162" height="30" as="geometry" />
        </mxCell>
        <mxCell id="zs4LzNgN_lSSM6A1ded1-118" value="" style="group;strokeColor=default;" vertex="1" connectable="0" parent="zs4LzNgN_lSSM6A1ded1-219">
          <mxGeometry y="30" width="415.125" height="960" as="geometry" />
        </mxCell>
        <mxCell id="zs4LzNgN_lSSM6A1ded1-23" style="edgeStyle=orthogonalEdgeStyle;rounded=0;orthogonalLoop=1;jettySize=auto;html=1;exitX=0.5;exitY=1;exitDx=0;exitDy=0;entryX=0.5;entryY=0;entryDx=0;entryDy=0;" edge="1" parent="zs4LzNgN_lSSM6A1ded1-118" source="zs4LzNgN_lSSM6A1ded1-21" target="zs4LzNgN_lSSM6A1ded1-22">
          <mxGeometry relative="1" as="geometry" />
        </mxCell>
        <mxCell id="zs4LzNgN_lSSM6A1ded1-21" value="BEGIN __init__ (parent)" style="rounded=1;whiteSpace=wrap;html=1;" vertex="1" parent="zs4LzNgN_lSSM6A1ded1-118">
          <mxGeometry width="121.5" height="60" as="geometry" />
        </mxCell>
        <mxCell id="zs4LzNgN_lSSM6A1ded1-25" style="edgeStyle=orthogonalEdgeStyle;rounded=0;orthogonalLoop=1;jettySize=auto;html=1;exitX=0.5;exitY=1;exitDx=0;exitDy=0;entryX=0.5;entryY=0;entryDx=0;entryDy=0;" edge="1" parent="zs4LzNgN_lSSM6A1ded1-118" source="zs4LzNgN_lSSM6A1ded1-22" target="zs4LzNgN_lSSM6A1ded1-24">
          <mxGeometry relative="1" as="geometry" />
        </mxCell>
        <mxCell id="zs4LzNgN_lSSM6A1ded1-22" value="parent = parent" style="rounded=0;whiteSpace=wrap;html=1;" vertex="1" parent="zs4LzNgN_lSSM6A1ded1-118">
          <mxGeometry y="100" width="121.5" height="60" as="geometry" />
        </mxCell>
        <mxCell id="zs4LzNgN_lSSM6A1ded1-27" style="edgeStyle=orthogonalEdgeStyle;rounded=0;orthogonalLoop=1;jettySize=auto;html=1;exitX=0.5;exitY=1;exitDx=0;exitDy=0;entryX=0.5;entryY=0;entryDx=0;entryDy=0;" edge="1" parent="zs4LzNgN_lSSM6A1ded1-118" source="zs4LzNgN_lSSM6A1ded1-24" target="zs4LzNgN_lSSM6A1ded1-26">
          <mxGeometry relative="1" as="geometry" />
        </mxCell>
        <mxCell id="zs4LzNgN_lSSM6A1ded1-24" value="initialize frame" style="shape=process;whiteSpace=wrap;html=1;backgroundOutline=1;" vertex="1" parent="zs4LzNgN_lSSM6A1ded1-118">
          <mxGeometry y="190" width="121.5" height="60" as="geometry" />
        </mxCell>
        <mxCell id="zs4LzNgN_lSSM6A1ded1-29" style="edgeStyle=orthogonalEdgeStyle;rounded=0;orthogonalLoop=1;jettySize=auto;html=1;exitX=0.5;exitY=1;exitDx=0;exitDy=0;entryX=0.5;entryY=0;entryDx=0;entryDy=0;" edge="1" parent="zs4LzNgN_lSSM6A1ded1-118" source="zs4LzNgN_lSSM6A1ded1-26" target="zs4LzNgN_lSSM6A1ded1-28">
          <mxGeometry relative="1" as="geometry" />
        </mxCell>
        <mxCell id="zs4LzNgN_lSSM6A1ded1-26" value="grid self" style="shape=process;whiteSpace=wrap;html=1;backgroundOutline=1;" vertex="1" parent="zs4LzNgN_lSSM6A1ded1-118">
          <mxGeometry y="280" width="121.5" height="60" as="geometry" />
        </mxCell>
        <mxCell id="zs4LzNgN_lSSM6A1ded1-31" style="edgeStyle=orthogonalEdgeStyle;rounded=0;orthogonalLoop=1;jettySize=auto;html=1;exitX=0.5;exitY=1;exitDx=0;exitDy=0;entryX=0.5;entryY=0;entryDx=0;entryDy=0;" edge="1" parent="zs4LzNgN_lSSM6A1ded1-118" source="zs4LzNgN_lSSM6A1ded1-28" target="zs4LzNgN_lSSM6A1ded1-30">
          <mxGeometry relative="1" as="geometry" />
        </mxCell>
        <mxCell id="zs4LzNgN_lSSM6A1ded1-28" value="create content frame" style="shape=process;whiteSpace=wrap;html=1;backgroundOutline=1;" vertex="1" parent="zs4LzNgN_lSSM6A1ded1-118">
          <mxGeometry y="370" width="121.5" height="60" as="geometry" />
        </mxCell>
        <mxCell id="zs4LzNgN_lSSM6A1ded1-33" style="edgeStyle=orthogonalEdgeStyle;rounded=0;orthogonalLoop=1;jettySize=auto;html=1;exitX=0.5;exitY=1;exitDx=0;exitDy=0;entryX=0.5;entryY=0;entryDx=0;entryDy=0;" edge="1" parent="zs4LzNgN_lSSM6A1ded1-118" source="zs4LzNgN_lSSM6A1ded1-30" target="zs4LzNgN_lSSM6A1ded1-32">
          <mxGeometry relative="1" as="geometry" />
        </mxCell>
        <mxCell id="zs4LzNgN_lSSM6A1ded1-30" value="create markdown parser" style="shape=process;whiteSpace=wrap;html=1;backgroundOutline=1;" vertex="1" parent="zs4LzNgN_lSSM6A1ded1-118">
          <mxGeometry y="460" width="121.5" height="60" as="geometry" />
        </mxCell>
        <mxCell id="zs4LzNgN_lSSM6A1ded1-32" value="END __init__ (parent)" style="rounded=1;whiteSpace=wrap;html=1;" vertex="1" parent="zs4LzNgN_lSSM6A1ded1-118">
          <mxGeometry y="550" width="121.5" height="60" as="geometry" />
        </mxCell>
        <mxCell id="zs4LzNgN_lSSM6A1ded1-36" style="edgeStyle=orthogonalEdgeStyle;rounded=0;orthogonalLoop=1;jettySize=auto;html=1;exitX=0.5;exitY=1;exitDx=0;exitDy=0;entryX=0.5;entryY=0;entryDx=0;entryDy=0;" edge="1" parent="zs4LzNgN_lSSM6A1ded1-118" source="zs4LzNgN_lSSM6A1ded1-34" target="zs4LzNgN_lSSM6A1ded1-35">
          <mxGeometry relative="1" as="geometry" />
        </mxCell>
        <mxCell id="zs4LzNgN_lSSM6A1ded1-34" value="BEGIN display_lesson (markdown_text)" style="rounded=1;whiteSpace=wrap;html=1;" vertex="1" parent="zs4LzNgN_lSSM6A1ded1-118">
          <mxGeometry x="222.75" width="121.5" height="60" as="geometry" />
        </mxCell>
        <mxCell id="zs4LzNgN_lSSM6A1ded1-38" style="edgeStyle=orthogonalEdgeStyle;rounded=0;orthogonalLoop=1;jettySize=auto;html=1;exitX=0.5;exitY=1;exitDx=0;exitDy=0;entryX=0.5;entryY=0;entryDx=0;entryDy=0;" edge="1" parent="zs4LzNgN_lSSM6A1ded1-118" source="zs4LzNgN_lSSM6A1ded1-35" target="zs4LzNgN_lSSM6A1ded1-37">
          <mxGeometry relative="1" as="geometry" />
        </mxCell>
        <mxCell id="zs4LzNgN_lSSM6A1ded1-35" value="parse markdown_text with markdown parser" style="shape=process;whiteSpace=wrap;html=1;backgroundOutline=1;" vertex="1" parent="zs4LzNgN_lSSM6A1ded1-118">
          <mxGeometry x="222.75" y="90" width="121.5" height="60" as="geometry" />
        </mxCell>
        <mxCell id="zs4LzNgN_lSSM6A1ded1-40" style="edgeStyle=orthogonalEdgeStyle;rounded=0;orthogonalLoop=1;jettySize=auto;html=1;exitX=1;exitY=0.5;exitDx=0;exitDy=0;entryX=1;entryY=0.5;entryDx=0;entryDy=0;" edge="1" parent="zs4LzNgN_lSSM6A1ded1-118" source="zs4LzNgN_lSSM6A1ded1-37" target="zs4LzNgN_lSSM6A1ded1-39">
          <mxGeometry relative="1" as="geometry">
            <Array as="points">
              <mxPoint x="415.125" y="220" />
              <mxPoint x="415.125" y="930" />
            </Array>
          </mxGeometry>
        </mxCell>
        <mxCell id="zs4LzNgN_lSSM6A1ded1-41" value="True" style="edgeLabel;html=1;align=center;verticalAlign=middle;resizable=0;points=[];" vertex="1" connectable="0" parent="zs4LzNgN_lSSM6A1ded1-40">
          <mxGeometry x="-0.849" y="1" relative="1" as="geometry">
            <mxPoint x="-31" y="-13" as="offset" />
          </mxGeometry>
        </mxCell>
        <mxCell id="zs4LzNgN_lSSM6A1ded1-43" style="edgeStyle=orthogonalEdgeStyle;rounded=0;orthogonalLoop=1;jettySize=auto;html=1;exitX=0.5;exitY=1;exitDx=0;exitDy=0;entryX=0.5;entryY=0;entryDx=0;entryDy=0;" edge="1" parent="zs4LzNgN_lSSM6A1ded1-118" source="zs4LzNgN_lSSM6A1ded1-37" target="zs4LzNgN_lSSM6A1ded1-42">
          <mxGeometry relative="1" as="geometry" />
        </mxCell>
        <mxCell id="zs4LzNgN_lSSM6A1ded1-44" value="False" style="edgeLabel;html=1;align=center;verticalAlign=middle;resizable=0;points=[];" vertex="1" connectable="0" parent="zs4LzNgN_lSSM6A1ded1-43">
          <mxGeometry x="-0.1" relative="1" as="geometry">
            <mxPoint as="offset" />
          </mxGeometry>
        </mxCell>
        <mxCell id="zs4LzNgN_lSSM6A1ded1-37" value="Is parsers bodies None?" style="rhombus;whiteSpace=wrap;html=1;" vertex="1" parent="zs4LzNgN_lSSM6A1ded1-118">
          <mxGeometry x="202.5" y="180" width="162" height="80" as="geometry" />
        </mxCell>
        <mxCell id="zs4LzNgN_lSSM6A1ded1-39" value="END display_lesson (markdown_text)" style="rounded=1;whiteSpace=wrap;html=1;" vertex="1" parent="zs4LzNgN_lSSM6A1ded1-118">
          <mxGeometry x="222.75" y="900" width="121.5" height="60" as="geometry" />
        </mxCell>
        <mxCell id="zs4LzNgN_lSSM6A1ded1-46" style="edgeStyle=orthogonalEdgeStyle;rounded=0;orthogonalLoop=1;jettySize=auto;html=1;exitX=0.5;exitY=1;exitDx=0;exitDy=0;entryX=0.5;entryY=0;entryDx=0;entryDy=0;" edge="1" parent="zs4LzNgN_lSSM6A1ded1-118" source="zs4LzNgN_lSSM6A1ded1-42" target="zs4LzNgN_lSSM6A1ded1-45">
          <mxGeometry relative="1" as="geometry" />
        </mxCell>
        <mxCell id="zs4LzNgN_lSSM6A1ded1-42" value="get body from parsers bodies" style="rounded=0;whiteSpace=wrap;html=1;" vertex="1" parent="zs4LzNgN_lSSM6A1ded1-118">
          <mxGeometry x="222.75" y="310" width="121.5" height="60" as="geometry" />
        </mxCell>
        <mxCell id="zs4LzNgN_lSSM6A1ded1-48" style="edgeStyle=orthogonalEdgeStyle;rounded=0;orthogonalLoop=1;jettySize=auto;html=1;exitX=0.5;exitY=1;exitDx=0;exitDy=0;entryX=0.5;entryY=0;entryDx=0;entryDy=0;" edge="1" parent="zs4LzNgN_lSSM6A1ded1-118" source="zs4LzNgN_lSSM6A1ded1-45" target="zs4LzNgN_lSSM6A1ded1-47">
          <mxGeometry relative="1" as="geometry" />
        </mxCell>
        <mxCell id="zs4LzNgN_lSSM6A1ded1-45" value="get properties from body items" style="rounded=0;whiteSpace=wrap;html=1;" vertex="1" parent="zs4LzNgN_lSSM6A1ded1-118">
          <mxGeometry x="222.75" y="410" width="121.5" height="60" as="geometry" />
        </mxCell>
        <mxCell id="zs4LzNgN_lSSM6A1ded1-51" style="edgeStyle=orthogonalEdgeStyle;rounded=0;orthogonalLoop=1;jettySize=auto;html=1;exitX=0.5;exitY=1;exitDx=0;exitDy=0;entryX=0.5;entryY=0;entryDx=0;entryDy=0;" edge="1" parent="zs4LzNgN_lSSM6A1ded1-118" source="zs4LzNgN_lSSM6A1ded1-47" target="zs4LzNgN_lSSM6A1ded1-49">
          <mxGeometry relative="1" as="geometry" />
        </mxCell>
        <mxCell id="zs4LzNgN_lSSM6A1ded1-47" value="create polygon on parents simulation canvas&#39; body_renderer with properties" style="rounded=0;whiteSpace=wrap;html=1;" vertex="1" parent="zs4LzNgN_lSSM6A1ded1-118">
          <mxGeometry x="222.75" y="510" width="121.5" height="90" as="geometry" />
        </mxCell>
        <mxCell id="zs4LzNgN_lSSM6A1ded1-52" style="edgeStyle=orthogonalEdgeStyle;rounded=0;orthogonalLoop=1;jettySize=auto;html=1;exitX=1;exitY=0.5;exitDx=0;exitDy=0;entryX=1;entryY=0.5;entryDx=0;entryDy=0;" edge="1" parent="zs4LzNgN_lSSM6A1ded1-118" source="zs4LzNgN_lSSM6A1ded1-49" target="zs4LzNgN_lSSM6A1ded1-45">
          <mxGeometry relative="1" as="geometry" />
        </mxCell>
        <mxCell id="zs4LzNgN_lSSM6A1ded1-53" value="True" style="edgeLabel;html=1;align=center;verticalAlign=middle;resizable=0;points=[];" vertex="1" connectable="0" parent="zs4LzNgN_lSSM6A1ded1-52">
          <mxGeometry x="-0.9241" y="1" relative="1" as="geometry">
            <mxPoint as="offset" />
          </mxGeometry>
        </mxCell>
        <mxCell id="zs4LzNgN_lSSM6A1ded1-54" style="edgeStyle=orthogonalEdgeStyle;rounded=0;orthogonalLoop=1;jettySize=auto;html=1;exitX=0.5;exitY=1;exitDx=0;exitDy=0;" edge="1" parent="zs4LzNgN_lSSM6A1ded1-118" source="zs4LzNgN_lSSM6A1ded1-49" target="zs4LzNgN_lSSM6A1ded1-55">
          <mxGeometry relative="1" as="geometry">
            <mxPoint x="283.5" y="760" as="targetPoint" />
          </mxGeometry>
        </mxCell>
        <mxCell id="zs4LzNgN_lSSM6A1ded1-60" value="False" style="edgeLabel;html=1;align=center;verticalAlign=middle;resizable=0;points=[];" vertex="1" connectable="0" parent="zs4LzNgN_lSSM6A1ded1-54">
          <mxGeometry x="-0.55" y="3" relative="1" as="geometry">
            <mxPoint x="-3" as="offset" />
          </mxGeometry>
        </mxCell>
        <mxCell id="zs4LzNgN_lSSM6A1ded1-49" value="more items in body?" style="rhombus;whiteSpace=wrap;html=1;" vertex="1" parent="zs4LzNgN_lSSM6A1ded1-118">
          <mxGeometry x="212.625" y="640" width="141.75" height="80" as="geometry" />
        </mxCell>
        <mxCell id="zs4LzNgN_lSSM6A1ded1-56" style="edgeStyle=orthogonalEdgeStyle;rounded=0;orthogonalLoop=1;jettySize=auto;html=1;exitX=1;exitY=0.5;exitDx=0;exitDy=0;entryX=1;entryY=0.5;entryDx=0;entryDy=0;" edge="1" parent="zs4LzNgN_lSSM6A1ded1-118" source="zs4LzNgN_lSSM6A1ded1-55" target="zs4LzNgN_lSSM6A1ded1-42">
          <mxGeometry relative="1" as="geometry">
            <Array as="points">
              <mxPoint x="394.875" y="815" />
              <mxPoint x="394.875" y="340" />
            </Array>
          </mxGeometry>
        </mxCell>
        <mxCell id="zs4LzNgN_lSSM6A1ded1-57" value="True" style="edgeLabel;html=1;align=center;verticalAlign=middle;resizable=0;points=[];" vertex="1" connectable="0" parent="zs4LzNgN_lSSM6A1ded1-56">
          <mxGeometry x="-0.9611" y="1" relative="1" as="geometry">
            <mxPoint as="offset" />
          </mxGeometry>
        </mxCell>
        <mxCell id="zs4LzNgN_lSSM6A1ded1-61" style="edgeStyle=orthogonalEdgeStyle;rounded=0;orthogonalLoop=1;jettySize=auto;html=1;exitX=0.5;exitY=1;exitDx=0;exitDy=0;entryX=0.5;entryY=0;entryDx=0;entryDy=0;" edge="1" parent="zs4LzNgN_lSSM6A1ded1-118" source="zs4LzNgN_lSSM6A1ded1-55" target="zs4LzNgN_lSSM6A1ded1-39">
          <mxGeometry relative="1" as="geometry" />
        </mxCell>
        <mxCell id="zs4LzNgN_lSSM6A1ded1-62" value="False" style="edgeLabel;html=1;align=center;verticalAlign=middle;resizable=0;points=[];" vertex="1" connectable="0" parent="zs4LzNgN_lSSM6A1ded1-61">
          <mxGeometry x="-0.2" relative="1" as="geometry">
            <mxPoint as="offset" />
          </mxGeometry>
        </mxCell>
        <mxCell id="zs4LzNgN_lSSM6A1ded1-55" value="more body in parsers bodies?" style="rhombus;whiteSpace=wrap;html=1;" vertex="1" parent="zs4LzNgN_lSSM6A1ded1-118">
          <mxGeometry x="212.625" y="760" width="141.75" height="110" as="geometry" />
        </mxCell>
        <mxCell id="zs4LzNgN_lSSM6A1ded1-287" value="" style="group" vertex="1" connectable="0" parent="1">
          <mxGeometry x="3000" y="40" width="760" height="1100" as="geometry" />
        </mxCell>
        <mxCell id="zs4LzNgN_lSSM6A1ded1-284" value="" style="group;strokeColor=default;container=0;" vertex="1" connectable="0" parent="zs4LzNgN_lSSM6A1ded1-287">
          <mxGeometry y="30" width="760" height="1070" as="geometry" />
        </mxCell>
        <mxCell id="zs4LzNgN_lSSM6A1ded1-285" value="Engine CLASS" style="text;html=1;align=center;verticalAlign=middle;resizable=0;points=[];autosize=1;strokeColor=none;fillColor=none;" vertex="1" parent="zs4LzNgN_lSSM6A1ded1-287">
          <mxGeometry x="305" width="100" height="30" as="geometry" />
        </mxCell>
        <mxCell id="zs4LzNgN_lSSM6A1ded1-223" style="edgeStyle=orthogonalEdgeStyle;rounded=0;orthogonalLoop=1;jettySize=auto;html=1;exitX=0.5;exitY=1;exitDx=0;exitDy=0;entryX=0.5;entryY=0;entryDx=0;entryDy=0;" edge="1" parent="zs4LzNgN_lSSM6A1ded1-287" source="zs4LzNgN_lSSM6A1ded1-220" target="zs4LzNgN_lSSM6A1ded1-222">
          <mxGeometry relative="1" as="geometry" />
        </mxCell>
        <mxCell id="zs4LzNgN_lSSM6A1ded1-220" value="BEGIN __init__ (gravity, canvas)" style="rounded=1;whiteSpace=wrap;html=1;" vertex="1" parent="zs4LzNgN_lSSM6A1ded1-287">
          <mxGeometry y="30" width="120" height="60" as="geometry" />
        </mxCell>
        <mxCell id="zs4LzNgN_lSSM6A1ded1-225" style="edgeStyle=orthogonalEdgeStyle;rounded=0;orthogonalLoop=1;jettySize=auto;html=1;exitX=0.5;exitY=1;exitDx=0;exitDy=0;entryX=0.5;entryY=0;entryDx=0;entryDy=0;" edge="1" parent="zs4LzNgN_lSSM6A1ded1-287" source="zs4LzNgN_lSSM6A1ded1-222" target="zs4LzNgN_lSSM6A1ded1-224">
          <mxGeometry relative="1" as="geometry" />
        </mxCell>
        <mxCell id="zs4LzNgN_lSSM6A1ded1-222" value="set bodies property to Bodies() custom class" style="rounded=0;whiteSpace=wrap;html=1;" vertex="1" parent="zs4LzNgN_lSSM6A1ded1-287">
          <mxGeometry y="140" width="120" height="60" as="geometry" />
        </mxCell>
        <mxCell id="zs4LzNgN_lSSM6A1ded1-227" style="edgeStyle=orthogonalEdgeStyle;rounded=0;orthogonalLoop=1;jettySize=auto;html=1;exitX=0.5;exitY=1;exitDx=0;exitDy=0;entryX=0.5;entryY=0;entryDx=0;entryDy=0;" edge="1" parent="zs4LzNgN_lSSM6A1ded1-287" source="zs4LzNgN_lSSM6A1ded1-224" target="zs4LzNgN_lSSM6A1ded1-226">
          <mxGeometry relative="1" as="geometry" />
        </mxCell>
        <mxCell id="zs4LzNgN_lSSM6A1ded1-224" value="set gravity property to gravity" style="rounded=0;whiteSpace=wrap;html=1;" vertex="1" parent="zs4LzNgN_lSSM6A1ded1-287">
          <mxGeometry y="220" width="120" height="60" as="geometry" />
        </mxCell>
        <mxCell id="zs4LzNgN_lSSM6A1ded1-229" style="edgeStyle=orthogonalEdgeStyle;rounded=0;orthogonalLoop=1;jettySize=auto;html=1;exitX=0.5;exitY=1;exitDx=0;exitDy=0;entryX=0.5;entryY=0;entryDx=0;entryDy=0;" edge="1" parent="zs4LzNgN_lSSM6A1ded1-287" source="zs4LzNgN_lSSM6A1ded1-226" target="zs4LzNgN_lSSM6A1ded1-228">
          <mxGeometry relative="1" as="geometry" />
        </mxCell>
        <mxCell id="zs4LzNgN_lSSM6A1ded1-226" value="set canvas property to canvas" style="rounded=0;whiteSpace=wrap;html=1;" vertex="1" parent="zs4LzNgN_lSSM6A1ded1-287">
          <mxGeometry y="310" width="120" height="60" as="geometry" />
        </mxCell>
        <mxCell id="zs4LzNgN_lSSM6A1ded1-228" value="END __init__ (gravity, canvas)" style="rounded=1;whiteSpace=wrap;html=1;" vertex="1" parent="zs4LzNgN_lSSM6A1ded1-287">
          <mxGeometry y="400" width="120" height="60" as="geometry" />
        </mxCell>
        <mxCell id="zs4LzNgN_lSSM6A1ded1-232" style="edgeStyle=orthogonalEdgeStyle;rounded=0;orthogonalLoop=1;jettySize=auto;html=1;exitX=0.5;exitY=1;exitDx=0;exitDy=0;entryX=0.5;entryY=0;entryDx=0;entryDy=0;" edge="1" parent="zs4LzNgN_lSSM6A1ded1-287" source="zs4LzNgN_lSSM6A1ded1-230" target="zs4LzNgN_lSSM6A1ded1-231">
          <mxGeometry relative="1" as="geometry" />
        </mxCell>
        <mxCell id="zs4LzNgN_lSSM6A1ded1-230" value="BEGIN __getitem__ (id)" style="rounded=1;whiteSpace=wrap;html=1;" vertex="1" parent="zs4LzNgN_lSSM6A1ded1-287">
          <mxGeometry x="190" y="30" width="120" height="60" as="geometry" />
        </mxCell>
        <mxCell id="zs4LzNgN_lSSM6A1ded1-234" style="edgeStyle=orthogonalEdgeStyle;rounded=0;orthogonalLoop=1;jettySize=auto;html=1;exitX=0.5;exitY=1;exitDx=0;exitDy=0;entryX=0.5;entryY=0;entryDx=0;entryDy=0;" edge="1" parent="zs4LzNgN_lSSM6A1ded1-287" source="zs4LzNgN_lSSM6A1ded1-231" target="zs4LzNgN_lSSM6A1ded1-233">
          <mxGeometry relative="1" as="geometry" />
        </mxCell>
        <mxCell id="zs4LzNgN_lSSM6A1ded1-231" value="RETURN body at bodies[id]" style="rounded=1;whiteSpace=wrap;html=1;" vertex="1" parent="zs4LzNgN_lSSM6A1ded1-287">
          <mxGeometry x="190" y="120" width="120" height="60" as="geometry" />
        </mxCell>
        <mxCell id="zs4LzNgN_lSSM6A1ded1-233" value="END __getitem__ (id)" style="rounded=1;whiteSpace=wrap;html=1;" vertex="1" parent="zs4LzNgN_lSSM6A1ded1-287">
          <mxGeometry x="190" y="210" width="120" height="60" as="geometry" />
        </mxCell>
        <mxCell id="zs4LzNgN_lSSM6A1ded1-237" style="edgeStyle=orthogonalEdgeStyle;rounded=0;orthogonalLoop=1;jettySize=auto;html=1;exitX=0.5;exitY=1;exitDx=0;exitDy=0;entryX=0.5;entryY=0;entryDx=0;entryDy=0;" edge="1" parent="zs4LzNgN_lSSM6A1ded1-287" source="zs4LzNgN_lSSM6A1ded1-235" target="zs4LzNgN_lSSM6A1ded1-236">
          <mxGeometry relative="1" as="geometry" />
        </mxCell>
        <mxCell id="zs4LzNgN_lSSM6A1ded1-235" value="BEGIN get_body (id)" style="rounded=1;whiteSpace=wrap;html=1;" vertex="1" parent="zs4LzNgN_lSSM6A1ded1-287">
          <mxGeometry x="360" y="30" width="120" height="60" as="geometry" />
        </mxCell>
        <mxCell id="zs4LzNgN_lSSM6A1ded1-239" style="edgeStyle=orthogonalEdgeStyle;rounded=0;orthogonalLoop=1;jettySize=auto;html=1;exitX=0.5;exitY=1;exitDx=0;exitDy=0;entryX=0.5;entryY=0;entryDx=0;entryDy=0;" edge="1" parent="zs4LzNgN_lSSM6A1ded1-287" source="zs4LzNgN_lSSM6A1ded1-236" target="zs4LzNgN_lSSM6A1ded1-238">
          <mxGeometry relative="1" as="geometry" />
        </mxCell>
        <mxCell id="zs4LzNgN_lSSM6A1ded1-236" value="RETURN value from bodies get, passing id" style="shape=process;whiteSpace=wrap;html=1;backgroundOutline=1;" vertex="1" parent="zs4LzNgN_lSSM6A1ded1-287">
          <mxGeometry x="360" y="110" width="120" height="60" as="geometry" />
        </mxCell>
        <mxCell id="zs4LzNgN_lSSM6A1ded1-238" value="END get_body (id)" style="rounded=1;whiteSpace=wrap;html=1;" vertex="1" parent="zs4LzNgN_lSSM6A1ded1-287">
          <mxGeometry x="360" y="190" width="120" height="60" as="geometry" />
        </mxCell>
        <mxCell id="zs4LzNgN_lSSM6A1ded1-243" style="edgeStyle=orthogonalEdgeStyle;rounded=0;orthogonalLoop=1;jettySize=auto;html=1;exitX=0.5;exitY=1;exitDx=0;exitDy=0;entryX=0.5;entryY=0;entryDx=0;entryDy=0;" edge="1" parent="zs4LzNgN_lSSM6A1ded1-287" source="zs4LzNgN_lSSM6A1ded1-240" target="zs4LzNgN_lSSM6A1ded1-242">
          <mxGeometry relative="1" as="geometry" />
        </mxCell>
        <mxCell id="zs4LzNgN_lSSM6A1ded1-240" value="BEGIN reset" style="rounded=1;whiteSpace=wrap;html=1;" vertex="1" parent="zs4LzNgN_lSSM6A1ded1-287">
          <mxGeometry x="360" y="270" width="120" height="60" as="geometry" />
        </mxCell>
        <mxCell id="zs4LzNgN_lSSM6A1ded1-245" style="edgeStyle=orthogonalEdgeStyle;rounded=0;orthogonalLoop=1;jettySize=auto;html=1;exitX=0.5;exitY=1;exitDx=0;exitDy=0;entryX=0.5;entryY=0;entryDx=0;entryDy=0;" edge="1" parent="zs4LzNgN_lSSM6A1ded1-287" source="zs4LzNgN_lSSM6A1ded1-242" target="zs4LzNgN_lSSM6A1ded1-244">
          <mxGeometry relative="1" as="geometry" />
        </mxCell>
        <mxCell id="zs4LzNgN_lSSM6A1ded1-242" value="set bodies property to Bodies() custom class" style="rounded=0;whiteSpace=wrap;html=1;" vertex="1" parent="zs4LzNgN_lSSM6A1ded1-287">
          <mxGeometry x="360" y="350" width="120" height="60" as="geometry" />
        </mxCell>
        <mxCell id="zs4LzNgN_lSSM6A1ded1-244" value="END reset" style="rounded=1;whiteSpace=wrap;html=1;" vertex="1" parent="zs4LzNgN_lSSM6A1ded1-287">
          <mxGeometry x="360" y="430" width="120" height="60" as="geometry" />
        </mxCell>
        <mxCell id="zs4LzNgN_lSSM6A1ded1-248" style="edgeStyle=orthogonalEdgeStyle;rounded=0;orthogonalLoop=1;jettySize=auto;html=1;exitX=0.5;exitY=1;exitDx=0;exitDy=0;entryX=0.5;entryY=0;entryDx=0;entryDy=0;" edge="1" parent="zs4LzNgN_lSSM6A1ded1-287" source="zs4LzNgN_lSSM6A1ded1-246" target="zs4LzNgN_lSSM6A1ded1-247">
          <mxGeometry relative="1" as="geometry" />
        </mxCell>
        <mxCell id="zs4LzNgN_lSSM6A1ded1-246" value="BEGIN create_bounds (dimensions)" style="rounded=1;whiteSpace=wrap;html=1;" vertex="1" parent="zs4LzNgN_lSSM6A1ded1-287">
          <mxGeometry x="190" y="290" width="120" height="60" as="geometry" />
        </mxCell>
        <mxCell id="zs4LzNgN_lSSM6A1ded1-250" style="edgeStyle=orthogonalEdgeStyle;rounded=0;orthogonalLoop=1;jettySize=auto;html=1;exitX=0.5;exitY=1;exitDx=0;exitDy=0;entryX=0.5;entryY=0;entryDx=0;entryDy=0;" edge="1" parent="zs4LzNgN_lSSM6A1ded1-287" source="zs4LzNgN_lSSM6A1ded1-247" target="zs4LzNgN_lSSM6A1ded1-249">
          <mxGeometry relative="1" as="geometry" />
        </mxCell>
        <mxCell id="zs4LzNgN_lSSM6A1ded1-247" value="set walls to list of four walls with dimensions" style="rounded=0;whiteSpace=wrap;html=1;" vertex="1" parent="zs4LzNgN_lSSM6A1ded1-287">
          <mxGeometry x="190" y="370" width="120" height="60" as="geometry" />
        </mxCell>
        <mxCell id="zs4LzNgN_lSSM6A1ded1-252" style="edgeStyle=orthogonalEdgeStyle;rounded=0;orthogonalLoop=1;jettySize=auto;html=1;exitX=0.5;exitY=1;exitDx=0;exitDy=0;entryX=0.5;entryY=0;entryDx=0;entryDy=0;" edge="1" parent="zs4LzNgN_lSSM6A1ded1-287" source="zs4LzNgN_lSSM6A1ded1-249" target="zs4LzNgN_lSSM6A1ded1-251">
          <mxGeometry relative="1" as="geometry" />
        </mxCell>
        <mxCell id="zs4LzNgN_lSSM6A1ded1-249" value="RETURN list comprehension create RigidBody passing result of draw_rectangle with width, height and position x, y for each width, height, x, y in walls" style="rounded=0;whiteSpace=wrap;html=1;" vertex="1" parent="zs4LzNgN_lSSM6A1ded1-287">
          <mxGeometry x="140" y="460" width="220" height="130" as="geometry" />
        </mxCell>
        <mxCell id="zs4LzNgN_lSSM6A1ded1-251" value="END create_bounds (dimensions)" style="rounded=1;whiteSpace=wrap;html=1;" vertex="1" parent="zs4LzNgN_lSSM6A1ded1-287">
          <mxGeometry x="190" y="620" width="120" height="60" as="geometry" />
        </mxCell>
        <mxCell id="zs4LzNgN_lSSM6A1ded1-255" style="edgeStyle=orthogonalEdgeStyle;rounded=0;orthogonalLoop=1;jettySize=auto;html=1;exitX=0.5;exitY=1;exitDx=0;exitDy=0;entryX=0.5;entryY=0;entryDx=0;entryDy=0;" edge="1" parent="zs4LzNgN_lSSM6A1ded1-287" source="zs4LzNgN_lSSM6A1ded1-253" target="zs4LzNgN_lSSM6A1ded1-254">
          <mxGeometry relative="1" as="geometry" />
        </mxCell>
        <mxCell id="zs4LzNgN_lSSM6A1ded1-253" value="BEGIN update (delta_time, dimensions)" style="rounded=1;whiteSpace=wrap;html=1;" vertex="1" parent="zs4LzNgN_lSSM6A1ded1-287">
          <mxGeometry x="555" y="30" width="120" height="60" as="geometry" />
        </mxCell>
        <mxCell id="zs4LzNgN_lSSM6A1ded1-257" style="edgeStyle=orthogonalEdgeStyle;rounded=0;orthogonalLoop=1;jettySize=auto;html=1;exitX=0.5;exitY=1;exitDx=0;exitDy=0;entryX=0.5;entryY=0;entryDx=0;entryDy=0;" edge="1" parent="zs4LzNgN_lSSM6A1ded1-287" source="zs4LzNgN_lSSM6A1ded1-254" target="zs4LzNgN_lSSM6A1ded1-256">
          <mxGeometry relative="1" as="geometry" />
        </mxCell>
        <mxCell id="zs4LzNgN_lSSM6A1ded1-254" value="set walls to create_walls, passing dimensions" style="shape=process;whiteSpace=wrap;html=1;backgroundOutline=1;" vertex="1" parent="zs4LzNgN_lSSM6A1ded1-287">
          <mxGeometry x="555" y="120" width="120" height="60" as="geometry" />
        </mxCell>
        <mxCell id="zs4LzNgN_lSSM6A1ded1-259" style="edgeStyle=orthogonalEdgeStyle;rounded=0;orthogonalLoop=1;jettySize=auto;html=1;exitX=0.5;exitY=1;exitDx=0;exitDy=0;entryX=0.5;entryY=0;entryDx=0;entryDy=0;" edge="1" parent="zs4LzNgN_lSSM6A1ded1-287" source="zs4LzNgN_lSSM6A1ded1-256" target="zs4LzNgN_lSSM6A1ded1-258">
          <mxGeometry relative="1" as="geometry" />
        </mxCell>
        <mxCell id="zs4LzNgN_lSSM6A1ded1-256" value="get body from bodies" style="rounded=0;whiteSpace=wrap;html=1;" vertex="1" parent="zs4LzNgN_lSSM6A1ded1-287">
          <mxGeometry x="555" y="220" width="120" height="60" as="geometry" />
        </mxCell>
        <mxCell id="zs4LzNgN_lSSM6A1ded1-263" style="edgeStyle=orthogonalEdgeStyle;rounded=0;orthogonalLoop=1;jettySize=auto;html=1;exitX=0.5;exitY=1;exitDx=0;exitDy=0;entryX=0.5;entryY=0;entryDx=0;entryDy=0;" edge="1" parent="zs4LzNgN_lSSM6A1ded1-287" source="zs4LzNgN_lSSM6A1ded1-258" target="zs4LzNgN_lSSM6A1ded1-260">
          <mxGeometry relative="1" as="geometry" />
        </mxCell>
        <mxCell id="zs4LzNgN_lSSM6A1ded1-258" value="call body&#39;s update, passing delta_time" style="shape=process;whiteSpace=wrap;html=1;backgroundOutline=1;" vertex="1" parent="zs4LzNgN_lSSM6A1ded1-287">
          <mxGeometry x="555" y="310" width="120" height="60" as="geometry" />
        </mxCell>
        <mxCell id="zs4LzNgN_lSSM6A1ded1-262" style="edgeStyle=orthogonalEdgeStyle;rounded=0;orthogonalLoop=1;jettySize=auto;html=1;exitX=0.5;exitY=1;exitDx=0;exitDy=0;entryX=0.5;entryY=0;entryDx=0;entryDy=0;" edge="1" parent="zs4LzNgN_lSSM6A1ded1-287" source="zs4LzNgN_lSSM6A1ded1-260" target="zs4LzNgN_lSSM6A1ded1-261">
          <mxGeometry relative="1" as="geometry" />
        </mxCell>
        <mxCell id="zs4LzNgN_lSSM6A1ded1-260" value="select wall in walls" style="rounded=0;whiteSpace=wrap;html=1;" vertex="1" parent="zs4LzNgN_lSSM6A1ded1-287">
          <mxGeometry x="555" y="390" width="120" height="60" as="geometry" />
        </mxCell>
        <mxCell id="zs4LzNgN_lSSM6A1ded1-265" style="edgeStyle=orthogonalEdgeStyle;rounded=0;orthogonalLoop=1;jettySize=auto;html=1;exitX=0.5;exitY=1;exitDx=0;exitDy=0;entryX=0.5;entryY=0;entryDx=0;entryDy=0;" edge="1" parent="zs4LzNgN_lSSM6A1ded1-287" source="zs4LzNgN_lSSM6A1ded1-261" target="zs4LzNgN_lSSM6A1ded1-264">
          <mxGeometry relative="1" as="geometry" />
        </mxCell>
        <mxCell id="zs4LzNgN_lSSM6A1ded1-261" value="call handle_collision, passing body_wall" style="shape=process;whiteSpace=wrap;html=1;backgroundOutline=1;" vertex="1" parent="zs4LzNgN_lSSM6A1ded1-287">
          <mxGeometry x="555" y="470" width="120" height="60" as="geometry" />
        </mxCell>
        <mxCell id="zs4LzNgN_lSSM6A1ded1-266" style="edgeStyle=orthogonalEdgeStyle;rounded=0;orthogonalLoop=1;jettySize=auto;html=1;exitX=1;exitY=0.5;exitDx=0;exitDy=0;entryX=1;entryY=0.5;entryDx=0;entryDy=0;" edge="1" parent="zs4LzNgN_lSSM6A1ded1-287" source="zs4LzNgN_lSSM6A1ded1-264" target="zs4LzNgN_lSSM6A1ded1-261">
          <mxGeometry relative="1" as="geometry">
            <Array as="points">
              <mxPoint x="695" y="590" />
              <mxPoint x="695" y="500" />
            </Array>
          </mxGeometry>
        </mxCell>
        <mxCell id="zs4LzNgN_lSSM6A1ded1-267" value="True" style="edgeLabel;html=1;align=center;verticalAlign=middle;resizable=0;points=[];" vertex="1" connectable="0" parent="zs4LzNgN_lSSM6A1ded1-266">
          <mxGeometry x="-0.6667" y="1" relative="1" as="geometry">
            <mxPoint as="offset" />
          </mxGeometry>
        </mxCell>
        <mxCell id="zs4LzNgN_lSSM6A1ded1-269" style="edgeStyle=orthogonalEdgeStyle;rounded=0;orthogonalLoop=1;jettySize=auto;html=1;exitX=0.5;exitY=1;exitDx=0;exitDy=0;entryX=0.5;entryY=0;entryDx=0;entryDy=0;" edge="1" parent="zs4LzNgN_lSSM6A1ded1-287" source="zs4LzNgN_lSSM6A1ded1-264" target="zs4LzNgN_lSSM6A1ded1-268">
          <mxGeometry relative="1" as="geometry" />
        </mxCell>
        <mxCell id="zs4LzNgN_lSSM6A1ded1-270" value="False" style="edgeLabel;html=1;align=center;verticalAlign=middle;resizable=0;points=[];" vertex="1" connectable="0" parent="zs4LzNgN_lSSM6A1ded1-269">
          <mxGeometry x="-0.15" y="-6" relative="1" as="geometry">
            <mxPoint x="6" y="3" as="offset" />
          </mxGeometry>
        </mxCell>
        <mxCell id="zs4LzNgN_lSSM6A1ded1-264" value="more wall in walls?" style="rhombus;whiteSpace=wrap;html=1;" vertex="1" parent="zs4LzNgN_lSSM6A1ded1-287">
          <mxGeometry x="575" y="550" width="80" height="80" as="geometry" />
        </mxCell>
        <mxCell id="zs4LzNgN_lSSM6A1ded1-271" style="edgeStyle=orthogonalEdgeStyle;rounded=0;orthogonalLoop=1;jettySize=auto;html=1;exitX=1;exitY=0.5;exitDx=0;exitDy=0;entryX=1;entryY=0.5;entryDx=0;entryDy=0;" edge="1" parent="zs4LzNgN_lSSM6A1ded1-287" source="zs4LzNgN_lSSM6A1ded1-268" target="zs4LzNgN_lSSM6A1ded1-260">
          <mxGeometry relative="1" as="geometry">
            <Array as="points">
              <mxPoint x="705" y="710" />
              <mxPoint x="705" y="420" />
            </Array>
          </mxGeometry>
        </mxCell>
        <mxCell id="zs4LzNgN_lSSM6A1ded1-272" value="True" style="edgeLabel;html=1;align=center;verticalAlign=middle;resizable=0;points=[];" vertex="1" connectable="0" parent="zs4LzNgN_lSSM6A1ded1-271">
          <mxGeometry x="-0.9211" y="3" relative="1" as="geometry">
            <mxPoint as="offset" />
          </mxGeometry>
        </mxCell>
        <mxCell id="zs4LzNgN_lSSM6A1ded1-274" style="edgeStyle=orthogonalEdgeStyle;rounded=0;orthogonalLoop=1;jettySize=auto;html=1;exitX=0.5;exitY=1;exitDx=0;exitDy=0;entryX=0.5;entryY=0;entryDx=0;entryDy=0;" edge="1" parent="zs4LzNgN_lSSM6A1ded1-287" source="zs4LzNgN_lSSM6A1ded1-268" target="zs4LzNgN_lSSM6A1ded1-273">
          <mxGeometry relative="1" as="geometry" />
        </mxCell>
        <mxCell id="zs4LzNgN_lSSM6A1ded1-268" value="more body in bodies?" style="rhombus;whiteSpace=wrap;html=1;" vertex="1" parent="zs4LzNgN_lSSM6A1ded1-287">
          <mxGeometry x="560" y="660" width="110" height="80" as="geometry" />
        </mxCell>
        <mxCell id="zs4LzNgN_lSSM6A1ded1-276" style="edgeStyle=orthogonalEdgeStyle;rounded=0;orthogonalLoop=1;jettySize=auto;html=1;exitX=0.5;exitY=1;exitDx=0;exitDy=0;entryX=0.5;entryY=0;entryDx=0;entryDy=0;" edge="1" parent="zs4LzNgN_lSSM6A1ded1-287" source="zs4LzNgN_lSSM6A1ded1-273" target="zs4LzNgN_lSSM6A1ded1-275">
          <mxGeometry relative="1" as="geometry" />
        </mxCell>
        <mxCell id="zs4LzNgN_lSSM6A1ded1-273" value="select body_a, body_b from 2 pair combinations from bodies" style="rounded=0;whiteSpace=wrap;html=1;" vertex="1" parent="zs4LzNgN_lSSM6A1ded1-287">
          <mxGeometry x="555" y="760" width="120" height="60" as="geometry" />
        </mxCell>
        <mxCell id="zs4LzNgN_lSSM6A1ded1-278" style="edgeStyle=orthogonalEdgeStyle;rounded=0;orthogonalLoop=1;jettySize=auto;html=1;exitX=0.5;exitY=1;exitDx=0;exitDy=0;entryX=0.5;entryY=0;entryDx=0;entryDy=0;" edge="1" parent="zs4LzNgN_lSSM6A1ded1-287" source="zs4LzNgN_lSSM6A1ded1-275" target="zs4LzNgN_lSSM6A1ded1-277">
          <mxGeometry relative="1" as="geometry" />
        </mxCell>
        <mxCell id="zs4LzNgN_lSSM6A1ded1-275" value="call handle_collision, passing body_a, body_b" style="shape=process;whiteSpace=wrap;html=1;backgroundOutline=1;" vertex="1" parent="zs4LzNgN_lSSM6A1ded1-287">
          <mxGeometry x="555" y="850" width="120" height="60" as="geometry" />
        </mxCell>
        <mxCell id="zs4LzNgN_lSSM6A1ded1-279" style="edgeStyle=orthogonalEdgeStyle;rounded=0;orthogonalLoop=1;jettySize=auto;html=1;exitX=1;exitY=0.5;exitDx=0;exitDy=0;entryX=1;entryY=0.5;entryDx=0;entryDy=0;" edge="1" parent="zs4LzNgN_lSSM6A1ded1-287" source="zs4LzNgN_lSSM6A1ded1-277" target="zs4LzNgN_lSSM6A1ded1-273">
          <mxGeometry relative="1" as="geometry" />
        </mxCell>
        <mxCell id="zs4LzNgN_lSSM6A1ded1-280" value="True" style="edgeLabel;html=1;align=center;verticalAlign=middle;resizable=0;points=[];" vertex="1" connectable="0" parent="zs4LzNgN_lSSM6A1ded1-279">
          <mxGeometry x="-0.9137" y="2" relative="1" as="geometry">
            <mxPoint x="-3702" y="1070" as="offset" />
          </mxGeometry>
        </mxCell>
        <mxCell id="zs4LzNgN_lSSM6A1ded1-282" style="edgeStyle=orthogonalEdgeStyle;rounded=0;orthogonalLoop=1;jettySize=auto;html=1;exitX=0.5;exitY=1;exitDx=0;exitDy=0;entryX=0.5;entryY=0;entryDx=0;entryDy=0;" edge="1" parent="zs4LzNgN_lSSM6A1ded1-287" source="zs4LzNgN_lSSM6A1ded1-277" target="zs4LzNgN_lSSM6A1ded1-281">
          <mxGeometry relative="1" as="geometry" />
        </mxCell>
        <mxCell id="zs4LzNgN_lSSM6A1ded1-283" value="False" style="edgeLabel;html=1;align=center;verticalAlign=middle;resizable=0;points=[];" vertex="1" connectable="0" parent="zs4LzNgN_lSSM6A1ded1-282">
          <mxGeometry x="-0.3333" y="3" relative="1" as="geometry">
            <mxPoint as="offset" />
          </mxGeometry>
        </mxCell>
        <mxCell id="zs4LzNgN_lSSM6A1ded1-277" value="more body_a, body_b in combinations?" style="rhombus;whiteSpace=wrap;html=1;" vertex="1" parent="zs4LzNgN_lSSM6A1ded1-287">
          <mxGeometry x="520" y="930" width="190" height="80" as="geometry" />
        </mxCell>
        <mxCell id="zs4LzNgN_lSSM6A1ded1-281" value="END update (delta_time, dimensions)" style="rounded=1;whiteSpace=wrap;html=1;" vertex="1" parent="zs4LzNgN_lSSM6A1ded1-287">
          <mxGeometry x="555" y="1040" width="120" height="60" as="geometry" />
        </mxCell>
        <mxCell id="zs4LzNgN_lSSM6A1ded1-370" value="" style="group" vertex="1" connectable="0" parent="1">
          <mxGeometry x="98" y="1110" width="930" height="1220" as="geometry" />
        </mxCell>
        <mxCell id="zs4LzNgN_lSSM6A1ded1-368" value="" style="group" vertex="1" connectable="0" parent="zs4LzNgN_lSSM6A1ded1-370">
          <mxGeometry y="30" width="870" height="1190" as="geometry" />
        </mxCell>
        <mxCell id="zs4LzNgN_lSSM6A1ded1-367" value="" style="group;strokeColor=default;container=0;" vertex="1" connectable="0" parent="zs4LzNgN_lSSM6A1ded1-368">
          <mxGeometry width="735" height="1190" as="geometry" />
        </mxCell>
        <mxCell id="zs4LzNgN_lSSM6A1ded1-291" style="edgeStyle=orthogonalEdgeStyle;rounded=0;orthogonalLoop=1;jettySize=auto;html=1;exitX=0.5;exitY=1;exitDx=0;exitDy=0;" edge="1" parent="zs4LzNgN_lSSM6A1ded1-368" source="zs4LzNgN_lSSM6A1ded1-288" target="zs4LzNgN_lSSM6A1ded1-290">
          <mxGeometry relative="1" as="geometry" />
        </mxCell>
        <mxCell id="zs4LzNgN_lSSM6A1ded1-288" value="BEGIN handle_collision (body_a, body_b)" style="rounded=1;whiteSpace=wrap;html=1;" vertex="1" parent="zs4LzNgN_lSSM6A1ded1-368">
          <mxGeometry x="5" width="120" height="60" as="geometry" />
        </mxCell>
        <mxCell id="zs4LzNgN_lSSM6A1ded1-293" style="edgeStyle=orthogonalEdgeStyle;rounded=0;orthogonalLoop=1;jettySize=auto;html=1;exitX=0.5;exitY=1;exitDx=0;exitDy=0;entryX=0.5;entryY=0;entryDx=0;entryDy=0;" edge="1" parent="zs4LzNgN_lSSM6A1ded1-368" source="zs4LzNgN_lSSM6A1ded1-290" target="zs4LzNgN_lSSM6A1ded1-292">
          <mxGeometry relative="1" as="geometry" />
        </mxCell>
        <mxCell id="zs4LzNgN_lSSM6A1ded1-290" value="set result to call result from sat, passing body_a, body_b" style="shape=process;whiteSpace=wrap;html=1;backgroundOutline=1;" vertex="1" parent="zs4LzNgN_lSSM6A1ded1-368">
          <mxGeometry x="5" y="80" width="120" height="60" as="geometry" />
        </mxCell>
        <mxCell id="zs4LzNgN_lSSM6A1ded1-298" style="edgeStyle=orthogonalEdgeStyle;rounded=0;orthogonalLoop=1;jettySize=auto;html=1;exitX=1;exitY=0.5;exitDx=0;exitDy=0;entryX=0;entryY=0.5;entryDx=0;entryDy=0;" edge="1" parent="zs4LzNgN_lSSM6A1ded1-368" source="zs4LzNgN_lSSM6A1ded1-292" target="zs4LzNgN_lSSM6A1ded1-297">
          <mxGeometry relative="1" as="geometry" />
        </mxCell>
        <mxCell id="zs4LzNgN_lSSM6A1ded1-299" value="True" style="edgeLabel;html=1;align=center;verticalAlign=middle;resizable=0;points=[];" vertex="1" connectable="0" parent="zs4LzNgN_lSSM6A1ded1-298">
          <mxGeometry x="-0.0375" y="-4" relative="1" as="geometry">
            <mxPoint x="-6" y="-4" as="offset" />
          </mxGeometry>
        </mxCell>
        <mxCell id="zs4LzNgN_lSSM6A1ded1-292" value="is result None?" style="rhombus;whiteSpace=wrap;html=1;" vertex="1" parent="zs4LzNgN_lSSM6A1ded1-368">
          <mxGeometry y="170" width="130" height="80" as="geometry" />
        </mxCell>
        <mxCell id="zs4LzNgN_lSSM6A1ded1-294" value="END handle_collision (body_a, body_b)" style="rounded=1;whiteSpace=wrap;html=1;" vertex="1" parent="zs4LzNgN_lSSM6A1ded1-368">
          <mxGeometry x="10" y="310" width="120" height="60" as="geometry" />
        </mxCell>
        <mxCell id="zs4LzNgN_lSSM6A1ded1-295" style="edgeStyle=orthogonalEdgeStyle;rounded=0;orthogonalLoop=1;jettySize=auto;html=1;exitX=0.5;exitY=1;exitDx=0;exitDy=0;entryX=0.456;entryY=0.037;entryDx=0;entryDy=0;entryPerimeter=0;" edge="1" parent="zs4LzNgN_lSSM6A1ded1-368" source="zs4LzNgN_lSSM6A1ded1-292" target="zs4LzNgN_lSSM6A1ded1-294">
          <mxGeometry relative="1" as="geometry" />
        </mxCell>
        <mxCell id="zs4LzNgN_lSSM6A1ded1-296" value="True" style="edgeLabel;html=1;align=center;verticalAlign=middle;resizable=0;points=[];" vertex="1" connectable="0" parent="zs4LzNgN_lSSM6A1ded1-295">
          <mxGeometry x="-0.2073" y="2" relative="1" as="geometry">
            <mxPoint as="offset" />
          </mxGeometry>
        </mxCell>
        <mxCell id="zs4LzNgN_lSSM6A1ded1-301" style="edgeStyle=orthogonalEdgeStyle;rounded=0;orthogonalLoop=1;jettySize=auto;html=1;exitX=0.5;exitY=1;exitDx=0;exitDy=0;entryX=1;entryY=0.5;entryDx=0;entryDy=0;" edge="1" parent="zs4LzNgN_lSSM6A1ded1-368" source="zs4LzNgN_lSSM6A1ded1-297" target="zs4LzNgN_lSSM6A1ded1-294">
          <mxGeometry relative="1" as="geometry" />
        </mxCell>
        <mxCell id="zs4LzNgN_lSSM6A1ded1-297" value="call resolve_collision, passing body_a, body_b, result" style="shape=process;whiteSpace=wrap;html=1;backgroundOutline=1;" vertex="1" parent="zs4LzNgN_lSSM6A1ded1-368">
          <mxGeometry x="175" y="180" width="120" height="60" as="geometry" />
        </mxCell>
        <mxCell id="zs4LzNgN_lSSM6A1ded1-304" style="edgeStyle=orthogonalEdgeStyle;rounded=0;orthogonalLoop=1;jettySize=auto;html=1;exitX=0.5;exitY=1;exitDx=0;exitDy=0;entryX=0.5;entryY=0;entryDx=0;entryDy=0;" edge="1" parent="zs4LzNgN_lSSM6A1ded1-368" source="zs4LzNgN_lSSM6A1ded1-302" target="zs4LzNgN_lSSM6A1ded1-303">
          <mxGeometry relative="1" as="geometry" />
        </mxCell>
        <mxCell id="zs4LzNgN_lSSM6A1ded1-302" value="BEGIN resolve_collision (body_a, body_b, result)" style="rounded=1;whiteSpace=wrap;html=1;" vertex="1" parent="zs4LzNgN_lSSM6A1ded1-368">
          <mxGeometry x="385" width="120" height="60" as="geometry" />
        </mxCell>
        <mxCell id="zs4LzNgN_lSSM6A1ded1-306" style="edgeStyle=orthogonalEdgeStyle;rounded=0;orthogonalLoop=1;jettySize=auto;html=1;exitX=0.5;exitY=1;exitDx=0;exitDy=0;entryX=0.5;entryY=0;entryDx=0;entryDy=0;" edge="1" parent="zs4LzNgN_lSSM6A1ded1-368" source="zs4LzNgN_lSSM6A1ded1-303" target="zs4LzNgN_lSSM6A1ded1-305">
          <mxGeometry relative="1" as="geometry" />
        </mxCell>
        <mxCell id="zs4LzNgN_lSSM6A1ded1-303" value="unpack results to contacts, penetration, normal" style="rounded=0;whiteSpace=wrap;html=1;" vertex="1" parent="zs4LzNgN_lSSM6A1ded1-368">
          <mxGeometry x="385" y="90" width="120" height="60" as="geometry" />
        </mxCell>
        <mxCell id="zs4LzNgN_lSSM6A1ded1-307" style="edgeStyle=orthogonalEdgeStyle;rounded=0;orthogonalLoop=1;jettySize=auto;html=1;exitX=1;exitY=0.5;exitDx=0;exitDy=0;" edge="1" parent="zs4LzNgN_lSSM6A1ded1-368" source="zs4LzNgN_lSSM6A1ded1-305" target="zs4LzNgN_lSSM6A1ded1-308">
          <mxGeometry relative="1" as="geometry">
            <mxPoint x="535" y="220.1379310344828" as="targetPoint" />
          </mxGeometry>
        </mxCell>
        <mxCell id="zs4LzNgN_lSSM6A1ded1-309" value="False" style="edgeLabel;html=1;align=center;verticalAlign=middle;resizable=0;points=[];" vertex="1" connectable="0" parent="zs4LzNgN_lSSM6A1ded1-307">
          <mxGeometry x="-0.15" y="-1" relative="1" as="geometry">
            <mxPoint as="offset" />
          </mxGeometry>
        </mxCell>
        <mxCell id="zs4LzNgN_lSSM6A1ded1-312" style="edgeStyle=orthogonalEdgeStyle;rounded=0;orthogonalLoop=1;jettySize=auto;html=1;exitX=0.5;exitY=1;exitDx=0;exitDy=0;entryX=0.5;entryY=0;entryDx=0;entryDy=0;" edge="1" parent="zs4LzNgN_lSSM6A1ded1-368" source="zs4LzNgN_lSSM6A1ded1-305">
          <mxGeometry relative="1" as="geometry">
            <mxPoint x="445" y="290" as="targetPoint" />
          </mxGeometry>
        </mxCell>
        <mxCell id="zs4LzNgN_lSSM6A1ded1-316" value="True" style="edgeLabel;html=1;align=center;verticalAlign=middle;resizable=0;points=[];" vertex="1" connectable="0" parent="zs4LzNgN_lSSM6A1ded1-312">
          <mxGeometry x="-0.577" y="-1" relative="1" as="geometry">
            <mxPoint x="1" y="4" as="offset" />
          </mxGeometry>
        </mxCell>
        <mxCell id="zs4LzNgN_lSSM6A1ded1-305" value="contacts?" style="rhombus;whiteSpace=wrap;html=1;" vertex="1" parent="zs4LzNgN_lSSM6A1ded1-368">
          <mxGeometry x="405" y="180" width="80" height="80" as="geometry" />
        </mxCell>
        <mxCell id="zs4LzNgN_lSSM6A1ded1-361" style="edgeStyle=orthogonalEdgeStyle;rounded=0;orthogonalLoop=1;jettySize=auto;html=1;exitX=1;exitY=0.5;exitDx=0;exitDy=0;entryX=1;entryY=0.5;entryDx=0;entryDy=0;" edge="1" parent="zs4LzNgN_lSSM6A1ded1-368" source="zs4LzNgN_lSSM6A1ded1-308" target="zs4LzNgN_lSSM6A1ded1-359">
          <mxGeometry relative="1" as="geometry" />
        </mxCell>
        <mxCell id="zs4LzNgN_lSSM6A1ded1-308" value="RETURN" style="rounded=0;whiteSpace=wrap;html=1;" vertex="1" parent="zs4LzNgN_lSSM6A1ded1-368">
          <mxGeometry x="545" y="189.9979310344828" width="120" height="60" as="geometry" />
        </mxCell>
        <mxCell id="zs4LzNgN_lSSM6A1ded1-327" style="edgeStyle=orthogonalEdgeStyle;rounded=0;orthogonalLoop=1;jettySize=auto;html=1;exitX=0.5;exitY=1;exitDx=0;exitDy=0;entryX=0.5;entryY=0;entryDx=0;entryDy=0;" edge="1" parent="zs4LzNgN_lSSM6A1ded1-368" source="zs4LzNgN_lSSM6A1ded1-323" target="zs4LzNgN_lSSM6A1ded1-326">
          <mxGeometry relative="1" as="geometry" />
        </mxCell>
        <mxCell id="zs4LzNgN_lSSM6A1ded1-323" value="calculate vectors from each body to the contact point" style="ellipse;whiteSpace=wrap;html=1;" vertex="1" parent="zs4LzNgN_lSSM6A1ded1-368">
          <mxGeometry x="385" y="380" width="130" height="80" as="geometry" />
        </mxCell>
        <mxCell id="zs4LzNgN_lSSM6A1ded1-325" style="edgeStyle=orthogonalEdgeStyle;rounded=0;orthogonalLoop=1;jettySize=auto;html=1;exitX=0.5;exitY=1;exitDx=0;exitDy=0;entryX=0.5;entryY=0;entryDx=0;entryDy=0;" edge="1" parent="zs4LzNgN_lSSM6A1ded1-368" source="zs4LzNgN_lSSM6A1ded1-324" target="zs4LzNgN_lSSM6A1ded1-323">
          <mxGeometry relative="1" as="geometry" />
        </mxCell>
        <mxCell id="zs4LzNgN_lSSM6A1ded1-324" value="get contact from contacts" style="rounded=0;whiteSpace=wrap;html=1;" vertex="1" parent="zs4LzNgN_lSSM6A1ded1-368">
          <mxGeometry x="385" y="290" width="120" height="60" as="geometry" />
        </mxCell>
        <mxCell id="zs4LzNgN_lSSM6A1ded1-329" style="edgeStyle=orthogonalEdgeStyle;rounded=0;orthogonalLoop=1;jettySize=auto;html=1;exitX=0.5;exitY=1;exitDx=0;exitDy=0;entryX=0.5;entryY=0;entryDx=0;entryDy=0;" edge="1" parent="zs4LzNgN_lSSM6A1ded1-368" source="zs4LzNgN_lSSM6A1ded1-326" target="zs4LzNgN_lSSM6A1ded1-328">
          <mxGeometry relative="1" as="geometry" />
        </mxCell>
        <mxCell id="zs4LzNgN_lSSM6A1ded1-326" value="compute relative velocity at contact point" style="ellipse;whiteSpace=wrap;html=1;" vertex="1" parent="zs4LzNgN_lSSM6A1ded1-368">
          <mxGeometry x="390" y="480" width="120" height="80" as="geometry" />
        </mxCell>
        <mxCell id="zs4LzNgN_lSSM6A1ded1-331" style="edgeStyle=orthogonalEdgeStyle;rounded=0;orthogonalLoop=1;jettySize=auto;html=1;exitX=0.5;exitY=1;exitDx=0;exitDy=0;entryX=0.5;entryY=0;entryDx=0;entryDy=0;" edge="1" parent="zs4LzNgN_lSSM6A1ded1-368" source="zs4LzNgN_lSSM6A1ded1-328" target="zs4LzNgN_lSSM6A1ded1-330">
          <mxGeometry relative="1" as="geometry" />
        </mxCell>
        <mxCell id="zs4LzNgN_lSSM6A1ded1-334" value="False" style="edgeLabel;html=1;align=center;verticalAlign=middle;resizable=0;points=[];" vertex="1" connectable="0" parent="zs4LzNgN_lSSM6A1ded1-331">
          <mxGeometry x="-0.2966" y="2" relative="1" as="geometry">
            <mxPoint as="offset" />
          </mxGeometry>
        </mxCell>
        <mxCell id="zs4LzNgN_lSSM6A1ded1-365" style="edgeStyle=orthogonalEdgeStyle;rounded=0;orthogonalLoop=1;jettySize=auto;html=1;exitX=1;exitY=0.5;exitDx=0;exitDy=0;" edge="1" parent="zs4LzNgN_lSSM6A1ded1-368" source="zs4LzNgN_lSSM6A1ded1-328">
          <mxGeometry relative="1" as="geometry">
            <mxPoint x="545" y="840" as="targetPoint" />
          </mxGeometry>
        </mxCell>
        <mxCell id="zs4LzNgN_lSSM6A1ded1-366" value="True" style="edgeLabel;html=1;align=center;verticalAlign=middle;resizable=0;points=[];" vertex="1" connectable="0" parent="zs4LzNgN_lSSM6A1ded1-365">
          <mxGeometry x="-0.8792" y="-1" relative="1" as="geometry">
            <mxPoint as="offset" />
          </mxGeometry>
        </mxCell>
        <mxCell id="zs4LzNgN_lSSM6A1ded1-328" value="is bodies separating?" style="rhombus;whiteSpace=wrap;html=1;" vertex="1" parent="zs4LzNgN_lSSM6A1ded1-368">
          <mxGeometry x="397.5" y="580" width="105" height="80" as="geometry" />
        </mxCell>
        <mxCell id="zs4LzNgN_lSSM6A1ded1-333" style="edgeStyle=orthogonalEdgeStyle;rounded=0;orthogonalLoop=1;jettySize=auto;html=1;exitX=0.5;exitY=1;exitDx=0;exitDy=0;entryX=0.5;entryY=0;entryDx=0;entryDy=0;" edge="1" parent="zs4LzNgN_lSSM6A1ded1-368" source="zs4LzNgN_lSSM6A1ded1-330" target="zs4LzNgN_lSSM6A1ded1-332">
          <mxGeometry relative="1" as="geometry" />
        </mxCell>
        <mxCell id="zs4LzNgN_lSSM6A1ded1-330" value="calculate cross products and denominator of impulse" style="ellipse;whiteSpace=wrap;html=1;" vertex="1" parent="zs4LzNgN_lSSM6A1ded1-368">
          <mxGeometry x="390" y="700" width="120" height="80" as="geometry" />
        </mxCell>
        <mxCell id="zs4LzNgN_lSSM6A1ded1-336" style="edgeStyle=orthogonalEdgeStyle;rounded=0;orthogonalLoop=1;jettySize=auto;html=1;exitX=0.5;exitY=1;exitDx=0;exitDy=0;entryX=0.5;entryY=0;entryDx=0;entryDy=0;" edge="1" parent="zs4LzNgN_lSSM6A1ded1-368" source="zs4LzNgN_lSSM6A1ded1-332" target="zs4LzNgN_lSSM6A1ded1-335">
          <mxGeometry relative="1" as="geometry" />
        </mxCell>
        <mxCell id="zs4LzNgN_lSSM6A1ded1-337" value="False" style="edgeLabel;html=1;align=center;verticalAlign=middle;resizable=0;points=[];" vertex="1" connectable="0" parent="zs4LzNgN_lSSM6A1ded1-336">
          <mxGeometry x="-0.1167" y="1" relative="1" as="geometry">
            <mxPoint as="offset" />
          </mxGeometry>
        </mxCell>
        <mxCell id="zs4LzNgN_lSSM6A1ded1-332" value="is denominator zero?" style="rhombus;whiteSpace=wrap;html=1;" vertex="1" parent="zs4LzNgN_lSSM6A1ded1-368">
          <mxGeometry x="395" y="800" width="107.5" height="80" as="geometry" />
        </mxCell>
        <mxCell id="zs4LzNgN_lSSM6A1ded1-339" style="edgeStyle=orthogonalEdgeStyle;rounded=0;orthogonalLoop=1;jettySize=auto;html=1;exitX=0.5;exitY=1;exitDx=0;exitDy=0;entryX=0.5;entryY=0;entryDx=0;entryDy=0;" edge="1" parent="zs4LzNgN_lSSM6A1ded1-368" source="zs4LzNgN_lSSM6A1ded1-335" target="zs4LzNgN_lSSM6A1ded1-338">
          <mxGeometry relative="1" as="geometry" />
        </mxCell>
        <mxCell id="zs4LzNgN_lSSM6A1ded1-335" value="calculate impulse scalar based on collision normal and restitution" style="ellipse;whiteSpace=wrap;html=1;" vertex="1" parent="zs4LzNgN_lSSM6A1ded1-368">
          <mxGeometry x="390" y="910" width="120" height="80" as="geometry" />
        </mxCell>
        <mxCell id="zs4LzNgN_lSSM6A1ded1-341" style="edgeStyle=orthogonalEdgeStyle;rounded=0;orthogonalLoop=1;jettySize=auto;html=1;exitX=0.5;exitY=1;exitDx=0;exitDy=0;entryX=0.5;entryY=0;entryDx=0;entryDy=0;" edge="1" parent="zs4LzNgN_lSSM6A1ded1-368" source="zs4LzNgN_lSSM6A1ded1-338" target="zs4LzNgN_lSSM6A1ded1-340">
          <mxGeometry relative="1" as="geometry" />
        </mxCell>
        <mxCell id="zs4LzNgN_lSSM6A1ded1-338" value="apply impulse to update velocities and angular velocities of both bodies" style="ellipse;whiteSpace=wrap;html=1;" vertex="1" parent="zs4LzNgN_lSSM6A1ded1-368">
          <mxGeometry x="388.75" y="1010" width="120" height="80" as="geometry" />
        </mxCell>
        <mxCell id="zs4LzNgN_lSSM6A1ded1-342" style="edgeStyle=orthogonalEdgeStyle;rounded=0;orthogonalLoop=1;jettySize=auto;html=1;exitX=1;exitY=0.5;exitDx=0;exitDy=0;entryX=1;entryY=0.5;entryDx=0;entryDy=0;" edge="1" parent="zs4LzNgN_lSSM6A1ded1-368" source="zs4LzNgN_lSSM6A1ded1-340" target="zs4LzNgN_lSSM6A1ded1-324">
          <mxGeometry relative="1" as="geometry">
            <Array as="points">
              <mxPoint x="535" y="1150" />
              <mxPoint x="535" y="320" />
            </Array>
          </mxGeometry>
        </mxCell>
        <mxCell id="zs4LzNgN_lSSM6A1ded1-343" value="False" style="edgeLabel;html=1;align=center;verticalAlign=middle;resizable=0;points=[];" vertex="1" connectable="0" parent="zs4LzNgN_lSSM6A1ded1-342">
          <mxGeometry x="-0.9699" y="1" relative="1" as="geometry">
            <mxPoint as="offset" />
          </mxGeometry>
        </mxCell>
        <mxCell id="zs4LzNgN_lSSM6A1ded1-346" style="edgeStyle=orthogonalEdgeStyle;rounded=0;orthogonalLoop=1;jettySize=auto;html=1;exitX=0;exitY=0.5;exitDx=0;exitDy=0;entryX=1;entryY=0.5;entryDx=0;entryDy=0;" edge="1" parent="zs4LzNgN_lSSM6A1ded1-368" source="zs4LzNgN_lSSM6A1ded1-340" target="zs4LzNgN_lSSM6A1ded1-344">
          <mxGeometry relative="1" as="geometry" />
        </mxCell>
        <mxCell id="zs4LzNgN_lSSM6A1ded1-347" value="True" style="edgeLabel;html=1;align=center;verticalAlign=middle;resizable=0;points=[];" vertex="1" connectable="0" parent="zs4LzNgN_lSSM6A1ded1-346">
          <mxGeometry x="-0.9781" y="-1" relative="1" as="geometry">
            <mxPoint x="-10" y="1" as="offset" />
          </mxGeometry>
        </mxCell>
        <mxCell id="zs4LzNgN_lSSM6A1ded1-340" value="more contact in contacts?" style="rhombus;whiteSpace=wrap;html=1;" vertex="1" parent="zs4LzNgN_lSSM6A1ded1-368">
          <mxGeometry x="393.75" y="1110" width="110" height="80" as="geometry" />
        </mxCell>
        <mxCell id="zs4LzNgN_lSSM6A1ded1-348" style="edgeStyle=orthogonalEdgeStyle;rounded=0;orthogonalLoop=1;jettySize=auto;html=1;exitX=0.5;exitY=0;exitDx=0;exitDy=0;entryX=0.5;entryY=1;entryDx=0;entryDy=0;" edge="1" parent="zs4LzNgN_lSSM6A1ded1-368" source="zs4LzNgN_lSSM6A1ded1-344" target="zs4LzNgN_lSSM6A1ded1-308">
          <mxGeometry relative="1" as="geometry">
            <Array as="points">
              <mxPoint x="270" y="360" />
              <mxPoint x="605" y="360" />
            </Array>
          </mxGeometry>
        </mxCell>
        <mxCell id="zs4LzNgN_lSSM6A1ded1-349" value="False" style="edgeLabel;html=1;align=center;verticalAlign=middle;resizable=0;points=[];" vertex="1" connectable="0" parent="zs4LzNgN_lSSM6A1ded1-348">
          <mxGeometry x="-0.9276" y="-2" relative="1" as="geometry">
            <mxPoint as="offset" />
          </mxGeometry>
        </mxCell>
        <mxCell id="zs4LzNgN_lSSM6A1ded1-352" style="edgeStyle=orthogonalEdgeStyle;rounded=0;orthogonalLoop=1;jettySize=auto;html=1;exitX=0.5;exitY=1;exitDx=0;exitDy=0;entryX=0.5;entryY=0;entryDx=0;entryDy=0;" edge="1" parent="zs4LzNgN_lSSM6A1ded1-368" source="zs4LzNgN_lSSM6A1ded1-344" target="zs4LzNgN_lSSM6A1ded1-351">
          <mxGeometry relative="1" as="geometry" />
        </mxCell>
        <mxCell id="zs4LzNgN_lSSM6A1ded1-353" value="True" style="edgeLabel;html=1;align=center;verticalAlign=middle;resizable=0;points=[];" vertex="1" connectable="0" parent="zs4LzNgN_lSSM6A1ded1-352">
          <mxGeometry x="0.106" y="1" relative="1" as="geometry">
            <mxPoint as="offset" />
          </mxGeometry>
        </mxCell>
        <mxCell id="zs4LzNgN_lSSM6A1ded1-344" value="if penetration depth and collision normal are valid" style="rhombus;whiteSpace=wrap;html=1;" vertex="1" parent="zs4LzNgN_lSSM6A1ded1-368">
          <mxGeometry x="195" y="370" width="150" height="140" as="geometry" />
        </mxCell>
        <mxCell id="zs4LzNgN_lSSM6A1ded1-355" style="edgeStyle=orthogonalEdgeStyle;rounded=0;orthogonalLoop=1;jettySize=auto;html=1;exitX=0.5;exitY=1;exitDx=0;exitDy=0;" edge="1" parent="zs4LzNgN_lSSM6A1ded1-368" source="zs4LzNgN_lSSM6A1ded1-351" target="zs4LzNgN_lSSM6A1ded1-354">
          <mxGeometry relative="1" as="geometry" />
        </mxCell>
        <mxCell id="zs4LzNgN_lSSM6A1ded1-358" value="True" style="edgeLabel;html=1;align=center;verticalAlign=middle;resizable=0;points=[];" vertex="1" connectable="0" parent="zs4LzNgN_lSSM6A1ded1-355">
          <mxGeometry x="-0.5393" y="1" relative="1" as="geometry">
            <mxPoint as="offset" />
          </mxGeometry>
        </mxCell>
        <mxCell id="zs4LzNgN_lSSM6A1ded1-351" value="is penetration greater than PENETRATION_THRESHOLD" style="rhombus;whiteSpace=wrap;html=1;" vertex="1" parent="zs4LzNgN_lSSM6A1ded1-368">
          <mxGeometry x="145" y="540" width="215" height="90" as="geometry" />
        </mxCell>
        <mxCell id="zs4LzNgN_lSSM6A1ded1-357" style="edgeStyle=orthogonalEdgeStyle;rounded=0;orthogonalLoop=1;jettySize=auto;html=1;exitX=0.5;exitY=1;exitDx=0;exitDy=0;entryX=0.5;entryY=0;entryDx=0;entryDy=0;" edge="1" parent="zs4LzNgN_lSSM6A1ded1-368" source="zs4LzNgN_lSSM6A1ded1-354" target="zs4LzNgN_lSSM6A1ded1-356">
          <mxGeometry relative="1" as="geometry" />
        </mxCell>
        <mxCell id="zs4LzNgN_lSSM6A1ded1-354" value="calculate correction vector" style="ellipse;whiteSpace=wrap;html=1;" vertex="1" parent="zs4LzNgN_lSSM6A1ded1-368">
          <mxGeometry x="192.5" y="660" width="120" height="80" as="geometry" />
        </mxCell>
        <mxCell id="zs4LzNgN_lSSM6A1ded1-360" style="edgeStyle=orthogonalEdgeStyle;rounded=0;orthogonalLoop=1;jettySize=auto;html=1;exitX=0.5;exitY=1;exitDx=0;exitDy=0;entryX=0.5;entryY=0;entryDx=0;entryDy=0;" edge="1" parent="zs4LzNgN_lSSM6A1ded1-368" source="zs4LzNgN_lSSM6A1ded1-356" target="zs4LzNgN_lSSM6A1ded1-359">
          <mxGeometry relative="1" as="geometry" />
        </mxCell>
        <mxCell id="zs4LzNgN_lSSM6A1ded1-356" value="update positions based on correction vector" style="ellipse;whiteSpace=wrap;html=1;" vertex="1" parent="zs4LzNgN_lSSM6A1ded1-368">
          <mxGeometry x="192.5" y="760" width="120" height="80" as="geometry" />
        </mxCell>
        <mxCell id="zs4LzNgN_lSSM6A1ded1-359" value="END resolve_collision (body_a, body_b, result)" style="rounded=1;whiteSpace=wrap;html=1;" vertex="1" parent="zs4LzNgN_lSSM6A1ded1-368">
          <mxGeometry x="195" y="870" width="120" height="60" as="geometry" />
        </mxCell>
        <mxCell id="zs4LzNgN_lSSM6A1ded1-362" style="edgeStyle=orthogonalEdgeStyle;rounded=0;orthogonalLoop=1;jettySize=auto;html=1;exitX=1;exitY=0.5;exitDx=0;exitDy=0;entryX=0.777;entryY=0.308;entryDx=0;entryDy=0;entryPerimeter=0;" edge="1" parent="zs4LzNgN_lSSM6A1ded1-368" source="zs4LzNgN_lSSM6A1ded1-332" target="zs4LzNgN_lSSM6A1ded1-340">
          <mxGeometry relative="1" as="geometry">
            <Array as="points">
              <mxPoint x="545" y="840" />
              <mxPoint x="545" y="1135" />
            </Array>
          </mxGeometry>
        </mxCell>
        <mxCell id="zs4LzNgN_lSSM6A1ded1-363" value="True" style="edgeLabel;html=1;align=center;verticalAlign=middle;resizable=0;points=[];" vertex="1" connectable="0" parent="zs4LzNgN_lSSM6A1ded1-362">
          <mxGeometry x="-0.958" y="-2" relative="1" as="geometry">
            <mxPoint x="4" y="-2" as="offset" />
          </mxGeometry>
        </mxCell>
        <mxCell id="zs4LzNgN_lSSM6A1ded1-369" value="Collision " style="text;html=1;align=center;verticalAlign=middle;resizable=0;points=[];autosize=1;strokeColor=none;fillColor=none;" vertex="1" parent="zs4LzNgN_lSSM6A1ded1-370">
          <mxGeometry x="332.5" width="70" height="30" as="geometry" />
        </mxCell>
        <mxCell id="zs4LzNgN_lSSM6A1ded1-373" style="edgeStyle=orthogonalEdgeStyle;rounded=0;orthogonalLoop=1;jettySize=auto;html=1;entryX=1;entryY=0.5;entryDx=0;entryDy=0;" edge="1" parent="zs4LzNgN_lSSM6A1ded1-370" source="zs4LzNgN_lSSM6A1ded1-371" target="zs4LzNgN_lSSM6A1ded1-302">
          <mxGeometry relative="1" as="geometry" />
        </mxCell>
        <mxCell id="zs4LzNgN_lSSM6A1ded1-371" value="&lt;div&gt;Generalized function; writing it out in full would be too complicated&lt;/div&gt;" style="text;html=1;align=center;verticalAlign=middle;resizable=0;points=[];autosize=1;strokeColor=none;fillColor=none;" vertex="1" parent="zs4LzNgN_lSSM6A1ded1-370">
          <mxGeometry x="560" y="-20" width="370" height="30" as="geometry" />
        </mxCell>
        <mxCell id="zs4LzNgN_lSSM6A1ded1-440" value="&lt;div&gt;The SAT, or separating axis theory, states that any two polygons are not colliding if any given axis can be found that separates them.&lt;/div&gt;&lt;div&gt;This can be calculated by generating a list of axes, which in this case can be done by iterating through all edges in the two shapes and calculating the perpendicular.&lt;/div&gt;&lt;div&gt;These axes are then iterated through, and the offset between the axis and two shapes is determined using the minimum and maximum vectors for each shape.&lt;/div&gt;&lt;div&gt;If this offset is 0, or less than 0, we know that the axis separates the two shapes, and we can return immediately; there is no collision between the shapes.&lt;/div&gt;&lt;div&gt;If o is less than mtv_overlap, which is set to infinity, we set the overlap to o and the axis to axis. &lt;br&gt;&lt;/div&gt;&lt;div&gt;We then check if this statement ran, as mtv_overlap was initialized as None outside the statement. If it is, we set the axis to negative&amp;nbsp;&lt;/div&gt;&lt;div&gt;if the difference in the two bodies position is negative.&lt;/div&gt;&lt;div&gt;We can then determine the contact point adding the positions and multiplying it by 0.5.&lt;/div&gt;" style="text;html=1;align=center;verticalAlign=middle;resizable=0;points=[];autosize=1;strokeColor=#6F0000;fillColor=#a20025;fontColor=#ffffff;" vertex="1" parent="1">
          <mxGeometry x="1028" y="1555" width="890" height="130" as="geometry" />
        </mxCell>
        <mxCell id="zs4LzNgN_lSSM6A1ded1-459" value="" style="group" vertex="1" connectable="0" parent="1">
          <mxGeometry x="1058" y="1090" width="810" height="1880" as="geometry" />
        </mxCell>
        <mxCell id="zs4LzNgN_lSSM6A1ded1-457" value="" style="group;strokeColor=default;" vertex="1" connectable="0" parent="zs4LzNgN_lSSM6A1ded1-459">
          <mxGeometry y="30" width="810" height="1850" as="geometry" />
        </mxCell>
        <mxCell id="zs4LzNgN_lSSM6A1ded1-374" style="edgeStyle=orthogonalEdgeStyle;rounded=0;orthogonalLoop=1;jettySize=auto;html=1;exitX=0.5;exitY=1;exitDx=0;exitDy=0;entryX=0.5;entryY=0;entryDx=0;entryDy=0;" edge="1" parent="zs4LzNgN_lSSM6A1ded1-457" source="zs4LzNgN_lSSM6A1ded1-375" target="zs4LzNgN_lSSM6A1ded1-378">
          <mxGeometry relative="1" as="geometry" />
        </mxCell>
        <mxCell id="zs4LzNgN_lSSM6A1ded1-375" value="BEGIN project polygon(Axis, Corners)" style="rounded=1;whiteSpace=wrap;html=1;" vertex="1" parent="zs4LzNgN_lSSM6A1ded1-457">
          <mxGeometry width="120" height="60" as="geometry" />
        </mxCell>
        <mxCell id="zs4LzNgN_lSSM6A1ded1-376" style="edgeStyle=orthogonalEdgeStyle;rounded=0;orthogonalLoop=1;jettySize=auto;html=1;exitX=1;exitY=0.5;exitDx=0;exitDy=0;entryX=0;entryY=0.5;entryDx=0;entryDy=0;" edge="1" parent="zs4LzNgN_lSSM6A1ded1-457" source="zs4LzNgN_lSSM6A1ded1-378" target="zs4LzNgN_lSSM6A1ded1-379">
          <mxGeometry relative="1" as="geometry" />
        </mxCell>
        <mxCell id="zs4LzNgN_lSSM6A1ded1-377" style="edgeStyle=orthogonalEdgeStyle;rounded=0;orthogonalLoop=1;jettySize=auto;html=1;exitX=0.5;exitY=1;exitDx=0;exitDy=0;entryX=0.5;entryY=0;entryDx=0;entryDy=0;" edge="1" parent="zs4LzNgN_lSSM6A1ded1-457" source="zs4LzNgN_lSSM6A1ded1-378" target="zs4LzNgN_lSSM6A1ded1-384">
          <mxGeometry relative="1" as="geometry" />
        </mxCell>
        <mxCell id="zs4LzNgN_lSSM6A1ded1-378" value="Set dots to list comprehension" style="rounded=0;whiteSpace=wrap;html=1;" vertex="1" parent="zs4LzNgN_lSSM6A1ded1-457">
          <mxGeometry y="100" width="120" height="60" as="geometry" />
        </mxCell>
        <mxCell id="zs4LzNgN_lSSM6A1ded1-379" value="Call dotproduct for each dot in dots" style="rounded=0;whiteSpace=wrap;html=1;" vertex="1" parent="zs4LzNgN_lSSM6A1ded1-457">
          <mxGeometry x="170" y="100" width="120" height="60" as="geometry" />
        </mxCell>
        <mxCell id="zs4LzNgN_lSSM6A1ded1-380" style="edgeStyle=orthogonalEdgeStyle;rounded=0;orthogonalLoop=1;jettySize=auto;html=1;exitX=1;exitY=0.5;exitDx=0;exitDy=0;entryX=0.5;entryY=1;entryDx=0;entryDy=0;" edge="1" parent="zs4LzNgN_lSSM6A1ded1-457" source="zs4LzNgN_lSSM6A1ded1-379" target="zs4LzNgN_lSSM6A1ded1-379">
          <mxGeometry relative="1" as="geometry" />
        </mxCell>
        <mxCell id="zs4LzNgN_lSSM6A1ded1-381" value="For all dots" style="edgeLabel;html=1;align=center;verticalAlign=middle;resizable=0;points=[];" vertex="1" connectable="0" parent="zs4LzNgN_lSSM6A1ded1-380">
          <mxGeometry x="-0.3765" y="2" relative="1" as="geometry">
            <mxPoint as="offset" />
          </mxGeometry>
        </mxCell>
        <mxCell id="zs4LzNgN_lSSM6A1ded1-382" value="Simplified list comprehension" style="text;html=1;align=center;verticalAlign=middle;resizable=0;points=[];autosize=1;strokeColor=#6F0000;fillColor=#a20025;fontColor=#ffffff;" vertex="1" parent="zs4LzNgN_lSSM6A1ded1-457">
          <mxGeometry x="140" y="50" width="180" height="30" as="geometry" />
        </mxCell>
        <mxCell id="zs4LzNgN_lSSM6A1ded1-383" style="edgeStyle=orthogonalEdgeStyle;rounded=0;orthogonalLoop=1;jettySize=auto;html=1;exitX=0.5;exitY=1;exitDx=0;exitDy=0;entryX=0.5;entryY=0;entryDx=0;entryDy=0;" edge="1" parent="zs4LzNgN_lSSM6A1ded1-457" source="zs4LzNgN_lSSM6A1ded1-384" target="zs4LzNgN_lSSM6A1ded1-385">
          <mxGeometry relative="1" as="geometry" />
        </mxCell>
        <mxCell id="zs4LzNgN_lSSM6A1ded1-384" value="Return min(dots), max(dots)" style="rounded=0;whiteSpace=wrap;html=1;" vertex="1" parent="zs4LzNgN_lSSM6A1ded1-457">
          <mxGeometry y="200" width="120" height="60" as="geometry" />
        </mxCell>
        <mxCell id="zs4LzNgN_lSSM6A1ded1-385" value="END project polygon(Axis, Corners)" style="rounded=1;whiteSpace=wrap;html=1;" vertex="1" parent="zs4LzNgN_lSSM6A1ded1-457">
          <mxGeometry y="300" width="120" height="60" as="geometry" />
        </mxCell>
        <mxCell id="zs4LzNgN_lSSM6A1ded1-386" style="edgeStyle=orthogonalEdgeStyle;rounded=0;orthogonalLoop=1;jettySize=auto;html=1;exitX=0.5;exitY=1;exitDx=0;exitDy=0;entryX=0.5;entryY=0;entryDx=0;entryDy=0;" edge="1" parent="zs4LzNgN_lSSM6A1ded1-457" source="zs4LzNgN_lSSM6A1ded1-387" target="zs4LzNgN_lSSM6A1ded1-389">
          <mxGeometry relative="1" as="geometry" />
        </mxCell>
        <mxCell id="zs4LzNgN_lSSM6A1ded1-387" value="BEGIN overlap intervals(min_a, max_a, min_b, max_b)" style="rounded=1;whiteSpace=wrap;html=1;" vertex="1" parent="zs4LzNgN_lSSM6A1ded1-457">
          <mxGeometry x="430" width="180" height="60" as="geometry" />
        </mxCell>
        <mxCell id="zs4LzNgN_lSSM6A1ded1-388" style="edgeStyle=orthogonalEdgeStyle;rounded=0;orthogonalLoop=1;jettySize=auto;html=1;exitX=0.5;exitY=1;exitDx=0;exitDy=0;entryX=0.5;entryY=0;entryDx=0;entryDy=0;" edge="1" parent="zs4LzNgN_lSSM6A1ded1-457" source="zs4LzNgN_lSSM6A1ded1-389" target="zs4LzNgN_lSSM6A1ded1-390">
          <mxGeometry relative="1" as="geometry" />
        </mxCell>
        <mxCell id="zs4LzNgN_lSSM6A1ded1-389" value="Return min(max_a - max_b), max(min_a - min_b)" style="rounded=0;whiteSpace=wrap;html=1;" vertex="1" parent="zs4LzNgN_lSSM6A1ded1-457">
          <mxGeometry x="460" y="90" width="120" height="60" as="geometry" />
        </mxCell>
        <mxCell id="zs4LzNgN_lSSM6A1ded1-390" value="END overlap intervals" style="rounded=1;whiteSpace=wrap;html=1;" vertex="1" parent="zs4LzNgN_lSSM6A1ded1-457">
          <mxGeometry x="430" y="190" width="180" height="60" as="geometry" />
        </mxCell>
        <mxCell id="zs4LzNgN_lSSM6A1ded1-391" style="edgeStyle=orthogonalEdgeStyle;rounded=0;orthogonalLoop=1;jettySize=auto;html=1;exitX=0.5;exitY=1;exitDx=0;exitDy=0;entryX=0.5;entryY=0;entryDx=0;entryDy=0;" edge="1" parent="zs4LzNgN_lSSM6A1ded1-457" source="zs4LzNgN_lSSM6A1ded1-392" target="zs4LzNgN_lSSM6A1ded1-394">
          <mxGeometry relative="1" as="geometry" />
        </mxCell>
        <mxCell id="zs4LzNgN_lSSM6A1ded1-392" value="BEGIN sat_collision(body_a, body_b)" style="rounded=1;whiteSpace=wrap;html=1;" vertex="1" parent="zs4LzNgN_lSSM6A1ded1-457">
          <mxGeometry x="141.25" y="620" width="180" height="60" as="geometry" />
        </mxCell>
        <mxCell id="zs4LzNgN_lSSM6A1ded1-393" style="edgeStyle=orthogonalEdgeStyle;rounded=0;orthogonalLoop=1;jettySize=auto;html=1;exitX=0.5;exitY=1;exitDx=0;exitDy=0;entryX=0.5;entryY=0;entryDx=0;entryDy=0;" edge="1" parent="zs4LzNgN_lSSM6A1ded1-457" source="zs4LzNgN_lSSM6A1ded1-394" target="zs4LzNgN_lSSM6A1ded1-396">
          <mxGeometry relative="1" as="geometry" />
        </mxCell>
        <mxCell id="zs4LzNgN_lSSM6A1ded1-394" value="Set corners_a to body_a&#39;s get_vertices method" style="shape=process;whiteSpace=wrap;html=1;backgroundOutline=1;" vertex="1" parent="zs4LzNgN_lSSM6A1ded1-457">
          <mxGeometry x="146.25" y="710" width="170" height="60" as="geometry" />
        </mxCell>
        <mxCell id="zs4LzNgN_lSSM6A1ded1-395" style="edgeStyle=orthogonalEdgeStyle;rounded=0;orthogonalLoop=1;jettySize=auto;html=1;exitX=0.5;exitY=1;exitDx=0;exitDy=0;entryX=0.5;entryY=0;entryDx=0;entryDy=0;" edge="1" parent="zs4LzNgN_lSSM6A1ded1-457" source="zs4LzNgN_lSSM6A1ded1-396" target="zs4LzNgN_lSSM6A1ded1-398">
          <mxGeometry relative="1" as="geometry" />
        </mxCell>
        <mxCell id="zs4LzNgN_lSSM6A1ded1-396" value="Set corners_b to body_b&#39;s get_vertices method" style="shape=process;whiteSpace=wrap;html=1;backgroundOutline=1;" vertex="1" parent="zs4LzNgN_lSSM6A1ded1-457">
          <mxGeometry x="146.25" y="790" width="170" height="60" as="geometry" />
        </mxCell>
        <mxCell id="zs4LzNgN_lSSM6A1ded1-397" style="edgeStyle=orthogonalEdgeStyle;rounded=0;orthogonalLoop=1;jettySize=auto;html=1;exitX=0.5;exitY=1;exitDx=0;exitDy=0;entryX=0.5;entryY=0;entryDx=0;entryDy=0;" edge="1" parent="zs4LzNgN_lSSM6A1ded1-457" source="zs4LzNgN_lSSM6A1ded1-398" target="zs4LzNgN_lSSM6A1ded1-401">
          <mxGeometry relative="1" as="geometry" />
        </mxCell>
        <mxCell id="zs4LzNgN_lSSM6A1ded1-398" value="Set axes to empty list" style="rounded=0;whiteSpace=wrap;html=1;" vertex="1" parent="zs4LzNgN_lSSM6A1ded1-457">
          <mxGeometry x="171.25" y="880" width="120" height="60" as="geometry" />
        </mxCell>
        <mxCell id="zs4LzNgN_lSSM6A1ded1-399" style="edgeStyle=orthogonalEdgeStyle;rounded=0;orthogonalLoop=1;jettySize=auto;html=1;exitX=0.5;exitY=1;exitDx=0;exitDy=0;entryX=0.5;entryY=0;entryDx=0;entryDy=0;" edge="1" parent="zs4LzNgN_lSSM6A1ded1-457" source="zs4LzNgN_lSSM6A1ded1-401" target="zs4LzNgN_lSSM6A1ded1-407">
          <mxGeometry relative="1" as="geometry" />
        </mxCell>
        <mxCell id="zs4LzNgN_lSSM6A1ded1-400" value="True" style="edgeLabel;html=1;align=center;verticalAlign=middle;resizable=0;points=[];" vertex="1" connectable="0" parent="zs4LzNgN_lSSM6A1ded1-399">
          <mxGeometry x="0.5889" y="-2" relative="1" as="geometry">
            <mxPoint as="offset" />
          </mxGeometry>
        </mxCell>
        <mxCell id="zs4LzNgN_lSSM6A1ded1-401" value="For poly in corners_a and corners_b" style="rounded=0;whiteSpace=wrap;html=1;" vertex="1" parent="zs4LzNgN_lSSM6A1ded1-457">
          <mxGeometry x="171.25" y="980" width="120" height="60" as="geometry" />
        </mxCell>
        <mxCell id="zs4LzNgN_lSSM6A1ded1-402" style="edgeStyle=orthogonalEdgeStyle;rounded=0;orthogonalLoop=1;jettySize=auto;html=1;exitX=0.5;exitY=1;exitDx=0;exitDy=0;entryX=0.5;entryY=0;entryDx=0;entryDy=0;" edge="1" parent="zs4LzNgN_lSSM6A1ded1-457" source="zs4LzNgN_lSSM6A1ded1-403" target="zs4LzNgN_lSSM6A1ded1-405">
          <mxGeometry relative="1" as="geometry" />
        </mxCell>
        <mxCell id="zs4LzNgN_lSSM6A1ded1-403" value="Enumerate poly with i, vector" style="rounded=0;whiteSpace=wrap;html=1;" vertex="1" parent="zs4LzNgN_lSSM6A1ded1-457">
          <mxGeometry x="161.25" y="1310" width="120" height="60" as="geometry" />
        </mxCell>
        <mxCell id="zs4LzNgN_lSSM6A1ded1-404" style="edgeStyle=orthogonalEdgeStyle;rounded=0;orthogonalLoop=1;jettySize=auto;html=1;exitX=0.5;exitY=1;exitDx=0;exitDy=0;entryX=0.5;entryY=0;entryDx=0;entryDy=0;" edge="1" parent="zs4LzNgN_lSSM6A1ded1-457" source="zs4LzNgN_lSSM6A1ded1-405" target="zs4LzNgN_lSSM6A1ded1-409">
          <mxGeometry relative="1" as="geometry" />
        </mxCell>
        <mxCell id="zs4LzNgN_lSSM6A1ded1-405" value="Set edge to element in poly at i + 1 modulo poly_len " style="rounded=0;whiteSpace=wrap;html=1;" vertex="1" parent="zs4LzNgN_lSSM6A1ded1-457">
          <mxGeometry x="171.25" y="1400" width="120" height="60" as="geometry" />
        </mxCell>
        <mxCell id="zs4LzNgN_lSSM6A1ded1-406" style="edgeStyle=orthogonalEdgeStyle;rounded=0;orthogonalLoop=1;jettySize=auto;html=1;exitX=0.5;exitY=1;exitDx=0;exitDy=0;entryX=0.5;entryY=0;entryDx=0;entryDy=0;" edge="1" parent="zs4LzNgN_lSSM6A1ded1-457" source="zs4LzNgN_lSSM6A1ded1-407" target="zs4LzNgN_lSSM6A1ded1-403">
          <mxGeometry relative="1" as="geometry" />
        </mxCell>
        <mxCell id="zs4LzNgN_lSSM6A1ded1-407" value="&lt;div&gt;Set poly_len to length of poly&lt;/div&gt;" style="rounded=0;whiteSpace=wrap;html=1;" vertex="1" parent="zs4LzNgN_lSSM6A1ded1-457">
          <mxGeometry x="171.25" y="1220" width="120" height="60" as="geometry" />
        </mxCell>
        <mxCell id="zs4LzNgN_lSSM6A1ded1-408" style="edgeStyle=orthogonalEdgeStyle;rounded=0;orthogonalLoop=1;jettySize=auto;html=1;exitX=0.5;exitY=1;exitDx=0;exitDy=0;entryX=0.5;entryY=0;entryDx=0;entryDy=0;" edge="1" parent="zs4LzNgN_lSSM6A1ded1-457" source="zs4LzNgN_lSSM6A1ded1-409" target="zs4LzNgN_lSSM6A1ded1-414">
          <mxGeometry relative="1" as="geometry" />
        </mxCell>
        <mxCell id="zs4LzNgN_lSSM6A1ded1-409" value="Call perpendicular and normalized on edge and append to axes" style="shape=process;whiteSpace=wrap;html=1;backgroundOutline=1;" vertex="1" parent="zs4LzNgN_lSSM6A1ded1-457">
          <mxGeometry x="151.25" y="1490" width="160" height="60" as="geometry" />
        </mxCell>
        <mxCell id="zs4LzNgN_lSSM6A1ded1-410" style="edgeStyle=orthogonalEdgeStyle;rounded=0;orthogonalLoop=1;jettySize=auto;html=1;exitX=1;exitY=0.5;exitDx=0;exitDy=0;entryX=1;entryY=0.5;entryDx=0;entryDy=0;" edge="1" parent="zs4LzNgN_lSSM6A1ded1-457" source="zs4LzNgN_lSSM6A1ded1-414" target="zs4LzNgN_lSSM6A1ded1-403">
          <mxGeometry relative="1" as="geometry">
            <Array as="points">
              <mxPoint x="331.25" y="1620" />
              <mxPoint x="331.25" y="1340" />
            </Array>
          </mxGeometry>
        </mxCell>
        <mxCell id="zs4LzNgN_lSSM6A1ded1-411" value="True" style="edgeLabel;html=1;align=center;verticalAlign=middle;resizable=0;points=[];" vertex="1" connectable="0" parent="zs4LzNgN_lSSM6A1ded1-410">
          <mxGeometry x="-0.9342" relative="1" as="geometry">
            <mxPoint as="offset" />
          </mxGeometry>
        </mxCell>
        <mxCell id="zs4LzNgN_lSSM6A1ded1-412" style="edgeStyle=orthogonalEdgeStyle;rounded=0;orthogonalLoop=1;jettySize=auto;html=1;exitX=0.5;exitY=1;exitDx=0;exitDy=0;entryX=1;entryY=0.5;entryDx=0;entryDy=0;" edge="1" parent="zs4LzNgN_lSSM6A1ded1-457" source="zs4LzNgN_lSSM6A1ded1-414" target="zs4LzNgN_lSSM6A1ded1-401">
          <mxGeometry relative="1" as="geometry">
            <Array as="points">
              <mxPoint x="231.25" y="1670" />
              <mxPoint x="341.25" y="1670" />
              <mxPoint x="341.25" y="1010" />
            </Array>
          </mxGeometry>
        </mxCell>
        <mxCell id="zs4LzNgN_lSSM6A1ded1-413" value="False" style="edgeLabel;html=1;align=center;verticalAlign=middle;resizable=0;points=[];" vertex="1" connectable="0" parent="zs4LzNgN_lSSM6A1ded1-412">
          <mxGeometry x="-0.82" y="1" relative="1" as="geometry">
            <mxPoint as="offset" />
          </mxGeometry>
        </mxCell>
        <mxCell id="zs4LzNgN_lSSM6A1ded1-414" value="More vector in poly?" style="rhombus;whiteSpace=wrap;html=1;" vertex="1" parent="zs4LzNgN_lSSM6A1ded1-457">
          <mxGeometry x="166.25" y="1580" width="130" height="80" as="geometry" />
        </mxCell>
        <mxCell id="zs4LzNgN_lSSM6A1ded1-415" style="edgeStyle=orthogonalEdgeStyle;rounded=0;orthogonalLoop=1;jettySize=auto;html=1;exitX=0;exitY=0.5;exitDx=0;exitDy=0;entryX=0;entryY=0.5;entryDx=0;entryDy=0;" edge="1" parent="zs4LzNgN_lSSM6A1ded1-457" source="zs4LzNgN_lSSM6A1ded1-417" target="zs4LzNgN_lSSM6A1ded1-419">
          <mxGeometry relative="1" as="geometry" />
        </mxCell>
        <mxCell id="zs4LzNgN_lSSM6A1ded1-416" value="False" style="edgeLabel;html=1;align=center;verticalAlign=middle;resizable=0;points=[];" vertex="1" connectable="0" parent="zs4LzNgN_lSSM6A1ded1-415">
          <mxGeometry x="-0.8748" y="-1" relative="1" as="geometry">
            <mxPoint as="offset" />
          </mxGeometry>
        </mxCell>
        <mxCell id="zs4LzNgN_lSSM6A1ded1-417" value="More poly in corners?" style="rhombus;whiteSpace=wrap;html=1;" vertex="1" parent="zs4LzNgN_lSSM6A1ded1-457">
          <mxGeometry x="166.25" y="1080" width="130" height="80" as="geometry" />
        </mxCell>
        <mxCell id="zs4LzNgN_lSSM6A1ded1-418" style="edgeStyle=orthogonalEdgeStyle;rounded=0;orthogonalLoop=1;jettySize=auto;html=1;exitX=1;exitY=0.5;exitDx=0;exitDy=0;entryX=0;entryY=0.5;entryDx=0;entryDy=0;" edge="1" parent="zs4LzNgN_lSSM6A1ded1-457" source="zs4LzNgN_lSSM6A1ded1-419" target="zs4LzNgN_lSSM6A1ded1-421">
          <mxGeometry relative="1" as="geometry" />
        </mxCell>
        <mxCell id="zs4LzNgN_lSSM6A1ded1-419" value="End loop" style="ellipse;whiteSpace=wrap;html=1;" vertex="1" parent="zs4LzNgN_lSSM6A1ded1-457">
          <mxGeometry x="171.25" y="1690" width="120" height="80" as="geometry" />
        </mxCell>
        <mxCell id="zs4LzNgN_lSSM6A1ded1-420" style="edgeStyle=orthogonalEdgeStyle;rounded=0;orthogonalLoop=1;jettySize=auto;html=1;exitX=0.5;exitY=1;exitDx=0;exitDy=0;" edge="1" parent="zs4LzNgN_lSSM6A1ded1-457" source="zs4LzNgN_lSSM6A1ded1-421" target="zs4LzNgN_lSSM6A1ded1-423">
          <mxGeometry relative="1" as="geometry" />
        </mxCell>
        <mxCell id="zs4LzNgN_lSSM6A1ded1-421" value="Set mtv_overlap to infinity" style="rounded=0;whiteSpace=wrap;html=1;" vertex="1" parent="zs4LzNgN_lSSM6A1ded1-457">
          <mxGeometry x="441.25" y="670" width="120" height="60" as="geometry" />
        </mxCell>
        <mxCell id="zs4LzNgN_lSSM6A1ded1-422" style="edgeStyle=orthogonalEdgeStyle;rounded=0;orthogonalLoop=1;jettySize=auto;html=1;exitX=0.5;exitY=1;exitDx=0;exitDy=0;entryX=0.5;entryY=0;entryDx=0;entryDy=0;" edge="1" parent="zs4LzNgN_lSSM6A1ded1-457" source="zs4LzNgN_lSSM6A1ded1-423" target="zs4LzNgN_lSSM6A1ded1-425">
          <mxGeometry relative="1" as="geometry" />
        </mxCell>
        <mxCell id="zs4LzNgN_lSSM6A1ded1-423" value="Set mtv_axis to None" style="rounded=0;whiteSpace=wrap;html=1;" vertex="1" parent="zs4LzNgN_lSSM6A1ded1-457">
          <mxGeometry x="441.25" y="750" width="120" height="60" as="geometry" />
        </mxCell>
        <mxCell id="zs4LzNgN_lSSM6A1ded1-424" style="edgeStyle=orthogonalEdgeStyle;rounded=0;orthogonalLoop=1;jettySize=auto;html=1;exitX=0.5;exitY=1;exitDx=0;exitDy=0;entryX=0.5;entryY=0;entryDx=0;entryDy=0;" edge="1" parent="zs4LzNgN_lSSM6A1ded1-457" source="zs4LzNgN_lSSM6A1ded1-425" target="zs4LzNgN_lSSM6A1ded1-427">
          <mxGeometry relative="1" as="geometry" />
        </mxCell>
        <mxCell id="zs4LzNgN_lSSM6A1ded1-425" value="For axis in axes" style="rounded=0;whiteSpace=wrap;html=1;" vertex="1" parent="zs4LzNgN_lSSM6A1ded1-457">
          <mxGeometry x="441.25" y="840" width="120" height="60" as="geometry" />
        </mxCell>
        <mxCell id="zs4LzNgN_lSSM6A1ded1-426" style="edgeStyle=orthogonalEdgeStyle;rounded=0;orthogonalLoop=1;jettySize=auto;html=1;exitX=0.5;exitY=1;exitDx=0;exitDy=0;entryX=0.5;entryY=0;entryDx=0;entryDy=0;" edge="1" parent="zs4LzNgN_lSSM6A1ded1-457" source="zs4LzNgN_lSSM6A1ded1-427" target="zs4LzNgN_lSSM6A1ded1-429">
          <mxGeometry relative="1" as="geometry" />
        </mxCell>
        <mxCell id="zs4LzNgN_lSSM6A1ded1-427" value="Unpack min_a, max_a from call project_polygon(axis, corners_a)" style="shape=process;whiteSpace=wrap;html=1;backgroundOutline=1;" vertex="1" parent="zs4LzNgN_lSSM6A1ded1-457">
          <mxGeometry x="418.75" y="950" width="165" height="60" as="geometry" />
        </mxCell>
        <mxCell id="zs4LzNgN_lSSM6A1ded1-428" style="edgeStyle=orthogonalEdgeStyle;rounded=0;orthogonalLoop=1;jettySize=auto;html=1;exitX=0.5;exitY=1;exitDx=0;exitDy=0;entryX=0.5;entryY=0;entryDx=0;entryDy=0;" edge="1" parent="zs4LzNgN_lSSM6A1ded1-457" source="zs4LzNgN_lSSM6A1ded1-429" target="zs4LzNgN_lSSM6A1ded1-431">
          <mxGeometry relative="1" as="geometry" />
        </mxCell>
        <mxCell id="zs4LzNgN_lSSM6A1ded1-429" value="Unpack min_b, max_b from call project_polygon(axis, corners_b)" style="shape=process;whiteSpace=wrap;html=1;backgroundOutline=1;" vertex="1" parent="zs4LzNgN_lSSM6A1ded1-457">
          <mxGeometry x="418.75" y="1050" width="165" height="60" as="geometry" />
        </mxCell>
        <mxCell id="zs4LzNgN_lSSM6A1ded1-430" style="edgeStyle=orthogonalEdgeStyle;rounded=0;orthogonalLoop=1;jettySize=auto;html=1;exitX=0.5;exitY=1;exitDx=0;exitDy=0;entryX=0.5;entryY=0;entryDx=0;entryDy=0;" edge="1" parent="zs4LzNgN_lSSM6A1ded1-457" source="zs4LzNgN_lSSM6A1ded1-431" target="zs4LzNgN_lSSM6A1ded1-436">
          <mxGeometry relative="1" as="geometry" />
        </mxCell>
        <mxCell id="zs4LzNgN_lSSM6A1ded1-431" value="Unpack o to call overlap_inttervals(min_a, max_a, min_b, max_b)" style="shape=process;whiteSpace=wrap;html=1;backgroundOutline=1;" vertex="1" parent="zs4LzNgN_lSSM6A1ded1-457">
          <mxGeometry x="410" y="1130" width="182.5" height="60" as="geometry" />
        </mxCell>
        <mxCell id="zs4LzNgN_lSSM6A1ded1-432" style="edgeStyle=orthogonalEdgeStyle;rounded=0;orthogonalLoop=1;jettySize=auto;html=1;exitX=1;exitY=0.5;exitDx=0;exitDy=0;entryX=0;entryY=0.5;entryDx=0;entryDy=0;" edge="1" parent="zs4LzNgN_lSSM6A1ded1-457" source="zs4LzNgN_lSSM6A1ded1-436" target="zs4LzNgN_lSSM6A1ded1-438">
          <mxGeometry relative="1" as="geometry" />
        </mxCell>
        <mxCell id="zs4LzNgN_lSSM6A1ded1-433" value="True" style="edgeLabel;html=1;align=center;verticalAlign=middle;resizable=0;points=[];" vertex="1" connectable="0" parent="zs4LzNgN_lSSM6A1ded1-432">
          <mxGeometry x="-0.3824" y="-1" relative="1" as="geometry">
            <mxPoint as="offset" />
          </mxGeometry>
        </mxCell>
        <mxCell id="zs4LzNgN_lSSM6A1ded1-434" style="edgeStyle=orthogonalEdgeStyle;rounded=0;orthogonalLoop=1;jettySize=auto;html=1;exitX=0.5;exitY=1;exitDx=0;exitDy=0;entryX=0.5;entryY=0;entryDx=0;entryDy=0;" edge="1" parent="zs4LzNgN_lSSM6A1ded1-457" source="zs4LzNgN_lSSM6A1ded1-436" target="zs4LzNgN_lSSM6A1ded1-446">
          <mxGeometry relative="1" as="geometry" />
        </mxCell>
        <mxCell id="zs4LzNgN_lSSM6A1ded1-435" value="True" style="edgeLabel;html=1;align=center;verticalAlign=middle;resizable=0;points=[];" vertex="1" connectable="0" parent="zs4LzNgN_lSSM6A1ded1-434">
          <mxGeometry x="-0.116" relative="1" as="geometry">
            <mxPoint as="offset" />
          </mxGeometry>
        </mxCell>
        <mxCell id="zs4LzNgN_lSSM6A1ded1-436" value="o less than or equal to 0" style="rhombus;whiteSpace=wrap;html=1;" vertex="1" parent="zs4LzNgN_lSSM6A1ded1-457">
          <mxGeometry x="421.25" y="1210" width="160" height="80" as="geometry" />
        </mxCell>
        <mxCell id="zs4LzNgN_lSSM6A1ded1-437" style="edgeStyle=orthogonalEdgeStyle;rounded=0;orthogonalLoop=1;jettySize=auto;html=1;exitX=0.5;exitY=1;exitDx=0;exitDy=0;entryX=0.5;entryY=0;entryDx=0;entryDy=0;" edge="1" parent="zs4LzNgN_lSSM6A1ded1-457" source="zs4LzNgN_lSSM6A1ded1-438" target="zs4LzNgN_lSSM6A1ded1-441">
          <mxGeometry relative="1" as="geometry" />
        </mxCell>
        <mxCell id="zs4LzNgN_lSSM6A1ded1-438" value="Return False, None, None, None, None" style="rounded=0;whiteSpace=wrap;html=1;" vertex="1" parent="zs4LzNgN_lSSM6A1ded1-457">
          <mxGeometry x="641.25" y="1220" width="120" height="60" as="geometry" />
        </mxCell>
        <mxCell id="zs4LzNgN_lSSM6A1ded1-441" value="END sat collision" style="rounded=1;whiteSpace=wrap;html=1;" vertex="1" parent="zs4LzNgN_lSSM6A1ded1-457">
          <mxGeometry x="641.25" y="1520" width="120" height="60" as="geometry" />
        </mxCell>
        <mxCell id="zs4LzNgN_lSSM6A1ded1-442" style="edgeStyle=orthogonalEdgeStyle;rounded=0;orthogonalLoop=1;jettySize=auto;html=1;exitX=0.5;exitY=1;exitDx=0;exitDy=0;entryX=0.5;entryY=0;entryDx=0;entryDy=0;" edge="1" parent="zs4LzNgN_lSSM6A1ded1-457" source="zs4LzNgN_lSSM6A1ded1-446" target="zs4LzNgN_lSSM6A1ded1-448">
          <mxGeometry relative="1" as="geometry" />
        </mxCell>
        <mxCell id="zs4LzNgN_lSSM6A1ded1-443" value="True" style="edgeLabel;html=1;align=center;verticalAlign=middle;resizable=0;points=[];" vertex="1" connectable="0" parent="zs4LzNgN_lSSM6A1ded1-442">
          <mxGeometry x="0.0418" relative="1" as="geometry">
            <mxPoint as="offset" />
          </mxGeometry>
        </mxCell>
        <mxCell id="zs4LzNgN_lSSM6A1ded1-444" style="edgeStyle=orthogonalEdgeStyle;rounded=0;orthogonalLoop=1;jettySize=auto;html=1;exitX=1;exitY=0.5;exitDx=0;exitDy=0;entryX=1;entryY=0.5;entryDx=0;entryDy=0;" edge="1" parent="zs4LzNgN_lSSM6A1ded1-457" source="zs4LzNgN_lSSM6A1ded1-446" target="zs4LzNgN_lSSM6A1ded1-452">
          <mxGeometry relative="1" as="geometry">
            <Array as="points">
              <mxPoint x="600" y="1380" />
              <mxPoint x="600" y="1670" />
            </Array>
          </mxGeometry>
        </mxCell>
        <mxCell id="zs4LzNgN_lSSM6A1ded1-445" value="False" style="edgeLabel;html=1;align=center;verticalAlign=middle;resizable=0;points=[];" vertex="1" connectable="0" parent="zs4LzNgN_lSSM6A1ded1-444">
          <mxGeometry x="-0.9176" y="-1" relative="1" as="geometry">
            <mxPoint as="offset" />
          </mxGeometry>
        </mxCell>
        <mxCell id="zs4LzNgN_lSSM6A1ded1-446" value="o less than mtv overlap" style="rhombus;whiteSpace=wrap;html=1;" vertex="1" parent="zs4LzNgN_lSSM6A1ded1-457">
          <mxGeometry x="440" y="1340" width="121.25" height="80" as="geometry" />
        </mxCell>
        <mxCell id="zs4LzNgN_lSSM6A1ded1-447" style="edgeStyle=orthogonalEdgeStyle;rounded=0;orthogonalLoop=1;jettySize=auto;html=1;exitX=0.5;exitY=1;exitDx=0;exitDy=0;entryX=0.5;entryY=0;entryDx=0;entryDy=0;" edge="1" parent="zs4LzNgN_lSSM6A1ded1-457" source="zs4LzNgN_lSSM6A1ded1-448" target="zs4LzNgN_lSSM6A1ded1-450">
          <mxGeometry relative="1" as="geometry" />
        </mxCell>
        <mxCell id="zs4LzNgN_lSSM6A1ded1-448" value="Set mtv_overlap to o" style="rounded=0;whiteSpace=wrap;html=1;" vertex="1" parent="zs4LzNgN_lSSM6A1ded1-457">
          <mxGeometry x="440" y="1470" width="120" height="60" as="geometry" />
        </mxCell>
        <mxCell id="zs4LzNgN_lSSM6A1ded1-449" style="edgeStyle=orthogonalEdgeStyle;rounded=0;orthogonalLoop=1;jettySize=auto;html=1;exitX=0.5;exitY=1;exitDx=0;exitDy=0;entryX=0.5;entryY=0;entryDx=0;entryDy=0;" edge="1" parent="zs4LzNgN_lSSM6A1ded1-457" source="zs4LzNgN_lSSM6A1ded1-450" target="zs4LzNgN_lSSM6A1ded1-452">
          <mxGeometry relative="1" as="geometry" />
        </mxCell>
        <mxCell id="zs4LzNgN_lSSM6A1ded1-450" value="Set mtv_axis to axis" style="rounded=0;whiteSpace=wrap;html=1;" vertex="1" parent="zs4LzNgN_lSSM6A1ded1-457">
          <mxGeometry x="440" y="1560" width="120" height="60" as="geometry" />
        </mxCell>
        <mxCell id="zs4LzNgN_lSSM6A1ded1-451" style="edgeStyle=orthogonalEdgeStyle;rounded=0;orthogonalLoop=1;jettySize=auto;html=1;exitX=0.5;exitY=1;exitDx=0;exitDy=0;entryX=0.5;entryY=0;entryDx=0;entryDy=0;" edge="1" parent="zs4LzNgN_lSSM6A1ded1-457" source="zs4LzNgN_lSSM6A1ded1-452" target="zs4LzNgN_lSSM6A1ded1-454">
          <mxGeometry relative="1" as="geometry" />
        </mxCell>
        <mxCell id="zs4LzNgN_lSSM6A1ded1-452" value="Set contact point to sum of body_a and b position multiplied by 0.5" style="whiteSpace=wrap;html=1;" vertex="1" parent="zs4LzNgN_lSSM6A1ded1-457">
          <mxGeometry x="440" y="1640" width="120" height="60" as="geometry" />
        </mxCell>
        <mxCell id="zs4LzNgN_lSSM6A1ded1-453" style="edgeStyle=orthogonalEdgeStyle;rounded=0;orthogonalLoop=1;jettySize=auto;html=1;exitX=1;exitY=0.5;exitDx=0;exitDy=0;entryX=0.5;entryY=1;entryDx=0;entryDy=0;" edge="1" parent="zs4LzNgN_lSSM6A1ded1-457" source="zs4LzNgN_lSSM6A1ded1-454" target="zs4LzNgN_lSSM6A1ded1-441">
          <mxGeometry relative="1" as="geometry" />
        </mxCell>
        <mxCell id="zs4LzNgN_lSSM6A1ded1-454" value="Return True, mtv_axis, mtv_overlap, contact_point, d" style="whiteSpace=wrap;html=1;" vertex="1" parent="zs4LzNgN_lSSM6A1ded1-457">
          <mxGeometry x="441.25" y="1730" width="120" height="60" as="geometry" />
        </mxCell>
        <mxCell id="zs4LzNgN_lSSM6A1ded1-455" style="edgeStyle=orthogonalEdgeStyle;rounded=0;orthogonalLoop=1;jettySize=auto;html=1;entryX=1;entryY=0.75;entryDx=0;entryDy=0;fillColor=#a20025;strokeColor=#6F0000;" edge="1" parent="zs4LzNgN_lSSM6A1ded1-457" source="zs4LzNgN_lSSM6A1ded1-456" target="zs4LzNgN_lSSM6A1ded1-452">
          <mxGeometry relative="1" as="geometry" />
        </mxCell>
        <mxCell id="zs4LzNgN_lSSM6A1ded1-456" value="position is technically a function call, but it is a property so this will be ignored" style="text;html=1;align=center;verticalAlign=middle;resizable=0;points=[];autosize=1;strokeColor=#6F0000;fillColor=#a20025;fontColor=#ffffff;" vertex="1" parent="zs4LzNgN_lSSM6A1ded1-457">
          <mxGeometry x="370" y="1820" width="440" height="30" as="geometry" />
        </mxCell>
        <mxCell id="zs4LzNgN_lSSM6A1ded1-458" value="SAT" style="text;html=1;align=center;verticalAlign=middle;resizable=0;points=[];autosize=1;strokeColor=none;fillColor=none;" vertex="1" parent="zs4LzNgN_lSSM6A1ded1-459">
          <mxGeometry x="380" width="50" height="30" as="geometry" />
        </mxCell>
        <mxCell id="zs4LzNgN_lSSM6A1ded1-439" style="edgeStyle=orthogonalEdgeStyle;rounded=0;orthogonalLoop=1;jettySize=auto;html=1;entryX=1;entryY=0.5;entryDx=0;entryDy=0;fillColor=#a20025;strokeColor=#6F0000;" edge="1" parent="1" source="zs4LzNgN_lSSM6A1ded1-440" target="zs4LzNgN_lSSM6A1ded1-392">
          <mxGeometry relative="1" as="geometry" />
        </mxCell>
        <mxCell id="zs4LzNgN_lSSM6A1ded1-509" value="" style="group" vertex="1" connectable="0" parent="1">
          <mxGeometry x="2068" y="1080" width="480" height="830" as="geometry" />
        </mxCell>
        <mxCell id="zs4LzNgN_lSSM6A1ded1-507" value="" style="group;strokeColor=default;" vertex="1" connectable="0" parent="zs4LzNgN_lSSM6A1ded1-509">
          <mxGeometry y="30" width="480" height="800" as="geometry" />
        </mxCell>
        <mxCell id="zs4LzNgN_lSSM6A1ded1-462" style="edgeStyle=orthogonalEdgeStyle;rounded=0;orthogonalLoop=1;jettySize=auto;html=1;exitX=0.5;exitY=1;exitDx=0;exitDy=0;entryX=0.5;entryY=0;entryDx=0;entryDy=0;" edge="1" parent="zs4LzNgN_lSSM6A1ded1-507" source="zs4LzNgN_lSSM6A1ded1-460" target="zs4LzNgN_lSSM6A1ded1-461">
          <mxGeometry relative="1" as="geometry" />
        </mxCell>
        <mxCell id="zs4LzNgN_lSSM6A1ded1-460" value="BEGIN __init__ (misc properties)" style="rounded=1;whiteSpace=wrap;html=1;" vertex="1" parent="zs4LzNgN_lSSM6A1ded1-507">
          <mxGeometry width="120" height="60" as="geometry" />
        </mxCell>
        <mxCell id="zs4LzNgN_lSSM6A1ded1-464" style="edgeStyle=orthogonalEdgeStyle;rounded=0;orthogonalLoop=1;jettySize=auto;html=1;exitX=0.5;exitY=1;exitDx=0;exitDy=0;entryX=0.5;entryY=0;entryDx=0;entryDy=0;" edge="1" parent="zs4LzNgN_lSSM6A1ded1-507" source="zs4LzNgN_lSSM6A1ded1-461" target="zs4LzNgN_lSSM6A1ded1-463">
          <mxGeometry relative="1" as="geometry" />
        </mxCell>
        <mxCell id="zs4LzNgN_lSSM6A1ded1-461" value="&lt;div&gt;initialize all variables; &lt;br&gt;&lt;/div&gt;&lt;div&gt;- vertices&lt;/div&gt;&lt;div&gt;- position&lt;/div&gt;&lt;div&gt;- velocity&lt;/div&gt;&lt;div&gt;- angle&lt;/div&gt;&lt;div&gt;- mass&lt;/div&gt;&lt;div&gt;- restitution&lt;/div&gt;&lt;div&gt;- moment_of_inertia&lt;/div&gt;&lt;div&gt;- angular_velocity&lt;/div&gt;&lt;div&gt;- force&lt;/div&gt;&lt;div&gt;- torque&lt;/div&gt;&lt;div&gt;- pinned&lt;/div&gt;" style="rounded=0;whiteSpace=wrap;html=1;" vertex="1" parent="zs4LzNgN_lSSM6A1ded1-507">
          <mxGeometry y="80" width="120" height="240" as="geometry" />
        </mxCell>
        <mxCell id="zs4LzNgN_lSSM6A1ded1-463" value="END __init__ (misc properties)" style="rounded=1;whiteSpace=wrap;html=1;" vertex="1" parent="zs4LzNgN_lSSM6A1ded1-507">
          <mxGeometry y="340" width="120" height="60" as="geometry" />
        </mxCell>
        <mxCell id="zs4LzNgN_lSSM6A1ded1-467" style="edgeStyle=orthogonalEdgeStyle;rounded=0;orthogonalLoop=1;jettySize=auto;html=1;exitX=0.5;exitY=1;exitDx=0;exitDy=0;entryX=0.5;entryY=0;entryDx=0;entryDy=0;" edge="1" parent="zs4LzNgN_lSSM6A1ded1-507" source="zs4LzNgN_lSSM6A1ded1-465" target="zs4LzNgN_lSSM6A1ded1-466">
          <mxGeometry relative="1" as="geometry" />
        </mxCell>
        <mxCell id="zs4LzNgN_lSSM6A1ded1-465" value="BEGIN get_vertices" style="rounded=1;whiteSpace=wrap;html=1;" vertex="1" parent="zs4LzNgN_lSSM6A1ded1-507">
          <mxGeometry x="180" width="120" height="60" as="geometry" />
        </mxCell>
        <mxCell id="zs4LzNgN_lSSM6A1ded1-469" style="edgeStyle=orthogonalEdgeStyle;rounded=0;orthogonalLoop=1;jettySize=auto;html=1;exitX=0.5;exitY=1;exitDx=0;exitDy=0;entryX=0.5;entryY=0;entryDx=0;entryDy=0;" edge="1" parent="zs4LzNgN_lSSM6A1ded1-507" source="zs4LzNgN_lSSM6A1ded1-466" target="zs4LzNgN_lSSM6A1ded1-468">
          <mxGeometry relative="1" as="geometry" />
        </mxCell>
        <mxCell id="zs4LzNgN_lSSM6A1ded1-466" value="set transformed_vertices to empty list" style="rounded=0;whiteSpace=wrap;html=1;" vertex="1" parent="zs4LzNgN_lSSM6A1ded1-507">
          <mxGeometry x="180" y="80" width="120" height="60" as="geometry" />
        </mxCell>
        <mxCell id="zs4LzNgN_lSSM6A1ded1-471" style="edgeStyle=orthogonalEdgeStyle;rounded=0;orthogonalLoop=1;jettySize=auto;html=1;exitX=0.5;exitY=1;exitDx=0;exitDy=0;entryX=0.5;entryY=0;entryDx=0;entryDy=0;" edge="1" parent="zs4LzNgN_lSSM6A1ded1-507" source="zs4LzNgN_lSSM6A1ded1-468" target="zs4LzNgN_lSSM6A1ded1-472">
          <mxGeometry relative="1" as="geometry">
            <mxPoint x="240" y="259.9999999999998" as="targetPoint" />
          </mxGeometry>
        </mxCell>
        <mxCell id="zs4LzNgN_lSSM6A1ded1-468" value="select vertex in vertices" style="rounded=0;whiteSpace=wrap;html=1;" vertex="1" parent="zs4LzNgN_lSSM6A1ded1-507">
          <mxGeometry x="180" y="170" width="120" height="60" as="geometry" />
        </mxCell>
        <mxCell id="zs4LzNgN_lSSM6A1ded1-474" style="edgeStyle=orthogonalEdgeStyle;rounded=0;orthogonalLoop=1;jettySize=auto;html=1;exitX=0.5;exitY=1;exitDx=0;exitDy=0;entryX=0.5;entryY=0;entryDx=0;entryDy=0;" edge="1" parent="zs4LzNgN_lSSM6A1ded1-507" source="zs4LzNgN_lSSM6A1ded1-472" target="zs4LzNgN_lSSM6A1ded1-476">
          <mxGeometry relative="1" as="geometry">
            <mxPoint x="240" y="349.9999999999998" as="targetPoint" />
          </mxGeometry>
        </mxCell>
        <mxCell id="zs4LzNgN_lSSM6A1ded1-472" value="set rotated_vertex to result of function call rotated, passing angle" style="shape=process;whiteSpace=wrap;html=1;backgroundOutline=1;" vertex="1" parent="zs4LzNgN_lSSM6A1ded1-507">
          <mxGeometry x="160" y="260" width="160" height="60" as="geometry" />
        </mxCell>
        <mxCell id="zs4LzNgN_lSSM6A1ded1-479" style="edgeStyle=orthogonalEdgeStyle;rounded=0;orthogonalLoop=1;jettySize=auto;html=1;exitX=0.5;exitY=1;exitDx=0;exitDy=0;entryX=0.5;entryY=0;entryDx=0;entryDy=0;" edge="1" parent="zs4LzNgN_lSSM6A1ded1-507" source="zs4LzNgN_lSSM6A1ded1-476" target="zs4LzNgN_lSSM6A1ded1-478">
          <mxGeometry relative="1" as="geometry" />
        </mxCell>
        <mxCell id="zs4LzNgN_lSSM6A1ded1-476" value="set translated_vertex to rotated_vertex + position" style="rounded=0;whiteSpace=wrap;html=1;" vertex="1" parent="zs4LzNgN_lSSM6A1ded1-507">
          <mxGeometry x="180" y="350" width="120" height="60" as="geometry" />
        </mxCell>
        <mxCell id="zs4LzNgN_lSSM6A1ded1-481" style="edgeStyle=orthogonalEdgeStyle;rounded=0;orthogonalLoop=1;jettySize=auto;html=1;exitX=0.5;exitY=1;exitDx=0;exitDy=0;entryX=0.5;entryY=0;entryDx=0;entryDy=0;" edge="1" parent="zs4LzNgN_lSSM6A1ded1-507" source="zs4LzNgN_lSSM6A1ded1-478" target="zs4LzNgN_lSSM6A1ded1-480">
          <mxGeometry relative="1" as="geometry" />
        </mxCell>
        <mxCell id="zs4LzNgN_lSSM6A1ded1-478" value="append translated_vertex to transformed_vertices" style="shape=process;whiteSpace=wrap;html=1;backgroundOutline=1;" vertex="1" parent="zs4LzNgN_lSSM6A1ded1-507">
          <mxGeometry x="170" y="440" width="140" height="60" as="geometry" />
        </mxCell>
        <mxCell id="zs4LzNgN_lSSM6A1ded1-482" style="edgeStyle=orthogonalEdgeStyle;rounded=0;orthogonalLoop=1;jettySize=auto;html=1;exitX=1;exitY=0.5;exitDx=0;exitDy=0;entryX=1;entryY=0.5;entryDx=0;entryDy=0;" edge="1" parent="zs4LzNgN_lSSM6A1ded1-507" source="zs4LzNgN_lSSM6A1ded1-480" target="zs4LzNgN_lSSM6A1ded1-468">
          <mxGeometry relative="1" as="geometry" />
        </mxCell>
        <mxCell id="zs4LzNgN_lSSM6A1ded1-483" value="True" style="edgeLabel;html=1;align=center;verticalAlign=middle;resizable=0;points=[];" vertex="1" connectable="0" parent="zs4LzNgN_lSSM6A1ded1-482">
          <mxGeometry x="-0.9413" relative="1" as="geometry">
            <mxPoint as="offset" />
          </mxGeometry>
        </mxCell>
        <mxCell id="zs4LzNgN_lSSM6A1ded1-485" style="edgeStyle=orthogonalEdgeStyle;rounded=0;orthogonalLoop=1;jettySize=auto;html=1;exitX=0.5;exitY=1;exitDx=0;exitDy=0;entryX=0.5;entryY=0;entryDx=0;entryDy=0;" edge="1" parent="zs4LzNgN_lSSM6A1ded1-507" source="zs4LzNgN_lSSM6A1ded1-480" target="zs4LzNgN_lSSM6A1ded1-484">
          <mxGeometry relative="1" as="geometry" />
        </mxCell>
        <mxCell id="zs4LzNgN_lSSM6A1ded1-486" value="False" style="edgeLabel;html=1;align=center;verticalAlign=middle;resizable=0;points=[];" vertex="1" connectable="0" parent="zs4LzNgN_lSSM6A1ded1-485">
          <mxGeometry x="-0.4206" y="3" relative="1" as="geometry">
            <mxPoint as="offset" />
          </mxGeometry>
        </mxCell>
        <mxCell id="zs4LzNgN_lSSM6A1ded1-480" value="more vertex in vertices?" style="rhombus;whiteSpace=wrap;html=1;" vertex="1" parent="zs4LzNgN_lSSM6A1ded1-507">
          <mxGeometry x="165" y="530" width="150" height="80" as="geometry" />
        </mxCell>
        <mxCell id="zs4LzNgN_lSSM6A1ded1-488" style="edgeStyle=orthogonalEdgeStyle;rounded=0;orthogonalLoop=1;jettySize=auto;html=1;exitX=0.5;exitY=1;exitDx=0;exitDy=0;entryX=0.5;entryY=0;entryDx=0;entryDy=0;" edge="1" parent="zs4LzNgN_lSSM6A1ded1-507" source="zs4LzNgN_lSSM6A1ded1-484" target="zs4LzNgN_lSSM6A1ded1-487">
          <mxGeometry relative="1" as="geometry" />
        </mxCell>
        <mxCell id="zs4LzNgN_lSSM6A1ded1-484" value="RETURN transformed_vertices" style="rounded=0;whiteSpace=wrap;html=1;" vertex="1" parent="zs4LzNgN_lSSM6A1ded1-507">
          <mxGeometry x="180" y="650" width="120" height="60" as="geometry" />
        </mxCell>
        <mxCell id="zs4LzNgN_lSSM6A1ded1-487" value="END get_vertices" style="rounded=1;whiteSpace=wrap;html=1;" vertex="1" parent="zs4LzNgN_lSSM6A1ded1-507">
          <mxGeometry x="180" y="740" width="120" height="60" as="geometry" />
        </mxCell>
        <mxCell id="zs4LzNgN_lSSM6A1ded1-491" style="edgeStyle=orthogonalEdgeStyle;rounded=0;orthogonalLoop=1;jettySize=auto;html=1;exitX=0.5;exitY=1;exitDx=0;exitDy=0;entryX=0.5;entryY=0;entryDx=0;entryDy=0;" edge="1" parent="zs4LzNgN_lSSM6A1ded1-507" source="zs4LzNgN_lSSM6A1ded1-489" target="zs4LzNgN_lSSM6A1ded1-490">
          <mxGeometry relative="1" as="geometry" />
        </mxCell>
        <mxCell id="zs4LzNgN_lSSM6A1ded1-489" value="BEGIN update (delta_time, gravity)" style="rounded=1;whiteSpace=wrap;html=1;" vertex="1" parent="zs4LzNgN_lSSM6A1ded1-507">
          <mxGeometry x="360" width="120" height="60" as="geometry" />
        </mxCell>
        <mxCell id="zs4LzNgN_lSSM6A1ded1-493" style="edgeStyle=orthogonalEdgeStyle;rounded=0;orthogonalLoop=1;jettySize=auto;html=1;exitX=0.5;exitY=1;exitDx=0;exitDy=0;entryX=0.5;entryY=0;entryDx=0;entryDy=0;" edge="1" parent="zs4LzNgN_lSSM6A1ded1-507" source="zs4LzNgN_lSSM6A1ded1-490" target="zs4LzNgN_lSSM6A1ded1-492">
          <mxGeometry relative="1" as="geometry" />
        </mxCell>
        <mxCell id="zs4LzNgN_lSSM6A1ded1-490" value="set acceleration = force / mass" style="rounded=0;whiteSpace=wrap;html=1;" vertex="1" parent="zs4LzNgN_lSSM6A1ded1-507">
          <mxGeometry x="360" y="100" width="120" height="60" as="geometry" />
        </mxCell>
        <mxCell id="zs4LzNgN_lSSM6A1ded1-495" style="edgeStyle=orthogonalEdgeStyle;rounded=0;orthogonalLoop=1;jettySize=auto;html=1;exitX=0.5;exitY=1;exitDx=0;exitDy=0;entryX=0.5;entryY=0;entryDx=0;entryDy=0;" edge="1" parent="zs4LzNgN_lSSM6A1ded1-507" source="zs4LzNgN_lSSM6A1ded1-492" target="zs4LzNgN_lSSM6A1ded1-494">
          <mxGeometry relative="1" as="geometry" />
        </mxCell>
        <mxCell id="zs4LzNgN_lSSM6A1ded1-492" value="set velocity = velocity + acceleration * delta_time" style="rounded=0;whiteSpace=wrap;html=1;" vertex="1" parent="zs4LzNgN_lSSM6A1ded1-507">
          <mxGeometry x="360" y="180" width="120" height="60" as="geometry" />
        </mxCell>
        <mxCell id="zs4LzNgN_lSSM6A1ded1-497" style="edgeStyle=orthogonalEdgeStyle;rounded=0;orthogonalLoop=1;jettySize=auto;html=1;exitX=0.5;exitY=1;exitDx=0;exitDy=0;entryX=0.5;entryY=0;entryDx=0;entryDy=0;" edge="1" parent="zs4LzNgN_lSSM6A1ded1-507" source="zs4LzNgN_lSSM6A1ded1-494" target="zs4LzNgN_lSSM6A1ded1-496">
          <mxGeometry relative="1" as="geometry" />
        </mxCell>
        <mxCell id="zs4LzNgN_lSSM6A1ded1-494" value="set position = position + velocity * delta_time" style="rounded=0;whiteSpace=wrap;html=1;" vertex="1" parent="zs4LzNgN_lSSM6A1ded1-507">
          <mxGeometry x="360" y="260" width="120" height="60" as="geometry" />
        </mxCell>
        <mxCell id="zs4LzNgN_lSSM6A1ded1-499" style="edgeStyle=orthogonalEdgeStyle;rounded=0;orthogonalLoop=1;jettySize=auto;html=1;exitX=0.5;exitY=1;exitDx=0;exitDy=0;entryX=0.5;entryY=0;entryDx=0;entryDy=0;" edge="1" parent="zs4LzNgN_lSSM6A1ded1-507" source="zs4LzNgN_lSSM6A1ded1-496" target="zs4LzNgN_lSSM6A1ded1-498">
          <mxGeometry relative="1" as="geometry" />
        </mxCell>
        <mxCell id="zs4LzNgN_lSSM6A1ded1-496" value="set angular_acc = torque / moment_of_inertia" style="rounded=0;whiteSpace=wrap;html=1;" vertex="1" parent="zs4LzNgN_lSSM6A1ded1-507">
          <mxGeometry x="360" y="340" width="120" height="60" as="geometry" />
        </mxCell>
        <mxCell id="zs4LzNgN_lSSM6A1ded1-502" style="edgeStyle=orthogonalEdgeStyle;rounded=0;orthogonalLoop=1;jettySize=auto;html=1;exitX=0.5;exitY=1;exitDx=0;exitDy=0;entryX=0.5;entryY=0;entryDx=0;entryDy=0;" edge="1" parent="zs4LzNgN_lSSM6A1ded1-507" source="zs4LzNgN_lSSM6A1ded1-498" target="zs4LzNgN_lSSM6A1ded1-500">
          <mxGeometry relative="1" as="geometry" />
        </mxCell>
        <mxCell id="zs4LzNgN_lSSM6A1ded1-498" value="set angular_velocity += angular_acc * delta_time" style="rounded=0;whiteSpace=wrap;html=1;" vertex="1" parent="zs4LzNgN_lSSM6A1ded1-507">
          <mxGeometry x="360" y="420" width="120" height="60" as="geometry" />
        </mxCell>
        <mxCell id="zs4LzNgN_lSSM6A1ded1-504" style="edgeStyle=orthogonalEdgeStyle;rounded=0;orthogonalLoop=1;jettySize=auto;html=1;exitX=0.5;exitY=1;exitDx=0;exitDy=0;entryX=0.5;entryY=0;entryDx=0;entryDy=0;" edge="1" parent="zs4LzNgN_lSSM6A1ded1-507" source="zs4LzNgN_lSSM6A1ded1-500" target="zs4LzNgN_lSSM6A1ded1-503">
          <mxGeometry relative="1" as="geometry" />
        </mxCell>
        <mxCell id="zs4LzNgN_lSSM6A1ded1-500" value="set angle += angular_velocity * delta_time" style="rounded=0;whiteSpace=wrap;html=1;" vertex="1" parent="zs4LzNgN_lSSM6A1ded1-507">
          <mxGeometry x="360" y="500" width="120" height="60" as="geometry" />
        </mxCell>
        <mxCell id="zs4LzNgN_lSSM6A1ded1-506" style="edgeStyle=orthogonalEdgeStyle;rounded=0;orthogonalLoop=1;jettySize=auto;html=1;exitX=0.5;exitY=1;exitDx=0;exitDy=0;entryX=0.5;entryY=0;entryDx=0;entryDy=0;" edge="1" parent="zs4LzNgN_lSSM6A1ded1-507" source="zs4LzNgN_lSSM6A1ded1-503" target="zs4LzNgN_lSSM6A1ded1-505">
          <mxGeometry relative="1" as="geometry" />
        </mxCell>
        <mxCell id="zs4LzNgN_lSSM6A1ded1-503" value="reset force" style="shape=process;whiteSpace=wrap;html=1;backgroundOutline=1;" vertex="1" parent="zs4LzNgN_lSSM6A1ded1-507">
          <mxGeometry x="360" y="580" width="120" height="60" as="geometry" />
        </mxCell>
        <mxCell id="zs4LzNgN_lSSM6A1ded1-505" value="END update (delta_time, gravity)" style="rounded=1;whiteSpace=wrap;html=1;" vertex="1" parent="zs4LzNgN_lSSM6A1ded1-507">
          <mxGeometry x="360" y="660" width="120" height="60" as="geometry" />
        </mxCell>
        <mxCell id="zs4LzNgN_lSSM6A1ded1-508" value="RigidBody CLASS" style="text;html=1;align=center;verticalAlign=middle;resizable=0;points=[];autosize=1;strokeColor=none;fillColor=none;" vertex="1" parent="zs4LzNgN_lSSM6A1ded1-509">
          <mxGeometry x="180" width="120" height="30" as="geometry" />
        </mxCell>
      </root>
    </mxGraphModel>
  </diagram>
</mxfile>
